<svg width="49" height="48" viewBox="0 0 49 48" fill="none" xmlns="http://www.w3.org/2000/svg">
<rect x="0.5" width="48" height="48" rx="16" fill="url(#paint0_linear_33550_8730)"/>
<path d="M34.1 22.7312V16C34.1 15.1163 33.3836 14.4 32.5 14.4H16.5C15.6163 14.4 14.9 15.1163 14.9 16V32C14.9 32.8836 15.6163 33.6 16.5 33.6H23.2312C23.389 34.1578 23.6004 34.6931 23.8595 35.2H16.5C14.7327 35.2 13.3 33.7673 13.3 32V16C13.3 14.2327 14.7327 12.8 16.5 12.8H32.5C34.2673 12.8 35.7 14.2327 35.7 16V23.3595C35.1931 23.1004 34.6578 22.889 34.1 22.7312ZM19.3 20.8C19.9627 20.8 20.5 20.2627 20.5 19.6C20.5 18.9372 19.9627 18.4 19.3 18.4C18.6372 18.4 18.1 18.9372 18.1 19.6C18.1 20.2627 18.6372 20.8 19.3 20.8ZM20.5 24.4C20.5 25.0627 19.9627 25.6 19.3 25.6C18.6372 25.6 18.1 25.0627 18.1 24.4C18.1 23.7372 18.6372 23.2 19.3 23.2C19.9627 23.2 20.5 23.7372 20.5 24.4ZM20.5 29.2C20.5 29.8627 19.9627 30.4 19.3 30.4C18.6372 30.4 18.1 29.8627 18.1 29.2C18.1 28.5372 18.6372 28 19.3 28C19.9627 28 20.5 28.5372 20.5 29.2ZM22.9 20C22.9 19.5582 23.2582 19.2 23.7 19.2H30.1C30.5418 19.2 30.9 19.5582 30.9 20C30.9 20.4418 30.5418 20.8 30.1 20.8H23.7C23.2582 20.8 22.9 20.4418 22.9 20ZM22.9 24.8C22.9 24.3582 23.2582 24 23.7 24H26.6391C25.9941 24.4542 25.4128 24.9929 24.9114 25.6H23.7C23.2582 25.6 22.9 25.2418 22.9 24.8ZM38.9 31.2C38.9 35.1764 35.6764 38.4 31.7 38.4C27.7235 38.4 24.5 35.1764 24.5 31.2C24.5 27.2235 27.7235 24 31.7 24C35.6764 24 38.9 27.2235 38.9 31.2ZM31.7 27.2C31.2582 27.2 30.9 27.5582 30.9 28V31.2C30.9 31.6418 31.2582 32 31.7 32H34.1C34.5418 32 34.9 31.6418 34.9 31.2C34.9 30.7582 34.5418 30.4 34.1 30.4H32.5V28C32.5 27.5582 32.1418 27.2 31.7 27.2Z" fill="white"/>
<defs>
<linearGradient id="paint0_linear_33550_8730" x1="0.5" y1="0" x2="48.5" y2="48" gradientUnits="userSpaceOnUse">
<stop stop-color="#B0DAFF"/>
<stop offset="1" stop-color="#3180E8"/>
</linearGradient>
</defs>
</svg>
