<svg width="57" height="56" viewBox="0 0 57 56" fill="none" xmlns="http://www.w3.org/2000/svg">
<path d="M13.2831 35.1711L19.0517 27.3783C20.7901 29.1365 21.7947 31.474 21.8664 33.9276C21.9381 36.3811 21.0718 38.7718 19.439 40.6256C17.8063 42.4795 15.5263 43.6614 13.0509 43.937C10.5755 44.2127 8.08538 43.5619 6.07393 42.1138C4.06249 40.6657 2.67655 38.5259 2.19076 36.1185C1.70498 33.711 2.1548 31.2115 3.45109 29.1154C4.74738 27.0193 6.79554 25.4795 9.18968 24.8012C11.5838 24.1229 14.1492 24.3555 16.3775 25.453L10.6088 33.2499C10.4713 33.4223 10.3704 33.6202 10.3123 33.8318C10.2541 34.0434 10.2398 34.2644 10.2703 34.4816C10.3007 34.6988 10.3753 34.9077 10.4895 35.0959C10.6037 35.284 10.7552 35.4476 10.935 35.5767C11.1148 35.7059 11.3192 35.798 11.5359 35.8476C11.7527 35.8972 11.9773 35.9033 12.1965 35.8654C12.4157 35.8276 12.6248 35.7466 12.8115 35.6273C12.9982 35.508 13.1586 35.3528 13.2831 35.1711ZM45.0634 24.4211C43.8663 24.4205 42.679 24.6341 41.5592 25.0512L46.4937 33.3947C46.6191 33.5802 46.7045 33.7891 46.7448 34.0084C46.7851 34.2277 46.7794 34.4529 46.728 34.6699C46.6766 34.887 46.5806 35.0913 46.4459 35.2704C46.3113 35.4495 46.1408 35.5995 45.945 35.7112C45.7493 35.8228 45.5324 35.8938 45.3077 35.9197C45.083 35.9455 44.8553 35.9258 44.6387 35.8616C44.4221 35.7974 44.2211 35.6902 44.0482 35.5466C43.8752 35.4029 43.734 35.2258 43.6332 35.0263L38.7007 26.693C36.906 28.1681 35.6965 30.2193 35.2849 32.4862C34.8732 34.753 35.2857 37.0902 36.4499 39.087C37.6141 41.0838 39.4554 42.6122 41.6501 43.4037C43.8449 44.1951 46.2525 44.1989 48.4498 43.4143C50.6471 42.6297 52.4933 41.107 53.6639 39.1138C54.8345 37.1207 55.2545 34.7848 54.8501 32.5167C54.4457 30.2486 53.2428 28.1936 51.4529 26.7129C49.6629 25.2323 47.4005 24.4207 45.0634 24.4211ZM36.3556 16.2632H41.7517C42.1908 16.2632 42.612 16.4351 42.9226 16.741C43.2331 17.047 43.4075 17.462 43.4075 17.8947C43.4075 18.3275 43.582 18.7425 43.8925 19.0484C44.2031 19.3544 44.6243 19.5263 45.0634 19.5263C45.5026 19.5263 45.9238 19.3544 46.2343 19.0484C46.5448 18.7425 46.7193 18.3275 46.7193 17.8947C46.7193 16.5966 46.1959 15.3516 45.2643 14.4336C44.3327 13.5157 43.0692 13 41.7517 13H33.4723C33.182 13.0007 32.8969 13.0765 32.6457 13.22C32.3945 13.3634 32.186 13.5695 32.0411 13.8174C31.8962 14.0653 31.82 14.3464 31.8202 14.6325C31.8204 14.9186 31.8969 15.1996 32.042 15.4474L34.4534 19.5263H22.556L19.1718 13.8158C19.0268 13.5683 18.8183 13.3627 18.5673 13.2195C18.3163 13.0763 18.0315 13.0007 17.7415 13H11.946C11.5068 13 11.0856 13.1719 10.7751 13.4779C10.4645 13.7839 10.2901 14.1989 10.2901 14.6316C10.2901 15.0643 10.4645 15.4793 10.7751 15.7853C11.0856 16.0913 11.5068 16.2632 11.946 16.2632H16.7915L19.6292 21.058L16.3775 25.453C17.3722 25.9424 18.2763 26.5932 19.0517 27.3783L21.4507 24.1355L27.9024 35.0263C28.0032 35.2258 28.1444 35.4029 28.3174 35.5466C28.4903 35.6902 28.6913 35.7974 28.9079 35.8616C29.1245 35.9258 29.3522 35.9455 29.5769 35.9197C29.8016 35.8938 30.0185 35.8228 30.2142 35.7112C30.41 35.5995 30.5805 35.4495 30.7151 35.2704C30.8498 35.0913 30.9458 34.887 30.9972 34.6699C31.0486 34.4529 31.0544 34.2277 31.0141 34.0084C30.9737 33.7891 30.8883 33.5802 30.7629 33.3947L24.4871 22.7895H36.3846L38.7007 26.6991C39.5535 25.9965 40.5197 25.4395 41.5592 25.0512L36.3556 16.2632Z" fill="#323E44"/>
</svg>
