<svg width="49" height="48" viewBox="0 0 49 48" fill="none" xmlns="http://www.w3.org/2000/svg">
<rect x="0.5" width="48" height="48" rx="16" fill="#34C759"/>
<path d="M13.4092 34.9642V12.3485C13.4092 12.2206 13.4656 12.1321 13.5784 12.0829C13.6912 12.0338 13.7933 12.0519 13.8848 12.1374L14.8386 12.9758C14.9449 13.0681 15.0679 13.1143 15.2075 13.1143C15.3471 13.1143 15.4715 13.0681 15.5809 12.9758L16.701 12.0374C16.8064 11.9494 16.9283 11.9053 17.0666 11.9053C17.205 11.9053 17.3269 11.9494 17.4323 12.0374L18.5523 12.9758C18.6577 13.0681 18.781 13.1143 18.9221 13.1143C19.0633 13.1143 19.1876 13.0681 19.295 12.9758L20.4151 12.0374C20.5205 11.9494 20.6423 11.9053 20.7807 11.9053C20.9191 11.9053 21.041 11.9494 21.1464 12.0374L22.2664 12.9758C22.3718 13.0681 22.4951 13.1143 22.6362 13.1143C22.7774 13.1143 22.9017 13.0681 23.0091 12.9758L24.1373 12.0271C24.2425 11.9348 24.3634 11.8887 24.5001 11.8887C24.6369 11.8887 24.7578 11.9348 24.8629 12.0271L25.9976 12.9758C26.1039 13.0681 26.2268 13.1143 26.3664 13.1143C26.506 13.1143 26.6283 13.0681 26.7335 12.9758L27.8514 12.0374C27.9565 11.9494 28.0797 11.9053 28.2208 11.9053C28.3619 11.9053 28.4862 11.9494 28.5937 12.0374L29.7117 12.9758C29.818 13.0681 29.9409 13.1143 30.0805 13.1143C30.2201 13.1143 30.3424 13.0681 30.4475 12.9758L31.5655 12.0374C31.6706 11.9494 31.7938 11.9053 31.9349 11.9053C32.076 11.9053 32.2003 11.9494 32.3078 12.0374L33.4257 12.9758C33.5321 13.0681 33.655 13.1143 33.7946 13.1143C33.9342 13.1143 34.0565 13.0681 34.1616 12.9758L35.1155 12.1374C35.2069 12.0519 35.3091 12.0338 35.4219 12.0829C35.5347 12.1321 35.5911 12.2206 35.5911 12.3485V34.9642C35.5911 35.2179 35.4815 35.3917 35.2623 35.4859C35.0431 35.58 34.8399 35.5441 34.6527 35.3783L34.1595 34.9621C34.0558 34.8755 33.9342 34.8322 33.7946 34.8322C33.655 34.8322 33.5321 34.8762 33.4257 34.9642L32.3078 35.9027C32.2003 35.995 32.076 36.0411 31.9349 36.0411C31.7938 36.0411 31.6705 35.995 31.5651 35.9027L30.4451 34.9642C30.3397 34.8762 30.2178 34.8322 30.0794 34.8322C29.941 34.8322 29.8192 34.8762 29.7138 34.9642L28.5937 35.9027C28.4862 35.995 28.3619 36.0411 28.2208 36.0411C28.0797 36.0411 27.9564 35.995 27.851 35.9027L26.731 34.9642C26.6256 34.8762 26.5037 34.8322 26.3653 34.8322C26.2269 34.8322 26.1051 34.8762 25.9997 34.9642L24.8629 35.9194C24.7578 36.0117 24.6369 36.0578 24.5001 36.0578C24.3634 36.0578 24.2425 36.0117 24.1373 35.9194L23.0091 34.9642C22.9017 34.8762 22.7774 34.8322 22.6362 34.8322C22.4951 34.8322 22.3719 34.8762 22.2668 34.9642L21.1489 35.9027C21.0426 35.995 20.9196 36.0411 20.78 36.0411C20.6405 36.0411 20.5181 35.995 20.413 35.9027L19.295 34.9642C19.1876 34.8762 19.0633 34.8322 18.9221 34.8322C18.781 34.8322 18.6579 34.8762 18.5527 34.9642L17.4348 35.9027C17.3285 35.995 17.2056 36.0411 17.066 36.0411C16.9264 36.0411 16.804 35.995 16.6989 35.9027L15.5809 34.9642C15.4735 34.8762 15.3492 34.8322 15.208 34.8322C15.0669 34.8322 14.9445 34.8755 14.8408 34.9621L14.3476 35.3783C14.1604 35.5441 13.9572 35.58 13.738 35.4859C13.5188 35.3917 13.4092 35.2179 13.4092 34.9642ZM17.904 29.7078H31.1027C31.3568 29.7078 31.5752 29.6166 31.758 29.4341C31.9408 29.2516 32.0322 29.032 32.0322 28.7751C32.0322 28.5183 31.9408 28.2987 31.758 28.1162C31.5752 27.9337 31.3568 27.8425 31.1027 27.8425H17.904C17.645 27.8425 17.4243 27.9339 17.2418 28.1167C17.0593 28.2995 16.9681 28.5179 16.9681 28.7719C16.9681 29.0309 17.0593 29.2516 17.2418 29.4341C17.4243 29.6166 17.645 29.7078 17.904 29.7078ZM17.904 24.9027H31.1027C31.3568 24.9027 31.5752 24.8125 31.758 24.6322C31.9408 24.4519 32.0322 24.2322 32.0322 23.9732C32.0322 23.7143 31.9408 23.4936 31.758 23.3111C31.5752 23.1286 31.3568 23.0374 31.1027 23.0374H17.904C17.645 23.0374 17.4243 23.1286 17.2418 23.3111C17.0593 23.4936 16.9681 23.7143 16.9681 23.9732C16.9681 24.2322 17.0593 24.4519 17.2418 24.6322C17.4243 24.8125 17.645 24.9027 17.904 24.9027ZM17.904 20.104H31.1027C31.3568 20.104 31.5752 20.0128 31.758 19.8303C31.9408 19.6478 32.0322 19.4282 32.0322 19.1713C32.0322 18.9145 31.9408 18.6949 31.758 18.5124C31.5752 18.3299 31.3568 18.2387 31.1027 18.2387H17.904C17.645 18.2387 17.4243 18.3301 17.2418 18.5129C17.0593 18.6957 16.9681 18.9141 16.9681 19.1681C16.9681 19.4271 17.0593 19.6478 17.2418 19.8303C17.4243 20.0128 17.645 20.104 17.904 20.104Z" fill="white"/>
</svg>
