<svg width="32" height="32" viewBox="0 0 32 32" fill="none" xmlns="http://www.w3.org/2000/svg">
<path d="M4 23.6667C4 26.0599 5.9401 28 8.33333 28H14.8868L15.3612 26.1024C15.3698 26.0682 15.3787 26.034 15.388 26H8.33333C7.04467 26 6 24.9553 6 23.6667V14.6667H10.3333L10.5792 14.6598C12.8581 14.5323 14.6667 12.644 14.6667 10.3333V6H23.6667C24.9553 6 26 7.04467 26 8.33333V14.9765C26.6385 14.7226 27.3247 14.6247 28 14.683V8.33333C28 5.9401 26.0599 4 23.6667 4H14.4951C13.6994 4 12.9364 4.31607 12.3738 4.87868L4.87868 12.3738C4.31607 12.9364 4 13.6994 4 14.4951V23.6667ZM10.3333 12.6667H7.41467L12.6667 7.41467V10.3333L12.6589 10.5247C12.5616 11.7239 11.5576 12.6667 10.3333 12.6667ZM25.4665 16.8926L17.5966 24.7625C17.1377 25.2214 16.8122 25.7963 16.6548 26.4258L16.0446 28.8668C15.7792 29.9283 16.7407 30.8898 17.8023 30.6244L20.2432 30.0142C20.8727 29.8568 21.4477 29.5313 21.9065 29.0724L29.7764 21.2025C30.9666 20.0124 30.9666 18.0828 29.7764 16.8926C28.5862 15.7025 26.6566 15.7025 25.4665 16.8926Z" fill="black"/>
</svg>
