<svg width="24" height="24" viewBox="0 0 24 24" fill="none" xmlns="http://www.w3.org/2000/svg">
<path d="M4.90611 5.05864L4.97554 4.97554C5.18382 4.76726 5.50713 4.74412 5.74097 4.90611L5.82407 4.97554L11.9998 11.1514L18.1755 4.97554C18.3838 4.76726 18.7071 4.74412 18.941 4.90611L19.0241 4.97554C19.2323 5.18382 19.2555 5.50713 19.0935 5.74097L19.0241 5.82407L12.8482 11.9998L19.0241 18.1755C19.2323 18.3838 19.2555 18.7071 19.0935 18.941L19.0241 19.0241C18.8158 19.2323 18.4925 19.2555 18.2586 19.0935L18.1755 19.0241L11.9998 12.8482L5.82407 19.0241C5.61579 19.2323 5.29248 19.2555 5.05864 19.0935L4.97554 19.0241C4.76726 18.8158 4.74412 18.4925 4.90611 18.2586L4.97554 18.1755L11.1514 11.9998L4.97554 5.82407C4.76726 5.61579 4.74412 5.29248 4.90611 5.05864L4.97554 4.97554L4.90611 5.05864Z" fill="#3180E8"/>
</svg>
