<svg width="32" height="32" viewBox="0 0 32 32" fill="none" xmlns="http://www.w3.org/2000/svg">
<path d="M9.41059 18.0459C8.8497 18.0459 8.36904 17.8445 7.96862 17.4417C7.5682 17.039 7.36799 16.5571 7.36799 15.9963C7.36799 15.4354 7.56939 14.9547 7.97219 14.5543C8.37496 14.1539 8.85679 13.9537 9.41765 13.9537C9.97854 13.9537 10.4592 14.1551 10.8596 14.5579C11.26 14.9607 11.4603 15.4425 11.4603 16.0033C11.4603 16.5642 11.2589 17.0449 10.8561 17.4453C10.4533 17.8457 9.97145 18.0459 9.41059 18.0459ZM9.41155 23.1446C7.42824 23.1446 5.74203 22.4505 4.35292 21.0621C2.96383 19.6737 2.26929 17.9878 2.26929 16.0044C2.26929 14.021 2.96392 12.3336 4.35319 10.9421C5.74248 9.5507 7.42945 8.85498 9.41412 8.85498C10.821 8.85498 12.0898 9.22037 13.2205 9.95115C14.3513 10.6819 15.212 11.6409 15.8026 12.8281H27.3734C27.5148 12.8281 27.6541 12.8554 27.7912 12.9101C27.9282 12.9648 28.0538 13.0494 28.1679 13.1639L30.2128 15.2088C30.3273 15.3251 30.4113 15.4491 30.4647 15.5808C30.5181 15.7125 30.5449 15.8536 30.5449 16.0041C30.5449 16.1547 30.5181 16.2948 30.4647 16.4245C30.4113 16.5542 30.3276 16.6761 30.2135 16.7901L26.7538 20.237C26.6557 20.3386 26.5457 20.4137 26.4239 20.4622C26.302 20.5107 26.1754 20.5424 26.0441 20.5571C25.9128 20.5719 25.7826 20.5607 25.6534 20.5237C25.5243 20.4867 25.4022 20.427 25.2872 20.3446L23.5898 19.0651L21.6911 20.4741C21.5885 20.5476 21.4825 20.6023 21.3731 20.6382C21.2637 20.6741 21.1522 20.692 21.0385 20.692C20.9248 20.692 20.8116 20.6747 20.6988 20.6401C20.586 20.6055 20.4804 20.5557 20.3821 20.4908L18.4757 19.1715H15.8026C15.2127 20.3564 14.3507 21.3148 13.2166 22.0467C12.0826 22.7787 10.8142 23.1446 9.41155 23.1446ZM9.40672 21.2793C10.6681 21.2793 11.7633 20.8975 12.6923 20.1338C13.6214 19.3701 14.2252 18.4276 14.5039 17.3062H19.0501L20.9975 18.6447C20.9889 18.6447 20.9868 18.6464 20.9911 18.6498C20.9954 18.6532 20.9975 18.6515 20.9975 18.6447L23.6026 16.7396L25.8936 18.4601L28.3706 15.9998L27.0641 14.6934H14.5039C14.2252 13.5609 13.6194 12.6156 12.6865 11.8575C11.7535 11.0994 10.6626 10.7203 9.41385 10.7203C7.95421 10.7203 6.70943 11.2355 5.67952 12.266C4.64959 13.2964 4.13462 14.5413 4.13462 16.0006C4.13462 17.4599 4.65085 18.7045 5.68332 19.7344C6.71576 20.7643 7.9569 21.2793 9.40672 21.2793Z" fill="#3180E8"/>
</svg>
