<svg width="49" height="48" viewBox="0 0 49 48" fill="none" xmlns="http://www.w3.org/2000/svg">
<rect x="0.5" width="48" height="48" rx="16" fill="url(#paint0_linear_33550_8769)"/>
<path d="M16.5 35.2H22.9V33.6H16.5C15.6163 33.6 14.9 32.8837 14.9 32V16C14.9 15.1163 15.6163 14.4 16.5 14.4H32.5C33.3836 14.4 34.1 15.1163 34.1 16V22.48C34.6911 22.6 35.2349 22.8503 35.7 23.1997V16C35.7 14.2327 34.2673 12.8 32.5 12.8H16.5C14.7327 12.8 13.3 14.2327 13.3 16V32C13.3 33.7673 14.7327 35.2 16.5 35.2ZM23.7 25.6H26.18C26.3 25.0089 26.5503 24.4651 26.8997 24H23.7C23.2582 24 22.9 24.3582 22.9 24.8C22.9 25.2418 23.2582 25.6 23.7 25.6ZM20.5 19.6C20.5 20.2627 19.9627 20.8 19.3 20.8C18.6372 20.8 18.1 20.2627 18.1 19.6C18.1 18.9373 18.6372 18.4 19.3 18.4C19.9627 18.4 20.5 18.9373 20.5 19.6ZM20.5 24.4C20.5 25.0627 19.9627 25.6 19.3 25.6C18.6372 25.6 18.1 25.0627 18.1 24.4C18.1 23.7373 18.6372 23.2 19.3 23.2C19.9627 23.2 20.5 23.7373 20.5 24.4ZM19.3 30.4C19.9627 30.4 20.5 29.8627 20.5 29.2C20.5 28.5373 19.9627 28 19.3 28C18.6372 28 18.1 28.5373 18.1 29.2C18.1 29.8627 18.6372 30.4 19.3 30.4ZM22.9 20C22.9 19.5582 23.2582 19.2 23.7 19.2H30.1C30.5418 19.2 30.9 19.5582 30.9 20C30.9 20.4418 30.5418 20.8 30.1 20.8H23.7C23.2582 20.8 22.9 20.4418 22.9 20ZM27.7 27.2V26.4C27.7 25.0745 28.7745 24 30.1 24H33.3C34.6255 24 35.7 25.0745 35.7 26.4V27.2H36.5C37.8255 27.2 38.9 28.2745 38.9 29.6V32H35.7V31.2C35.7 30.7582 35.3418 30.4 34.9 30.4C34.4582 30.4 34.1 30.7582 34.1 31.2V32H29.3V31.2C29.3 30.7582 28.9418 30.4 28.5 30.4C28.0582 30.4 27.7 30.7582 27.7 31.2V32H24.5V29.6C24.5 28.2745 25.5745 27.2 26.9 27.2H27.7ZM29.3 26.4V27.2H34.1V26.4C34.1 25.9582 33.7418 25.6 33.3 25.6H30.1C29.6582 25.6 29.3 25.9582 29.3 26.4ZM35.7 33.6H38.9V36C38.9 37.3255 37.8255 38.4 36.5 38.4H26.9C25.5745 38.4 24.5 37.3255 24.5 36V33.6H27.7V34.4C27.7 34.8418 28.0582 35.2 28.5 35.2C28.9418 35.2 29.3 34.8418 29.3 34.4V33.6H34.1V34.4C34.1 34.8418 34.4582 35.2 34.9 35.2C35.3418 35.2 35.7 34.8418 35.7 34.4V33.6Z" fill="white"/>
<defs>
<linearGradient id="paint0_linear_33550_8769" x1="0.5" y1="0" x2="48.5" y2="48" gradientUnits="userSpaceOnUse">
<stop stop-color="#B7EB8F"/>
<stop offset="1" stop-color="#52C41A"/>
</linearGradient>
</defs>
</svg>
