<svg width="57" height="56" viewBox="0 0 57 56" fill="none" xmlns="http://www.w3.org/2000/svg">
<path d="M13.8357 41.5334V43.7322C13.8357 44.4177 13.5955 45.0004 13.1151 45.4802C12.6347 45.9601 12.0514 46.2001 11.3652 46.2001C10.6789 46.2001 10.0965 45.9601 9.61787 45.4802C9.13922 45.0004 8.8999 44.4177 8.8999 43.7322V27.2732C8.8999 27.0309 8.91561 26.7886 8.94704 26.5463C8.97846 26.304 9.03131 26.0719 9.10558 25.8501L13.2839 14.0361C13.5635 13.1958 14.0703 12.5131 14.8043 11.988C15.5383 11.4628 16.3597 11.2002 17.2685 11.2002H40.1979C41.1067 11.2002 41.928 11.4628 42.662 11.988C43.396 12.5131 43.9029 13.1958 44.1825 14.0361L48.3608 25.8501C48.4351 26.0719 48.4879 26.304 48.5193 26.5463C48.5507 26.7886 48.5665 27.0309 48.5665 27.2732V43.7322C48.5665 44.4177 48.3263 45.0004 47.8459 45.4802C47.3655 45.9601 46.7822 46.2001 46.0959 46.2001C45.4097 46.2001 44.8272 45.9601 44.3486 45.4802C43.87 45.0004 43.6307 44.4177 43.6307 43.7322V41.5334H13.8357ZM13.8178 23.0464H43.6486L40.8845 15.1714C40.8246 15.0217 40.7349 14.9058 40.6152 14.8236C40.4956 14.7413 40.3535 14.7001 40.1889 14.7001H17.2774C17.1129 14.7001 16.9708 14.7413 16.8511 14.8236C16.7315 14.9058 16.6417 15.0217 16.5819 15.1714L13.8178 23.0464ZM18.1487 35.3412C18.9977 35.3412 19.7176 35.044 20.3084 34.4496C20.8993 33.8553 21.1947 33.1336 21.1947 32.2846C21.1947 31.4356 20.8975 30.7157 20.3032 30.1249C19.7089 29.534 18.9872 29.2386 18.1382 29.2386C17.2891 29.2386 16.5692 29.5358 15.9784 30.1301C15.3876 30.7245 15.0922 31.4461 15.0922 32.2952C15.0922 33.1442 15.3893 33.8641 15.9837 34.455C16.578 35.0458 17.2997 35.3412 18.1487 35.3412ZM39.3282 35.3412C40.1772 35.3412 40.8972 35.044 41.488 34.4496C42.0788 33.8553 42.3742 33.1336 42.3742 32.2846C42.3742 31.4356 42.077 30.7157 41.4827 30.1249C40.8884 29.534 40.1667 29.2386 39.3176 29.2386C38.4686 29.2386 37.7487 29.5358 37.1579 30.1301C36.5671 30.7245 36.2717 31.4461 36.2717 32.2952C36.2717 33.1442 36.5688 33.8641 37.1632 34.455C37.7575 35.0458 38.4792 35.3412 39.3282 35.3412Z" fill="#D9E0E3"/>
</svg>
