<svg width="181" height="176" viewBox="0 0 181 176" fill="none" xmlns="http://www.w3.org/2000/svg">
<g clip-path="url(#clip0_27750_88049)">
<path d="M173.989 74.8387C169.216 43.5792 149.649 5.17537 110.99 1.15641C110.99 1.15641 81.6395 -2.41613 52.706 2.99833C35.5354 6.21129 20.478 15.7774 10.95 29.5257C1.42203 43.2741 -1.7613 60.0409 2.10221 76.0207C4.61147 86.4014 6.30549 97.1453 5.84104 107.812C5.03192 126.377 5.49759 143.706 23.5024 154.777C39.5786 164.663 59.8103 173.382 79.1144 174.909C92.2315 175.948 106.942 174.267 119.585 170.85C184.011 153.432 178.764 106.1 173.989 74.8387Z" fill="#F4F7FA"/>
<path d="M163.038 104.388C162.679 104.419 162.337 104.456 162.024 104.487C161.054 104.581 158.927 105.17 158.194 104.203C156.985 102.609 160.056 99.9039 160.83 98.6888C161.786 97.1856 162.969 95.5088 163.163 93.6859C163.456 90.9095 161.555 87.1541 159.209 85.7036C155.974 83.7039 151.454 85.0645 148.547 87.0282C144.336 89.873 141.377 94.5646 140.175 99.4654C138.88 104.748 140.663 110.215 140.154 115.569C139.349 123.984 127.431 113.263 129.76 135.391C130.274 140.276 131.113 145.62 133.855 149.806C134.992 151.543 137.266 153.955 139.532 153.816C142.745 153.619 142.602 149.069 143.599 146.967C144.765 144.512 146.798 142.573 149.057 141.123C151.929 139.277 155.262 137.627 156.405 134.143C157.146 131.881 156.03 129.551 154.601 127.791C153.814 126.821 152.137 125.712 152.388 124.283C152.597 123.098 154.261 122.227 155.129 121.602C157.798 119.68 160.393 117.609 162.768 115.33C164.899 113.283 168.502 110.18 168.21 106.856C167.976 104.179 165.213 104.191 163.038 104.388Z" fill="url(#paint0_linear_27750_88049)"/>
<mask id="mask0_27750_88049" style="mask-type:luminance" maskUnits="userSpaceOnUse" x="129" y="84" width="40" height="70">
<path d="M163.038 104.388C162.679 104.419 162.337 104.456 162.024 104.487C161.054 104.581 158.927 105.17 158.194 104.203C156.985 102.609 160.056 99.9039 160.83 98.6888C161.786 97.1856 162.969 95.5088 163.163 93.6859C163.456 90.9095 161.555 87.1541 159.209 85.7036C155.974 83.7039 151.454 85.0645 148.547 87.0282C144.336 89.873 141.377 94.5646 140.175 99.4654C138.88 104.748 140.663 110.215 140.154 115.569C139.349 123.984 127.431 113.263 129.76 135.391C130.274 140.276 131.113 145.62 133.855 149.806C134.992 151.543 137.266 153.955 139.532 153.816C142.745 153.619 142.602 149.069 143.599 146.967C144.765 144.512 146.798 142.573 149.057 141.123C151.929 139.277 155.262 137.627 156.405 134.143C157.146 131.881 156.03 129.551 154.601 127.791C153.814 126.821 152.137 125.712 152.388 124.283C152.597 123.098 154.261 122.227 155.129 121.602C157.798 119.68 160.393 117.609 162.768 115.33C164.899 113.283 168.502 110.18 168.21 106.856C167.976 104.179 165.213 104.191 163.038 104.388Z" fill="white"/>
</mask>
<g mask="url(#mask0_27750_88049)">
<g style="mix-blend-mode:soft-light" opacity="0.8">
<path d="M145.912 159.594C145.878 159.594 145.845 159.583 145.817 159.563C140.332 155.643 137.75 149.656 137.926 141.264C138.078 133.947 140.222 126.007 142.295 118.332C143.927 112.285 145.469 106.574 145.749 101.987C145.974 98.3115 147.023 94.978 148.866 92.08C150.34 89.7611 152.322 87.7149 154.758 85.9971C158.901 83.0753 162.981 82.1054 163.022 82.0962C163.063 82.0882 163.107 82.0966 163.142 82.1196C163.177 82.1427 163.203 82.1786 163.212 82.2198C163.222 82.261 163.215 82.3043 163.193 82.3406C163.171 82.3769 163.136 82.4032 163.095 82.4142C163.055 82.4234 159.028 83.3823 154.936 86.2705C151.17 88.9294 146.576 93.818 146.075 102.009C145.792 106.629 144.246 112.355 142.609 118.418C138.53 133.527 133.907 150.653 146.007 159.301C146.035 159.322 146.056 159.35 146.066 159.383C146.077 159.416 146.077 159.451 146.067 159.484C146.056 159.517 146.036 159.546 146.008 159.566C145.98 159.586 145.946 159.597 145.912 159.597V159.594Z" fill="white"/>
<path d="M146.041 100.744C146.024 100.744 146.007 100.741 145.991 100.736C145.947 100.722 144.903 100.374 143.761 99.0153C142.722 97.7758 141.395 95.4171 140.998 91.2165C140.996 91.1952 140.998 91.1736 141.004 91.1531C141.011 91.1326 141.021 91.1136 141.035 91.097C141.048 91.0805 141.065 91.0668 141.084 91.0568C141.103 91.0468 141.124 91.0406 141.145 91.0386C141.166 91.0366 141.188 91.0388 141.208 91.0451C141.229 91.0514 141.248 91.0617 141.264 91.0754C141.281 91.0891 141.295 91.1059 141.305 91.1249C141.315 91.1438 141.321 91.1646 141.323 91.186C141.71 95.2832 142.989 97.5801 143.993 98.7836C145.076 100.082 146.082 100.422 146.092 100.426C146.129 100.438 146.16 100.463 146.18 100.496C146.2 100.529 146.207 100.568 146.201 100.607C146.195 100.645 146.176 100.679 146.146 100.705C146.117 100.73 146.08 100.744 146.041 100.744Z" fill="white"/>
<path d="M144.41 111C144.368 111.001 144.327 110.985 144.297 110.956C144.266 110.927 144.247 110.887 144.245 110.845C144.243 110.803 144.258 110.761 144.286 110.729C144.313 110.697 144.352 110.678 144.394 110.674C144.422 110.674 147.22 110.368 150.886 108.751C155.754 106.594 159.923 103.121 162.925 98.7224C162.937 98.703 162.952 98.686 162.97 98.6727C162.988 98.6594 163.009 98.6499 163.03 98.645C163.052 98.64 163.075 98.6396 163.097 98.6437C163.119 98.6479 163.14 98.6566 163.159 98.6693C163.177 98.6819 163.193 98.6983 163.205 98.7173C163.217 98.7363 163.225 98.7576 163.228 98.7798C163.231 98.802 163.23 98.8246 163.224 98.8463C163.219 98.868 163.208 98.8883 163.194 98.9059C160.155 103.358 155.934 106.872 151.006 109.052C147.295 110.689 144.456 110.993 144.428 110.996L144.41 111Z" fill="white"/>
<path d="M138.524 136.023C138.506 136.023 138.487 136.02 138.47 136.013C138.357 135.974 135.663 135.001 133.438 132.277C132.13 130.677 131.265 128.803 130.865 126.712C130.367 124.103 130.596 121.147 131.546 117.918C131.551 117.897 131.561 117.877 131.574 117.86C131.588 117.843 131.604 117.829 131.623 117.818C131.642 117.807 131.663 117.8 131.685 117.798C131.707 117.795 131.729 117.797 131.749 117.804C131.77 117.81 131.79 117.82 131.807 117.834C131.824 117.848 131.837 117.865 131.848 117.884C131.858 117.903 131.864 117.924 131.866 117.946C131.868 117.968 131.865 117.99 131.858 118.011C129.747 125.183 131.684 129.609 133.681 132.06C135.847 134.719 138.551 135.698 138.578 135.708C138.615 135.72 138.645 135.746 138.665 135.779C138.685 135.812 138.692 135.851 138.685 135.889C138.679 135.927 138.659 135.962 138.629 135.987C138.6 136.011 138.563 136.025 138.524 136.025V136.023Z" fill="white"/>
<path d="M139.472 130.516C139.431 130.516 139.391 130.5 139.36 130.472C139.33 130.443 139.311 130.404 139.309 130.363C139.306 130.321 139.319 130.28 139.346 130.248C139.372 130.216 139.41 130.195 139.452 130.19C139.582 130.173 152.53 128.414 155.699 123.512C155.724 123.477 155.76 123.453 155.802 123.445C155.843 123.437 155.886 123.445 155.922 123.468C155.957 123.491 155.983 123.527 155.992 123.568C156.002 123.61 155.995 123.653 155.973 123.689C154.603 125.806 151.409 127.599 146.481 129.017C144.187 129.669 141.853 130.169 139.494 130.514C139.487 130.515 139.48 130.516 139.472 130.516Z" fill="white"/>
</g>
</g>
<path d="M174.191 121.108C173.068 117.053 169.508 113.982 165.435 112.922C162.955 112.277 159.928 112.059 157.4 112.499C153.842 113.119 150.906 115.44 148.617 118.132C145.928 121.294 145.677 125.213 144.715 129.105C144.527 129.868 143.284 134.071 142.342 131.608C141.03 128.174 138.102 128.779 138.102 128.779C135.811 129.254 134.051 130.936 133.204 133.054C130.943 138.711 131.642 146.06 132.119 151.99C132.345 154.779 132.691 157.555 133.105 160.319C133.155 160.654 133.3 160.967 133.523 161.221C133.745 161.476 134.037 161.661 134.362 161.755C134.687 161.848 135.032 161.846 135.356 161.749C135.68 161.652 135.969 161.464 136.189 161.207C136.656 160.661 137.146 160.159 137.599 159.718C141.957 155.474 148.782 154.846 154.538 154.592C157.899 154.444 160.669 154.23 163.598 152.424C164.815 151.673 166.138 150.752 166.702 149.38C167.212 148.139 167.313 146.017 166.543 144.86C165.586 143.423 163.46 143.515 162.194 142.455C160.148 140.743 165.498 139.555 166.575 139.208C168.293 138.658 169.431 137.285 170.718 136.096C171.701 135.188 172.626 134.2 173.339 133.063C175.518 129.589 175.25 124.925 174.191 121.108Z" fill="url(#paint1_linear_27750_88049)"/>
<mask id="mask1_27750_88049" style="mask-type:luminance" maskUnits="userSpaceOnUse" x="131" y="112" width="44" height="50">
<path d="M174.191 121.108C173.068 117.053 169.508 113.982 165.435 112.922C162.955 112.277 159.928 112.059 157.4 112.499C153.842 113.119 150.906 115.44 148.617 118.132C145.928 121.294 145.677 125.213 144.715 129.105C144.527 129.868 143.284 134.071 142.342 131.608C141.03 128.174 138.102 128.779 138.102 128.779C135.811 129.254 134.051 130.936 133.204 133.054C130.943 138.711 131.642 146.06 132.119 151.99C132.345 154.779 132.691 157.555 133.105 160.319C133.155 160.654 133.3 160.967 133.523 161.221C133.745 161.476 134.037 161.661 134.362 161.755C134.687 161.848 135.032 161.846 135.356 161.749C135.68 161.652 135.969 161.464 136.189 161.207C136.656 160.661 137.146 160.159 137.599 159.718C141.957 155.474 148.782 154.846 154.538 154.592C157.899 154.444 160.669 154.23 163.598 152.424C164.815 151.673 166.138 150.752 166.702 149.38C167.212 148.139 167.313 146.017 166.543 144.86C165.586 143.423 163.46 143.515 162.194 142.455C160.148 140.743 165.498 139.555 166.575 139.208C168.293 138.658 169.431 137.285 170.718 136.096C171.701 135.188 172.626 134.2 173.339 133.063C175.518 129.589 175.25 124.925 174.191 121.108Z" fill="white"/>
</mask>
<g mask="url(#mask1_27750_88049)">
<g style="mix-blend-mode:soft-light" opacity="0.8">
<path d="M132.43 163.212C132.406 163.212 132.382 163.206 132.36 163.196C132.341 163.187 132.323 163.174 132.309 163.158C132.295 163.142 132.284 163.123 132.276 163.103C132.269 163.083 132.266 163.062 132.267 163.04C132.268 163.019 132.273 162.998 132.283 162.979C132.336 162.865 137.732 151.456 145.177 139.761C149.553 132.89 153.771 127.265 157.715 123.043C162.66 117.749 167.187 114.653 171.182 113.84C171.203 113.835 171.225 113.834 171.246 113.838C171.268 113.842 171.288 113.85 171.307 113.862C171.325 113.873 171.341 113.889 171.353 113.907C171.365 113.925 171.374 113.945 171.378 113.966C171.383 113.988 171.383 114.01 171.378 114.031C171.374 114.052 171.366 114.073 171.353 114.091C171.341 114.109 171.325 114.124 171.307 114.136C171.289 114.148 171.268 114.156 171.247 114.16C167.323 114.958 162.851 118.022 157.953 123.265C154.024 127.473 149.817 133.082 145.452 139.937C138.016 151.613 132.629 163.004 132.575 163.118C132.562 163.146 132.541 163.169 132.516 163.186C132.49 163.202 132.46 163.211 132.43 163.212Z" fill="white"/>
<path d="M151.823 130.561C151.815 130.562 151.806 130.562 151.797 130.561C151.755 130.554 151.717 130.53 151.691 130.495C151.666 130.46 151.656 130.417 151.662 130.374C151.687 130.22 154.09 114.957 151.703 112.381C151.674 112.35 151.658 112.307 151.66 112.264C151.662 112.221 151.68 112.18 151.712 112.151C151.744 112.121 151.786 112.106 151.829 112.107C151.873 112.109 151.914 112.128 151.943 112.159C154.436 114.85 152.085 129.79 151.984 130.425C151.978 130.463 151.958 130.498 151.929 130.522C151.899 130.547 151.862 130.561 151.823 130.561Z" fill="white"/>
<path d="M180.337 122.658C180.306 122.658 180.277 122.65 180.251 122.634C173.854 118.633 160.547 120.722 160.414 120.744C160.372 120.75 160.329 120.739 160.295 120.713C160.261 120.688 160.238 120.65 160.231 120.608C160.224 120.566 160.234 120.523 160.259 120.488C160.283 120.454 160.32 120.43 160.362 120.422C162.864 120.06 165.387 119.867 167.915 119.846C171.743 119.816 177.021 120.229 180.424 122.354C180.454 122.372 180.477 122.401 180.489 122.434C180.502 122.467 180.503 122.503 180.494 122.537C180.484 122.571 180.463 122.601 180.435 122.622C180.407 122.644 180.372 122.655 180.337 122.655V122.658Z" fill="white"/>
<path d="M137.798 152.791C137.786 152.791 137.773 152.789 137.761 152.786C137.719 152.776 137.683 152.75 137.66 152.714C137.637 152.677 137.629 152.633 137.639 152.591C139.385 145.041 132.839 134.035 132.773 133.924C132.753 133.887 132.748 133.844 132.759 133.804C132.77 133.763 132.796 133.729 132.832 133.707C132.868 133.686 132.911 133.679 132.952 133.688C132.993 133.697 133.029 133.721 133.052 133.756C134.258 135.85 135.302 138.033 136.175 140.287C137.501 143.715 138.886 148.646 137.957 152.665C137.949 152.7 137.928 152.732 137.899 152.755C137.871 152.778 137.835 152.791 137.798 152.791Z" fill="white"/>
<path d="M143.21 143.397C143.172 143.397 143.134 143.383 143.105 143.357C143.076 143.332 143.056 143.297 143.05 143.259C143.044 143.221 143.052 143.182 143.072 143.149C143.092 143.116 143.123 143.091 143.159 143.079C143.22 143.06 149.09 141.132 156.202 139.736C162.778 138.445 171.791 137.358 177.386 139.507C177.406 139.515 177.425 139.526 177.44 139.541C177.456 139.556 177.469 139.573 177.477 139.593C177.486 139.613 177.491 139.634 177.492 139.655C177.492 139.677 177.488 139.698 177.481 139.718C177.473 139.738 177.462 139.757 177.447 139.772C177.432 139.788 177.414 139.8 177.395 139.809C177.375 139.818 177.354 139.823 177.333 139.823C177.311 139.824 177.29 139.82 177.27 139.813C171.746 137.691 162.798 138.773 156.265 140.057C149.173 141.45 143.32 143.37 143.261 143.39C143.245 143.395 143.228 143.397 143.21 143.397Z" fill="white"/>
</g>
</g>
<path d="M65.7994 45.2799C66.1576 45.3123 66.4998 45.349 66.8127 45.3789C67.7825 45.4737 69.9092 46.0626 70.6426 45.0958C71.8514 43.5009 68.7805 40.7962 68.0074 39.5811C67.051 38.0779 65.8654 36.4011 65.6735 34.5788C65.3808 31.8018 67.282 28.0464 69.6275 26.5965C72.8628 24.5962 77.3826 25.9575 80.2897 27.9205C84.5009 30.7653 87.46 35.4569 88.6621 40.3577C89.957 45.6401 88.1732 51.1077 88.6834 56.461C89.4877 64.8762 101.406 54.1556 99.0768 76.2837C98.5622 81.1679 97.7237 86.512 94.9823 90.6992C93.845 92.4353 91.5716 94.8478 89.305 94.7083C86.0917 94.5108 86.2353 89.9623 85.2379 87.8592C84.0731 85.4046 82.04 83.4648 79.7806 82.0143C76.9084 80.1693 73.5753 78.5188 72.4331 75.0349C71.6912 72.7723 72.8078 70.443 74.2359 68.683C75.0231 67.7131 76.7012 66.6038 76.4494 65.1753C76.2404 63.9895 74.5763 63.1187 73.7085 62.4937C71.0392 60.5717 68.4437 58.5011 66.0695 56.2213C63.9392 54.1757 60.3366 51.0716 60.6306 47.7474C60.861 45.0744 63.6238 45.0866 65.7994 45.2799Z" fill="url(#paint2_linear_27750_88049)"/>
<mask id="mask2_27750_88049" style="mask-type:luminance" maskUnits="userSpaceOnUse" x="60" y="25" width="40" height="70">
<path d="M65.7994 45.2799C66.1576 45.3123 66.4998 45.349 66.8127 45.3789C67.7825 45.4737 69.9092 46.0626 70.6426 45.0958C71.8514 43.5009 68.7805 40.7962 68.0074 39.5811C67.051 38.0779 65.8654 36.4011 65.6735 34.5788C65.3808 31.8018 67.282 28.0464 69.6275 26.5965C72.8628 24.5962 77.3826 25.9575 80.2897 27.9205C84.5009 30.7653 87.46 35.4569 88.6621 40.3577C89.957 45.6401 88.1732 51.1077 88.6834 56.461C89.4877 64.8762 101.406 54.1556 99.0768 76.2837C98.5622 81.1679 97.7237 86.512 94.9823 90.6992C93.845 92.4353 91.5716 94.8478 89.305 94.7083C86.0917 94.5108 86.2353 89.9623 85.2379 87.8592C84.0731 85.4046 82.04 83.4648 79.7806 82.0143C76.9084 80.1693 73.5753 78.5188 72.4331 75.0349C71.6912 72.7723 72.8078 70.443 74.2359 68.683C75.0231 67.7131 76.7012 66.6038 76.4494 65.1753C76.2404 63.9895 74.5763 63.1187 73.7085 62.4937C71.0392 60.5717 68.4437 58.5011 66.0695 56.2213C63.9392 54.1757 60.3366 51.0716 60.6306 47.7474C60.861 45.0744 63.6238 45.0866 65.7994 45.2799Z" fill="white"/>
</mask>
<g mask="url(#mask2_27750_88049)">
<g style="mix-blend-mode:soft-light" opacity="0.8">
<path d="M82.9251 100.489C82.9591 100.489 82.9922 100.479 83.0198 100.459C88.5046 96.5381 91.0866 90.5518 90.9112 82.1598C90.759 74.8423 88.6158 66.9029 86.5429 59.2276C84.9106 53.1808 83.3687 47.4698 83.0876 42.8827C82.8627 39.2074 81.814 35.874 79.9709 32.976C78.4963 30.6571 76.5138 28.6109 74.0785 26.8931C69.9357 23.9712 65.8552 23.002 65.8149 22.9922C65.7939 22.9868 65.772 22.9857 65.7505 22.989C65.7291 22.9922 65.7084 22.9997 65.6899 23.011C65.6714 23.0222 65.6553 23.0371 65.6425 23.0547C65.6298 23.0723 65.6207 23.0923 65.6158 23.1134C65.6109 23.1346 65.6102 23.1565 65.6139 23.1779C65.6176 23.1993 65.6254 23.2198 65.6371 23.2381C65.6487 23.2564 65.6639 23.2722 65.6818 23.2846C65.6996 23.297 65.7197 23.3057 65.741 23.3102C65.7813 23.3193 69.8086 24.2782 73.9 27.1665C77.6664 29.8254 82.2614 34.7139 82.7613 42.9047C83.0436 47.5248 84.5897 53.2517 86.2263 59.3144C90.3056 74.4234 94.9293 91.5486 82.8291 100.197C82.8011 100.218 82.7801 100.246 82.7693 100.279C82.7584 100.312 82.7583 100.347 82.7688 100.38C82.7793 100.413 82.8 100.442 82.8279 100.462C82.8557 100.482 82.8893 100.493 82.9238 100.493L82.9251 100.489Z" fill="white"/>
<path d="M82.7952 41.6395C82.8122 41.6395 82.8291 41.6368 82.8453 41.6315C82.8893 41.6174 83.9331 41.2695 85.0753 39.9107C86.1142 38.6711 87.4416 36.3124 87.8388 32.1125C87.8409 32.0705 87.8267 32.0294 87.7993 31.9976C87.7719 31.9658 87.7332 31.9458 87.6914 31.9418C87.6496 31.9378 87.6079 31.95 87.5749 31.976C87.5419 32.002 87.5202 32.0397 87.5143 32.0813C87.1268 36.1785 85.8484 38.4754 84.8437 39.6789C83.7602 40.9778 82.7549 41.3178 82.7451 41.3215C82.7086 41.3338 82.6776 41.3586 82.6576 41.3916C82.6377 41.4246 82.63 41.4635 82.636 41.5016C82.642 41.5397 82.6613 41.5744 82.6904 41.5997C82.7196 41.6249 82.7567 41.639 82.7952 41.6395Z" fill="white"/>
<path d="M84.4263 51.8954C84.4686 51.8961 84.5095 51.8803 84.5404 51.8514C84.5713 51.8224 84.5898 51.7827 84.5919 51.7404C84.5941 51.6981 84.5797 51.6566 84.5519 51.6248C84.5241 51.5929 84.485 51.573 84.4428 51.5694C84.4147 51.5694 81.617 51.2637 77.9503 49.6468C73.083 47.4897 68.9136 44.0165 65.9112 39.6178C65.9 39.5983 65.8848 39.5814 65.8668 39.5681C65.8487 39.5548 65.8281 39.5453 65.8062 39.5403C65.7843 39.5353 65.7617 39.5349 65.7396 39.5391C65.7176 39.5433 65.6966 39.552 65.6781 39.5646C65.6595 39.5773 65.6438 39.5936 65.6318 39.6126C65.6199 39.6316 65.612 39.6529 65.6086 39.6751C65.6053 39.6973 65.6065 39.72 65.6123 39.7417C65.6181 39.7634 65.6283 39.7836 65.6423 39.8012C68.6815 44.2541 72.903 47.7693 77.8311 49.9507C81.5424 51.5872 84.3811 51.8917 84.4092 51.8942L84.4263 51.8954Z" fill="white"/>
<path d="M90.3127 76.9184C90.3313 76.9184 90.3497 76.9151 90.3671 76.9086C90.4807 76.8689 93.174 75.8966 95.399 73.1722C96.7062 71.5718 97.5722 69.6987 97.9719 67.6073C98.4699 64.9985 98.2408 62.0424 97.2911 58.8136C97.2779 58.7731 97.2496 58.7394 97.2119 58.7195C97.1743 58.6997 97.1305 58.6954 97.0897 58.7074C97.049 58.7194 97.0145 58.7469 96.9937 58.784C96.9728 58.821 96.9673 58.8648 96.9782 58.9059C99.0896 66.0785 97.153 70.5047 95.1564 72.9557C92.99 75.6146 90.2852 76.5931 90.2583 76.6029C90.2219 76.6156 90.1912 76.6409 90.1716 76.6741C90.152 76.7074 90.1449 76.7465 90.1514 76.7846C90.1579 76.8226 90.1777 76.8571 90.2072 76.882C90.2367 76.9068 90.2741 76.9204 90.3127 76.9203V76.9184Z" fill="white"/>
<path d="M89.3642 71.411C89.4059 71.4112 89.446 71.3955 89.4764 71.3671C89.5068 71.3387 89.5253 71.2997 89.5279 71.2581C89.5306 71.2166 89.5173 71.1756 89.4907 71.1435C89.4641 71.1114 89.4263 71.0908 89.385 71.0857C89.2548 71.0686 76.307 69.3122 73.1372 64.4072C73.1129 64.3725 73.0762 64.3486 73.0347 64.3404C72.9932 64.3323 72.9502 64.3406 72.9147 64.3636C72.8792 64.3866 72.854 64.4225 72.8445 64.4637C72.8349 64.5049 72.8417 64.5482 72.8634 64.5845C74.2335 66.7016 77.4272 68.494 82.3559 69.9122C84.6496 70.5638 86.9836 71.0641 89.3428 71.4098L89.3642 71.411Z" fill="white"/>
</g>
</g>
<path d="M54.6453 62.0033C55.7697 57.9489 59.3295 54.8778 63.402 53.818C65.8813 53.1722 68.9082 52.9539 71.4376 53.3948C74.9943 54.0143 77.9308 56.3363 80.2194 59.027C82.9083 62.1892 83.1601 66.1079 84.1214 70.0002C84.3096 70.7634 85.5533 74.9658 86.4944 72.5032C87.8071 69.0689 90.7343 69.6743 90.735 69.6749C93.0254 70.1488 94.7861 71.8317 95.6325 73.9495C97.8936 79.6067 97.1957 86.956 96.7172 92.8854C96.4923 95.6752 96.1452 98.4503 95.7321 101.214C95.6823 101.549 95.5373 101.863 95.3145 102.117C95.0917 102.372 94.8003 102.557 94.4752 102.651C94.1501 102.744 93.805 102.742 93.481 102.645C93.157 102.548 92.8677 102.359 92.6478 102.102C92.1809 101.556 91.6914 101.055 91.2379 100.613C86.88 96.3699 80.0544 95.7418 74.2989 95.4874C70.9377 95.3394 68.1675 95.1254 65.2384 93.3196C64.0217 92.5686 62.6992 91.647 62.1345 90.2754C61.6242 89.0346 61.5234 86.912 62.2934 85.7556C63.2511 84.3185 65.3771 84.4102 66.6428 83.3505C68.6882 81.6382 63.3391 80.45 62.2616 80.1033C60.5444 79.5529 59.4053 78.18 58.1183 76.9912C57.1356 76.0837 56.2109 75.0955 55.4978 73.958C53.3191 70.4839 53.5868 65.8204 54.6453 62.0033Z" fill="url(#paint3_linear_27750_88049)"/>
<mask id="mask3_27750_88049" style="mask-type:luminance" maskUnits="userSpaceOnUse" x="53" y="53" width="45" height="50">
<path d="M54.6453 62.0033C55.7697 57.9489 59.3295 54.8778 63.402 53.818C65.8813 53.1722 68.9082 52.9539 71.4376 53.3948C74.9943 54.0143 77.9308 56.3363 80.2194 59.027C82.9083 62.1892 83.1601 66.1079 84.1214 70.0002C84.3096 70.7634 85.5533 74.9658 86.4944 72.5032C87.8071 69.0689 90.7343 69.6743 90.735 69.6749C93.0254 70.1488 94.7861 71.8317 95.6325 73.9495C97.8936 79.6067 97.1957 86.956 96.7172 92.8854C96.4923 95.6752 96.1452 98.4503 95.7321 101.214C95.6823 101.549 95.5373 101.863 95.3145 102.117C95.0917 102.372 94.8003 102.557 94.4752 102.651C94.1501 102.744 93.805 102.742 93.481 102.645C93.157 102.548 92.8677 102.359 92.6478 102.102C92.1809 101.556 91.6914 101.055 91.2379 100.613C86.88 96.3699 80.0544 95.7418 74.2989 95.4874C70.9377 95.3394 68.1675 95.1254 65.2384 93.3196C64.0217 92.5686 62.6992 91.647 62.1345 90.2754C61.6242 89.0346 61.5234 86.912 62.2934 85.7556C63.2511 84.3185 65.3771 84.4102 66.6428 83.3505C68.6882 81.6382 63.3391 80.45 62.2616 80.1033C60.5444 79.5529 59.4053 78.18 58.1183 76.9912C57.1356 76.0837 56.2109 75.0955 55.4978 73.958C53.3191 70.4839 53.5868 65.8204 54.6453 62.0033Z" fill="white"/>
</mask>
<g mask="url(#mask3_27750_88049)">
<g style="mix-blend-mode:soft-light" opacity="0.8">
<path d="M96.4075 104.107C96.4349 104.107 96.462 104.1 96.486 104.087C96.5101 104.073 96.5304 104.054 96.5451 104.031C96.5598 104.008 96.5684 103.981 96.57 103.954C96.5717 103.926 96.5665 103.899 96.5547 103.874C96.501 103.76 91.1048 92.3509 83.6601 80.6567C79.2839 73.7856 75.0653 68.1601 71.1217 63.9382C66.1772 58.6442 61.6494 55.548 57.6551 54.7353C57.6338 54.7301 57.6116 54.7293 57.59 54.7329C57.5684 54.7365 57.5477 54.7445 57.5292 54.7563C57.5107 54.7681 57.4947 54.7835 57.4823 54.8016C57.4699 54.8196 57.4612 54.8401 57.4569 54.8616C57.4525 54.8831 57.4525 54.9053 57.4569 54.9268C57.4613 54.9483 57.47 54.9687 57.4825 54.9867C57.4949 55.0048 57.5109 55.0202 57.5294 55.0319C57.548 55.0437 57.5687 55.0516 57.5903 55.0551C61.5137 55.8538 65.9865 58.9175 70.8834 64.1614C74.8135 68.3687 79.0192 73.9776 83.3845 80.8322C90.8188 92.5087 96.2058 103.898 96.2626 104.013C96.2757 104.041 96.2962 104.064 96.3217 104.081C96.3473 104.097 96.377 104.106 96.4075 104.107Z" fill="white"/>
<path d="M77.0123 71.4563H77.0379C77.0807 71.4494 77.1189 71.4258 77.1444 71.3907C77.1698 71.3557 77.1803 71.3119 77.1736 71.2691C77.1492 71.115 74.7462 55.8526 77.132 53.2768C77.1615 53.245 77.1771 53.2028 77.1754 53.1595C77.1737 53.1163 77.1549 53.0754 77.1232 53.046C77.0914 53.0165 77.0493 53.0009 77.006 53.0026C76.9627 53.0042 76.9219 53.023 76.8925 53.0548C74.3997 55.7455 76.7501 70.6857 76.8515 71.3205C76.8579 71.3585 76.8776 71.393 76.907 71.4179C76.9364 71.4428 76.9737 71.4564 77.0123 71.4563Z" fill="white"/>
<path d="M48.4999 63.5535C48.5303 63.5535 48.5601 63.545 48.586 63.529C54.9826 59.5284 68.2898 61.6174 68.4236 61.6394C68.445 61.6435 68.467 61.6432 68.4883 61.6386C68.5096 61.634 68.5298 61.6251 68.5476 61.6126C68.5655 61.6001 68.5806 61.5841 68.5922 61.5656C68.6037 61.5471 68.6115 61.5265 68.615 61.505C68.6184 61.4835 68.6175 61.4614 68.6124 61.4403C68.6072 61.4191 68.5979 61.3991 68.5849 61.3816C68.5719 61.3641 68.5555 61.3494 68.5367 61.3383C68.518 61.3273 68.4972 61.3201 68.4756 61.3172C65.9734 60.955 63.4496 60.7627 60.9215 60.7417C57.094 60.7117 51.8158 61.1245 48.4131 63.249C48.3831 63.2678 48.3601 63.2959 48.3475 63.329C48.3349 63.3621 48.3334 63.3983 48.3432 63.4324C48.353 63.4664 48.3735 63.4963 48.4018 63.5176C48.4301 63.5389 48.4645 63.5504 48.4999 63.5504V63.5535Z" fill="white"/>
<path d="M91.0387 93.6859C91.051 93.6857 91.0633 93.6842 91.0754 93.6816C91.1175 93.6717 91.1541 93.6455 91.177 93.6087C91.1999 93.5719 91.2073 93.5275 91.1976 93.4853C89.4516 85.936 95.9979 74.9297 96.0639 74.8191C96.0838 74.7821 96.0886 74.739 96.0775 74.6985C96.0664 74.6581 96.0402 74.6235 96.0043 74.6019C95.9684 74.5803 95.9256 74.5733 95.8847 74.5824C95.8438 74.5916 95.808 74.6161 95.7847 74.6509C94.5786 76.7449 93.5346 78.9283 92.6618 81.182C91.3357 84.6102 89.9509 89.541 90.8798 93.5593C90.8882 93.5952 90.9084 93.6272 90.9373 93.6502C90.9661 93.6732 91.0018 93.6857 91.0387 93.6859Z" fill="white"/>
<path d="M85.6291 84.2928C85.668 84.2929 85.7057 84.2791 85.7353 84.2539C85.7649 84.2287 85.7846 84.1937 85.7907 84.1552C85.7968 84.1168 85.789 84.0774 85.7687 84.0442C85.7484 84.011 85.7169 83.9862 85.6799 83.9742C85.6188 83.9553 79.752 82.0277 72.6373 80.6316C66.0617 79.3407 57.0483 78.2534 51.4528 80.4029C51.4123 80.4184 51.3796 80.4494 51.3619 80.489C51.3442 80.5286 51.3429 80.5736 51.3584 80.6142C51.3739 80.6547 51.4048 80.6875 51.4444 80.7052C51.484 80.7229 51.529 80.7242 51.5696 80.7087C57.0929 78.5873 66.0409 79.6691 72.5744 80.9533C79.6664 82.3457 85.5198 84.2665 85.5778 84.2855C85.5944 84.2906 85.6118 84.2931 85.6291 84.2928Z" fill="white"/>
</g>
</g>
<path d="M97.9064 10.7641V164.692L83.9875 160.028V25.3808L96.6457 12.0887L97.7469 10.9298L97.9064 10.7641Z" fill="#97A6B7"/>
<path d="M136.593 10.7641H97.9065V164.844H136.593V10.7641Z" fill="#D8DEE8"/>
<path d="M110.188 27.7816H105.275V154.725H110.188V27.7816Z" fill="#97A6B7"/>
<path d="M120.627 27.7816H115.51V154.725H120.627V27.7816Z" fill="#97A6B7"/>
<path d="M130.862 27.7816H125.745V154.725H130.862V27.7816Z" fill="#97A6B7"/>
<g style="mix-blend-mode:multiply" opacity="0.5">
<path d="M110.188 27.7816H108.55V154.725H110.188V27.7816Z" fill="#97A6B7"/>
</g>
<g style="mix-blend-mode:multiply" opacity="0.5">
<path d="M120.627 27.7816H118.99V154.725H120.627V27.7816Z" fill="#97A6B7"/>
</g>
<g style="mix-blend-mode:multiply" opacity="0.5">
<path d="M131.067 27.7816H129.429V154.725H131.067V27.7816Z" fill="#97A6B7"/>
</g>
<path d="M139.456 86.6478L141.721 85.4572L142.709 85.5134C142.709 85.5134 142.974 86.7866 142.933 86.8472C142.451 87.5443 140.369 87.9754 139.087 87.9479C138.875 87.943 138.578 87.9271 138.51 87.7687C138.396 87.5003 139.007 86.9866 139.456 86.6478Z" fill="url(#paint4_linear_27750_88049)"/>
<path d="M141.842 84.0238C141.802 84.7912 141.739 85.33 141.533 85.5575C141.388 85.7171 142.665 86.169 142.71 85.5147C142.739 85.0866 142.849 84.3528 142.93 84.1369L141.842 84.0238Z" fill="url(#paint5_linear_27750_88049)"/>
<path d="M124.831 86.8319L127.024 85.5134H128.013C128.013 85.5134 128.351 86.7695 128.313 86.8319C127.872 87.5553 125.818 88.1057 124.537 88.1509C124.324 88.1583 124.027 88.1595 123.951 88.0054C123.82 87.7443 124.401 87.1957 124.831 86.8319Z" fill="url(#paint6_linear_27750_88049)"/>
<path d="M127.69 84.0849C127.37 84.6964 127.033 85.3856 126.841 85.6241C126.706 85.7923 127.787 86.1292 128.013 85.5146C128.197 85.0162 128.714 84.3527 128.782 84.1356L127.69 84.0849Z" fill="url(#paint7_linear_27750_88049)"/>
<path d="M128.141 48.1027C129.963 60.1973 129.504 72.5265 126.787 84.4518L128.818 84.9784C129.661 84.7833 130.855 84.3607 131.676 83.323C132.755 81.9586 132.262 80.7007 133.029 78.4307C133.763 76.2641 134.636 76.1491 135.511 74.2919C136.653 71.8691 135.955 70.3849 136.037 67.1426C136.177 61.6578 138.289 61.2328 138.971 54.4228C139.327 50.8588 139.503 48.8114 138.218 47.4997C136.42 45.6633 132.465 45.9868 128.141 48.1027Z" fill="url(#paint8_linear_27750_88049)"/>
<path d="M132.804 46.6393C137.977 58.6773 140.737 71.6152 140.926 84.7178H143.182C144.102 83.3895 144.789 81.914 145.213 80.3546C145.732 78.4191 145.406 77.9201 145.739 74.8613C146.195 70.6925 146.791 70.5005 146.717 68.0122C146.632 65.1533 145.764 65.1649 145.439 62.2926C144.957 58.0437 146.71 56.7325 146.642 52.8139C146.611 51.0521 146.206 48.398 144.235 45.138L132.804 46.6393Z" fill="url(#paint9_linear_27750_88049)"/>
<path d="M103.173 47.8214L102.289 48.6054C102.289 48.6054 100.347 48.5289 99.6482 48.7069C98.949 48.8848 97.7427 49.4915 97.7427 49.4915C97.7427 49.4915 98.044 49.9367 98.4717 49.7679C98.8995 49.5991 99.5602 49.371 99.6873 49.4334C99.8144 49.4957 100.115 50.3005 101.131 50.4357C102.146 50.5708 102.623 49.371 102.623 49.371L103.587 48.5522L103.173 47.8214Z" fill="url(#paint10_linear_27750_88049)"/>
<path d="M113.307 27.1634C112.949 27.2074 112.246 27.4239 110.656 30.3806C108.598 34.2064 108.058 37.0322 107.272 39.3548C106.539 41.5276 105.155 44.5283 102.308 47.8208L103.718 49.2891C107.752 49.1894 109.747 47.9027 110.825 46.7494C112.399 45.0658 111.913 43.7755 113.814 41.2181C116.039 38.2265 117.725 38.6197 118.496 36.6463C119.941 32.946 115.854 26.8509 113.307 27.1634Z" fill="url(#paint11_linear_27750_88049)"/>
<path d="M133.499 21.9147C131.192 21.1747 129.387 21.3796 126.166 21.7453C121.467 22.2785 118.455 23.8367 115.844 25.1882C113.277 26.5158 112.599 27.2674 112.234 28.1235C111.385 30.1238 112.418 32.3094 113.081 33.6548C114.767 37.0897 116.332 36.9705 119.905 41.105C123.049 44.7423 124.621 46.561 125.658 49.2322C126.117 50.4143 126.566 51.9443 128.027 52.8445C129.446 53.7183 131.057 53.5288 131.975 53.4089C135.832 52.9038 136.174 50.4124 138.687 50.5867C140.69 50.7255 141.124 52.3522 144.554 52.9007C146.087 53.1453 146.533 52.9062 146.754 52.7313C147.589 52.0684 147.492 50.4834 146.698 47.2569C145.475 42.2962 144.39 40.6879 143.37 36.7589C142.31 32.6781 143.126 33.0371 142.242 30.72C141.944 29.9403 139.508 23.841 133.499 21.9147Z" fill="url(#paint12_linear_27750_88049)"/>
<path style="mix-blend-mode:multiply" opacity="0.3" d="M132.766 51.3762C133.568 50.3977 133.133 49.2199 134.233 48.2158C136.02 46.5794 139.254 47.7878 139.422 47.1995C139.623 46.4925 134.777 45.4676 134.233 42.6846C133.985 41.4224 134.898 41.2083 134.797 39.5236C134.703 37.9446 133.718 36.6433 131.751 34.1055C130.199 32.1015 129.778 31.9388 129.721 31.1701C129.546 28.8616 132.46 27.2564 133.669 26.429C135.008 25.518 136.531 24.9125 138.13 24.6555C140.819 27.1347 142.035 30.1831 142.239 30.7188C143.123 33.0359 142.307 32.6757 143.367 36.7576C144.387 40.6867 145.474 42.295 146.695 47.2557C147.489 50.4821 147.586 52.0672 146.751 52.7301C146.531 52.905 146.084 53.1447 144.551 52.8995C141.122 52.3491 140.687 50.7243 138.684 50.5855C136.171 50.4118 135.829 52.9026 131.972 53.4077C131.056 53.53 129.443 53.7171 128.024 52.8432C127.722 52.656 127.446 52.4299 127.202 52.1706C130.617 52.7992 132.093 52.1987 132.766 51.3762Z" fill="url(#paint13_linear_27750_88049)"/>
<path d="M119.074 20.6084C119.441 21.4903 120.813 23.7144 123.78 22.6265C124.574 22.3348 124.709 22.4375 124.757 22.4987C124.982 22.7971 123.391 24.7839 121.14 25.3894C119.767 25.7563 118.299 25.5728 118.221 25.1906C118.143 24.8084 119.123 24.8408 119.236 24.0379C119.315 23.4789 118.185 22.8087 117.604 22.4308C117.696 21.6957 118.979 21.3374 119.074 20.6084Z" fill="url(#paint14_linear_27750_88049)"/>
<path d="M116.606 22.3482C116.097 22.1813 115.685 21.6052 115.761 21.0402C115.826 20.551 116.235 20.2452 116.481 20.0575C117.192 19.5187 118.353 19.224 119.115 19.6526C119.568 19.9076 119.66 20.9442 119.687 21.1246C119.717 21.3288 119.614 21.4658 119.565 21.6621C119.498 21.9342 119.397 22.3648 119.239 23.0766C119.087 22.9418 118.923 22.8208 118.75 22.7152C118.52 22.5748 118.274 22.4642 118.017 22.3862C117.327 22.1886 117.088 22.5042 116.606 22.3482Z" fill="url(#paint15_linear_27750_88049)"/>
<path d="M119.64 22.3207C119.619 22.6532 119.51 22.9743 119.326 23.2519C119.142 23.5294 118.888 23.7537 118.59 23.9021C117.657 24.3846 116.314 22.6625 116.629 21.9385C116.734 21.6939 117.081 21.415 117.445 21.3068C117.66 21.2426 117.768 21.2738 118.117 21.1625C118.44 21.0603 118.5 20.9857 118.627 20.9986C118.786 21.0145 118.994 21.1631 119.177 21.7936C119.244 21.5355 119.41 21.3527 119.598 21.327C119.663 21.3209 119.728 21.3321 119.788 21.3594C120.05 21.4903 120.017 21.8798 119.64 22.3207Z" fill="url(#paint16_linear_27750_88049)"/>
<path d="M115.272 21.9636C115.272 21.9636 117.986 20.713 119.423 20.3296C119.483 20.3137 119.539 20.2853 119.587 20.2461C119.635 20.2068 119.675 20.1578 119.702 20.1022C119.73 20.0466 119.746 19.9857 119.748 19.9235C119.75 19.8614 119.739 19.7995 119.716 19.7419C119.411 19.005 118.627 17.7563 116.896 18.3446C114.71 19.0876 114.734 20.7308 115.272 21.9636Z" fill="url(#paint17_linear_27750_88049)"/>
<path d="M115.272 21.6645C115.272 21.6645 114.411 22.2834 114.607 22.4785C114.802 22.6736 118.701 20.5534 118.701 20.5534L115.272 21.6645Z" fill="url(#paint18_linear_27750_88049)"/>
<path d="M116.896 19.1726C116.791 18.8699 116.941 18.5513 117.185 18.262C117.091 18.2846 116.996 18.3103 116.896 18.3446C114.96 19.0026 114.758 20.3681 115.111 21.5245C115.578 21.3154 116.101 21.0873 116.394 20.979C117.014 20.754 117.209 20.0697 116.896 19.1726Z" fill="url(#paint19_linear_27750_88049)"/>
<path d="M114.968 33.2426C114.968 33.2426 115.49 31.5303 116.076 30.9047C116.199 33.3465 118.27 37.4646 118.27 37.4646C118.27 37.4646 115.246 35.6838 114.968 33.2426Z" fill="url(#paint20_linear_27750_88049)"/>
<path d="M134.008 50.0724C131.337 51.9681 125.586 50.2559 124.776 49.4058C123.906 48.4885 119.051 42.7402 116.464 37.5422C115.812 36.2268 115.201 34.9469 114.985 33.7893V33.7856C114.979 33.6034 114.959 33.422 114.924 33.2432C115.306 34.276 116.12 34.7659 117.119 34.9035C120.643 35.3854 126.775 31.4789 126.775 31.4789L135.24 45.9379C135.619 48.0446 135.054 49.3373 134.008 50.0724Z" fill="white"/>
<path d="M133.368 39.6055L131.628 38.8454C131.628 38.8454 130.963 37.8957 130.425 37.7373C129.887 37.5789 127.957 37.7985 127.957 37.7985C127.957 37.7985 128.147 38.5586 128.526 38.6852C128.906 38.8118 130.077 38.9072 130.267 39.2869C130.456 39.6667 131.153 39.9517 131.406 39.8251C131.659 39.6985 133.273 40.2366 133.273 40.2366L133.368 39.6055Z" fill="url(#paint21_linear_27750_88049)"/>
<path d="M126.054 22.7048C127.582 20.129 134.756 21.0714 139.591 23.8899C141.166 24.8072 145.967 27.6068 146.303 32.469C146.34 32.9974 146.433 35.1444 145.175 37.1533C143.058 40.5326 138.054 42.0235 132.769 40.7093C132.826 40.1447 132.882 39.5802 132.938 39.016C133.389 39.0313 135.181 39.0417 136.774 37.7177C137.093 37.4523 138.989 35.8764 138.691 34.4442C138.193 32.0391 132.199 33.3508 128.313 29.3074C126.569 27.4955 125.051 24.3999 126.054 22.7048Z" fill="url(#paint22_linear_27750_88049)"/>
<path style="mix-blend-mode:multiply" opacity="0.2" d="M134.008 50.0724C131.337 51.9681 125.586 50.2559 124.776 49.4058C123.906 48.4885 119.097 42.7402 116.512 37.5422C117.546 38.6038 119.026 39.6324 121.039 39.9608C125.696 40.7234 125.696 42.317 127.496 45.5019C128.872 47.9437 130.839 50.372 134.008 50.0724Z" fill="url(#paint23_linear_27750_88049)"/>
<path d="M122.751 87.0086V164.844L111.806 162.485V94.3995L121.76 87.6782L122.625 87.0918L122.751 87.0086Z" fill="#AABBCC"/>
<path d="M153.172 86.9315H122.751V164.843H153.172V86.9315Z" fill="#F4F7FA"/>
<path d="M132.408 95.537H128.546V159.727H132.408V95.537Z" fill="#BFC8D6"/>
<path d="M140.618 95.537H136.593V159.727H140.618V95.537Z" fill="#BFC8D6"/>
<path d="M148.666 95.537H144.641V159.727H148.666V95.537Z" fill="#BFC8D6"/>
<g style="mix-blend-mode:multiply" opacity="0.5">
<path d="M132.408 95.537H131.121V159.727H132.408V95.537Z" fill="#97A6B7"/>
</g>
<g style="mix-blend-mode:multiply" opacity="0.5">
<path d="M140.617 95.537H139.329V159.727H140.617V95.537Z" fill="#97A6B7"/>
</g>
<g style="mix-blend-mode:multiply" opacity="0.5">
<path d="M148.826 95.537H147.539V159.727H148.826V95.537Z" fill="#97A6B7"/>
</g>
<path d="M118.647 49.7202H71.9686V164.844H118.647V49.7202Z" fill="url(#paint24_linear_27750_88049)"/>
<path d="M115.105 60.6512H75.5095V67.8611H115.105V60.6512Z" fill="#BFC8D6"/>
<path d="M115.105 73.4425H75.5095V80.6524H115.105V73.4425Z" fill="#BFC8D6"/>
<path d="M115.105 86.2338H75.5095V93.4437H115.105V86.2338Z" fill="#BFC8D6"/>
<path d="M115.105 99.0251H75.5095V106.235H115.105V99.0251Z" fill="#BFC8D6"/>
<path d="M115.105 111.817H75.5095V119.027H115.105V111.817Z" fill="#BFC8D6"/>
<path d="M115.105 124.608H75.5095V131.818H115.105V124.608Z" fill="#BFC8D6"/>
<path d="M115.105 137.4H75.5095V144.609H115.105V137.4Z" fill="#BFC8D6"/>
<path d="M71.9687 49.7202V164.844H59.4138V60.6512L71.6051 50.0363L71.9173 49.7642L71.9687 49.7202Z" fill="#AABBCC"/>
<g style="mix-blend-mode:multiply" opacity="0.5">
<path d="M115.105 60.6512H75.5095V62.0467H115.105V60.6512Z" fill="#97A6B7"/>
</g>
<g style="mix-blend-mode:multiply" opacity="0.5">
<path d="M115.105 73.4425H75.5095V74.838H115.105V73.4425Z" fill="#97A6B7"/>
</g>
<g style="mix-blend-mode:multiply" opacity="0.5">
<path d="M115.105 86.2338H75.5095V87.6293H115.105V86.2338Z" fill="#97A6B7"/>
</g>
<g style="mix-blend-mode:multiply" opacity="0.5">
<path d="M115.105 99.0251H75.5095V100.421H115.105V99.0251Z" fill="#97A6B7"/>
</g>
<g style="mix-blend-mode:multiply" opacity="0.5">
<path d="M115.105 111.817H75.5095V113.213H115.105V111.817Z" fill="#97A6B7"/>
</g>
<g style="mix-blend-mode:multiply" opacity="0.5">
<path d="M115.105 124.608H75.5095V126.004H115.105V124.608Z" fill="#97A6B7"/>
</g>
<g style="mix-blend-mode:multiply" opacity="0.5">
<path d="M115.105 137.4H75.5095V138.795H115.105V137.4Z" fill="#97A6B7"/>
</g>
<path d="M26.4175 66.9304V164.844L13.8627 161.876V76.2262L26.4175 66.9304Z" fill="#AABBCC"/>
<path d="M65.6913 67.1628H26.4176V164.843H65.6913V67.1628Z" fill="white"/>
<path d="M41.2251 78.7915H33.4993V94.1415H41.2251V78.7915Z" fill="#BFC8D6"/>
<path d="M52.01 78.7915H44.1229V94.1415H52.01V78.7915Z" fill="#BFC8D6"/>
<path d="M62.6325 78.7915H54.9067V94.1415H62.6325V78.7915Z" fill="#BFC8D6"/>
<path d="M41.2251 99.0251H33.4993V114.375H41.2251V99.0251Z" fill="#BFC8D6"/>
<path d="M52.01 99.0251H44.1229V114.375H52.01V99.0251Z" fill="#BFC8D6"/>
<path d="M62.6325 99.0251H54.9067V114.375H62.6325V99.0251Z" fill="#BFC8D6"/>
<path d="M41.2251 119.259H33.4993V134.609H41.2251V119.259Z" fill="#BFC8D6"/>
<path d="M52.01 119.259H44.1229V134.609H52.01V119.259Z" fill="#BFC8D6"/>
<path d="M62.6325 119.259H54.9067V134.609H62.6325V119.259Z" fill="#BFC8D6"/>
<path d="M41.2251 139.493H33.4993V154.843H41.2251V139.493Z" fill="#BFC8D6"/>
<path d="M52.01 139.493H44.1229V154.843H52.01V139.493Z" fill="#BFC8D6"/>
<path d="M62.6325 139.493H54.9067V154.843H62.6325V139.493Z" fill="#BFC8D6"/>
<g style="mix-blend-mode:multiply" opacity="0.5">
<path d="M41.2251 78.7915H33.4993V80.4194H41.2251V78.7915Z" fill="#97A6B7"/>
</g>
<g style="mix-blend-mode:multiply" opacity="0.5">
<path d="M41.2251 99.0251H33.4993V100.653H41.2251V99.0251Z" fill="#97A6B7"/>
</g>
<g style="mix-blend-mode:multiply" opacity="0.5">
<path d="M41.2251 119.259H33.4993V120.887H41.2251V119.259Z" fill="#97A6B7"/>
</g>
<g style="mix-blend-mode:multiply" opacity="0.5">
<path d="M41.2251 139.493H33.4993V141.121H41.2251V139.493Z" fill="#97A6B7"/>
</g>
<g style="mix-blend-mode:multiply" opacity="0.5">
<path d="M51.9288 78.7915H44.203V80.4194H51.9288V78.7915Z" fill="#97A6B7"/>
</g>
<g style="mix-blend-mode:multiply" opacity="0.5">
<path d="M51.9288 99.0251H44.203V100.653H51.9288V99.0251Z" fill="#97A6B7"/>
</g>
<g style="mix-blend-mode:multiply" opacity="0.5">
<path d="M51.9288 119.259H44.203V120.887H51.9288V119.259Z" fill="#97A6B7"/>
</g>
<g style="mix-blend-mode:multiply" opacity="0.5">
<path d="M51.9288 139.493H44.203V141.121H51.9288V139.493Z" fill="#97A6B7"/>
</g>
<g style="mix-blend-mode:multiply" opacity="0.5">
<path d="M62.6325 78.7915H54.9067V80.4194H62.6325V78.7915Z" fill="#97A6B7"/>
</g>
<g style="mix-blend-mode:multiply" opacity="0.5">
<path d="M62.6325 99.0251H54.9067V100.653H62.6325V99.0251Z" fill="#97A6B7"/>
</g>
<g style="mix-blend-mode:multiply" opacity="0.5">
<path d="M62.6325 119.259H54.9067V120.887H62.6325V119.259Z" fill="#97A6B7"/>
</g>
<g style="mix-blend-mode:multiply" opacity="0.5">
<path d="M62.6325 139.493H54.9067V141.121H62.6325V139.493Z" fill="#97A6B7"/>
</g>
<path d="M37.5014 84.124C35.8488 84.1767 34.2158 83.7541 32.7958 82.9065C28.5033 80.3313 22.1623 76.0788 16.4532 70.5121C9.21328 63.4483 5.05278 56.2678 4.14282 49.2169L4.12815 49.1056L3.95154 19.0185C3.95154 13.072 7.82726 8.24582 15.1039 5.07566C21.1155 2.45527 29.0839 1.157 37.5014 1.40039C45.8212 1.64194 53.5195 3.35727 59.2182 6.22166C65.9912 9.6242 69.5461 14.4057 69.5461 20.0746L69.3848 48.8224L69.3719 48.9282C68.5402 55.6801 64.7122 62.6595 57.944 69.7171C52.5173 75.3774 46.3847 79.8635 42.1728 82.6429C40.7837 83.5618 39.1659 84.0747 37.5014 84.124Z" fill="url(#paint25_linear_27750_88049)"/>
<path d="M39.1527 84.124C37.5194 84.1764 35.9061 83.7534 34.5082 82.9065C30.2719 80.3313 24.0122 76.0788 18.3814 70.512C11.2386 63.4483 7.13247 56.2678 6.23473 49.2169L6.22068 49.1056L6.0459 19.0185C6.0459 13.072 9.87029 8.24581 17.051 5.07566C22.9831 2.45527 30.8458 1.157 39.1527 1.40039C47.3625 1.64194 54.9594 3.35727 60.5823 6.22166C67.2661 9.6242 70.7733 14.4057 70.7733 20.0746L70.6144 48.8224L70.6016 48.9282C69.7803 55.6801 66.0029 62.6594 59.3264 69.7171C53.973 75.378 47.9229 79.8653 43.7636 82.6435C42.3964 83.561 40.7982 84.0742 39.1527 84.124Z" fill="url(#paint26_linear_27750_88049)"/>
<path d="M8.03137 19.0417L8.20676 48.9759C10.1758 64.2488 28.1134 76.617 35.926 81.3129C38.1639 82.6582 41.0252 82.5787 43.2472 81.116C50.8966 76.0788 67.8515 63.3988 69.6635 48.7142L69.8242 20.0458C69.8242 -1.22306 8.03137 -3.16832 8.03137 19.0417Z" fill="url(#paint27_linear_27750_88049)"/>
<path d="M39.5957 76.6989C39.3922 76.7038 39.1914 76.6506 39.017 76.5454C35.8001 74.5965 29.5648 70.5133 24.1399 65.1814C18.2835 59.422 14.901 53.8223 14.1279 48.5632L13.9562 19.1243C13.9635 16.2996 16.1978 13.8823 20.5777 11.948C25.4666 9.78871 32.4114 8.65555 39.5976 8.82922C46.7122 8.99862 53.4535 10.4314 58.1243 12.7509C62.2548 14.802 64.3437 17.22 64.3504 19.9468L64.1903 48.3663C63.4667 53.4554 60.295 58.942 54.7258 64.7093C49.4898 70.1323 43.3731 74.4326 40.1763 76.5215C40.0029 76.6333 39.8019 76.6947 39.5957 76.6989Z" fill="url(#paint28_linear_27750_88049)"/>
<path d="M38.8618 74.6863C35.6131 72.6842 29.8368 68.8157 24.7969 63.855C19.2901 58.432 16.1037 53.2285 15.3545 48.4133L15.184 19.1457C15.1888 17.1276 17.0442 15.2735 20.684 13.6615C25.3157 11.6086 31.9519 10.5274 38.8618 10.6828C45.7064 10.8363 52.1555 12.189 56.588 14.3837C60.0323 16.0887 61.7746 17.9489 61.7825 19.9186L61.6224 48.2323C60.9196 52.9038 57.9141 58.0131 52.6579 63.4465C47.775 68.491 42.0959 72.5485 38.8618 74.6863Z" fill="url(#paint29_linear_27750_88049)"/>
<path d="M36.8909 52.7007C35.8588 52.7007 34.9152 52.206 34.3964 51.3988L26.3216 38.8319C25.6219 37.7428 25.9977 36.1596 27.1772 35.2661C28.3805 34.3531 29.981 34.4883 30.7376 35.5994L36.6783 44.3241L45.5395 27.6294C46.4 26.0088 48.5157 24.9882 50.2953 25.3796C52.1243 25.7813 52.8662 27.5028 51.9184 29.1924L39.5988 51.1701C39.0885 52.0807 38.0863 52.6641 36.9955 52.6989L36.8909 52.7007Z" fill="white"/>
<path d="M38.7665 106.03C38.4029 106.167 32.8545 108.375 31.7136 114.17C31.6219 114.639 30.7303 119.617 34.1043 123.134C37.8877 127.078 45.1735 126.98 48.0653 123.684C48.7375 122.916 49.0951 122.063 49.2943 121.348L48.534 119.32C47.6045 118.198 46.3389 117.931 45.6618 117.765C43.9946 117.354 42.7363 118.096 41.7824 117.292C41.2538 116.847 41.1493 116.207 41.0552 115.635C40.7361 113.686 41.8349 112.487 41.915 111.285C41.9761 110.387 42.289 108.419 41.1205 107.135C40.375 106.322 39.3471 106.1 38.7665 106.03Z" fill="url(#paint30_linear_27750_88049)"/>
<path d="M36.6043 170.611C36.5395 170.254 35.3882 169.931 34.8186 170.409C34.5357 170.646 34.3407 171.127 34.5045 171.344C34.5656 171.423 34.3212 171.563 34.5534 171.565C35.3289 171.574 36.6691 170.965 36.6043 170.611Z" fill="url(#paint31_linear_27750_88049)"/>
<path d="M35.398 170.738L34.2136 170.571C34.7636 169.91 34.661 167.805 34.661 167.805L35.9199 168.087C35.9199 168.087 35.7763 168.664 35.5324 169.516C35.4487 169.811 35.4114 170.267 35.398 170.738Z" fill="url(#paint32_linear_27750_88049)"/>
<path d="M35.5032 170.595C35.5032 170.595 34.0774 170.266 33.9234 170.549C33.7694 170.831 33.649 171.588 34.5535 171.565C35.4579 171.542 35.5832 170.835 35.5032 170.595Z" fill="url(#paint33_linear_27750_88049)"/>
<path d="M52.8509 171.948C52.7366 171.604 51.5517 171.446 51.0542 171.999C50.8098 172.273 50.6814 172.777 50.8709 172.969C50.9406 173.039 50.7187 173.211 50.9503 173.181C51.7228 173.081 52.964 172.29 52.8509 171.948Z" fill="url(#paint34_linear_27750_88049)"/>
<path d="M51.674 172.246H50.4786C50.929 171.512 50.5342 169.445 50.5342 169.445L51.8176 169.547C51.8176 169.547 51.7565 170.14 51.6343 171.015C51.5945 171.318 51.6214 171.778 51.674 172.246Z" fill="url(#paint35_linear_27750_88049)"/>
<path d="M54.7729 126.996C55.6125 129.773 56.2327 132.612 56.6276 135.487C58.0797 146.059 54.9929 146.397 55.5692 158.113C55.7525 161.853 52.3303 170.476 52.0302 170.667C51.8729 170.683 51.7147 170.689 51.5566 170.686C51.1478 170.671 50.7427 170.604 50.3514 170.484C49.8094 170.391 47.855 165.094 48.3085 161.945C48.6287 159.716 48.5358 157.324 48.35 152.54C48.3201 151.765 46.3376 137.458 46.3376 137.458C45.735 142.753 45.0414 147.256 44.4395 150.741C42.5077 161.949 36.2285 168.733 35.9009 168.842C35.8361 168.868 35.247 169.083 34.7654 168.765C34.6411 168.686 34.5415 168.574 34.4782 168.441C34.3101 168.309 34.5277 157.25 36.443 148.929C39.2229 136.849 38.0123 134.023 38.8929 128.626C39.6562 123.956 54.7729 126.996 54.7729 126.996Z" fill="url(#paint36_linear_27750_88049)"/>
<path d="M43.5442 105.087C45.3898 105.033 49.4354 104.589 52.6267 106.059C52.6762 106.082 51.5309 106.777 51.7668 107.053C52.3901 107.789 52.9426 108.582 53.4169 109.422C53.91 110.302 54.3549 111.327 54.8035 112.854C55.3738 114.807 55.7405 116.814 55.898 118.842C56.3258 124.463 55.9017 127.057 55.5173 128.821C53.8489 129.677 49.5485 131.213 44.4248 130.451C42.4919 130.16 40.6222 129.543 38.8948 128.628C40.2246 124.6 39.1814 122.444 38.6895 120.457C37.9879 117.625 37.9763 117.839 37.3988 115.588C36.4454 111.875 36.289 108.081 36.9441 107.305C38.7096 105.211 41.8917 105.135 43.5442 105.087Z" fill="url(#paint37_linear_27750_88049)"/>
<path d="M51.7577 172.087C51.7577 172.087 50.3002 171.961 50.1871 172.263C50.0741 172.564 50.0612 173.332 50.9535 173.18C51.8457 173.028 51.8708 172.313 51.7577 172.087Z" fill="url(#paint38_linear_27750_88049)"/>
<path d="M48.7388 102.969C49.3102 102.002 49.0554 100.897 48.9985 100.658C48.7577 99.6587 48.6685 99.507 48.4827 99.2954L48.2206 99.0184C48.2206 99.0184 48.2047 99.0062 48.187 98.9939C48.0036 98.8716 47.3241 98.6649 47.1774 98.6576C46.7081 98.6337 45.7523 100.318 45.2053 102.914C45.1607 103.007 45.1173 103.098 45.0733 103.195C44.8741 103.628 44.6948 104.055 44.5355 104.476C44.4851 104.61 44.3982 104.728 44.2844 104.815C44.1707 104.903 44.0348 104.957 43.892 104.971C41.1517 105.235 40.7557 105.583 40.7423 105.784C40.713 106.237 42.5207 106.763 43.8798 106.959C46.8449 107.394 49.8926 106.611 49.8785 106.058C49.873 105.843 49.4037 105.569 47.5178 105.28C47.3188 105.249 47.1401 105.141 47.0201 104.979C46.9001 104.817 46.8486 104.615 46.8767 104.415C46.8999 104.252 46.923 104.089 46.9458 103.926C47.1505 103.88 48.3177 103.682 48.7388 102.969Z" fill="url(#paint39_linear_27750_88049)"/>
<path d="M48.7828 98.7848C48.5683 99.5798 48.5218 100.076 48.2939 100.162C48.1581 100.22 48.0328 100.3 47.9229 100.399C47.8961 100.423 47.8725 100.451 47.8526 100.481C47.5471 100.934 48.1839 101.734 47.9706 101.917C47.816 102.05 47.3344 101.688 47.233 101.812C47.1315 101.935 47.5129 102.32 47.4022 102.46C47.3185 102.565 47.0716 102.382 46.8486 102.521C46.738 102.589 46.7441 102.668 46.5778 102.922C46.4918 103.056 46.3934 103.183 46.2839 103.299C45.8854 103.692 45.0617 103.654 44.9651 103.429C44.937 103.368 44.9847 103.331 44.9883 103.146C44.9858 103.014 44.9652 102.883 44.9272 102.757C44.838 102.447 44.4994 102.153 44.1853 101.767C43.6005 101.053 43.5222 100.556 43.5033 100.389C43.4966 100.328 43.4941 100.287 43.4923 100.255C43.4599 99.6201 43.6879 98.7615 44.0912 98.3035C44.7671 97.536 45.6477 98.2209 46.6933 97.5611C47.9003 96.7998 46.6811 98.2044 47.2299 98.1873C47.8398 98.1665 49.1782 97.3196 48.7828 98.7848Z" fill="url(#paint40_linear_27750_88049)"/>
<path d="M47.7396 101.655C47.6173 101.335 47.2085 101.496 47.1144 101.838C47.0203 102.181 47.2592 102.633 47.6033 102.65C47.9473 102.667 47.9027 102.084 47.7396 101.655Z" fill="url(#paint41_linear_27750_88049)"/>
<path style="mix-blend-mode:multiply" opacity="0.3" d="M44.3015 125.51C46.1434 125.009 47.2788 127.229 48.8623 126.902C51.0433 126.451 51.8207 121.633 52.0315 120.327C52.7924 115.612 51.374 113.867 52.65 111.818C52.9856 111.288 53.4297 110.836 53.9529 110.491C54.2893 111.258 54.5733 112.048 54.803 112.854C55.3732 114.807 55.74 116.814 55.8975 118.842C56.3253 124.463 55.9011 127.057 55.5167 128.821C53.8484 129.677 49.5479 131.213 44.4243 130.451C42.639 130.182 40.9068 129.635 39.2909 128.83C40.6555 128.606 41.5398 128.096 42.1375 127.52C42.9778 126.714 43.2369 125.799 44.3015 125.51Z" fill="url(#paint42_linear_27750_88049)"/>
<path d="M56.932 120.729L62.275 108.797C62.3071 108.726 62.3614 108.666 62.4298 108.628C62.4983 108.589 62.5772 108.574 62.6551 108.583L71.9973 109.762C72.0552 109.769 72.1106 109.79 72.1587 109.823C72.2068 109.856 72.2464 109.9 72.2742 109.951C72.3019 110.003 72.317 110.06 72.3181 110.118C72.3193 110.177 72.3065 110.235 72.2809 110.287L65.9815 123.18C65.9446 123.256 65.883 123.316 65.8071 123.351C65.7311 123.387 65.6454 123.395 65.5641 123.375L57.2467 121.317L56.932 120.729Z" fill="url(#paint43_linear_27750_88049)"/>
<path d="M58.4023 119.285L62.7285 109.623C62.7542 109.565 62.7978 109.517 62.8528 109.486C62.9077 109.455 62.9712 109.442 63.034 109.449L70.5979 110.404C70.6448 110.41 70.6896 110.427 70.7286 110.453C70.7677 110.48 70.7998 110.515 70.8222 110.557C70.8447 110.599 70.857 110.645 70.8579 110.692C70.8588 110.74 70.8485 110.786 70.8276 110.829L65.7272 121.268C65.6975 121.329 65.6477 121.378 65.5862 121.407C65.5247 121.436 65.4552 121.443 65.3893 121.427L58.6541 119.76L58.4023 119.285Z" fill="white"/>
<path d="M64.2967 109.565L64.6395 108.791C64.6627 108.738 64.7021 108.694 64.7519 108.666C64.8017 108.637 64.8593 108.626 64.9163 108.632L68.8037 109.09C68.8456 109.095 68.8858 109.11 68.921 109.133C68.9561 109.157 68.9853 109.188 69.006 109.225C69.0267 109.262 69.0385 109.303 69.0403 109.345C69.0421 109.387 69.0339 109.429 69.0164 109.468L68.6332 110.311C68.6094 110.364 68.5692 110.407 68.5187 110.435C68.4681 110.463 68.4099 110.474 68.3527 110.466L64.5026 109.94C64.4617 109.934 64.4226 109.918 64.3886 109.895C64.3546 109.871 64.3266 109.84 64.3066 109.803C64.2867 109.767 64.2754 109.727 64.2737 109.685C64.2719 109.644 64.2798 109.603 64.2967 109.565Z" fill="#2C35D6"/>
<path d="M69.5987 112.177H69.581L62.7291 111.298C62.6885 111.293 62.6517 111.271 62.6266 111.239C62.6015 111.206 62.5903 111.165 62.5953 111.125C62.6012 111.084 62.6226 111.048 62.655 111.023C62.6874 110.998 62.7282 110.986 62.7688 110.991L69.6177 111.869C69.6542 111.877 69.6867 111.897 69.7092 111.927C69.7317 111.957 69.7427 111.994 69.7401 112.031C69.7375 112.068 69.7215 112.104 69.695 112.13C69.6686 112.156 69.6335 112.172 69.5963 112.175L69.5987 112.177Z" fill="#BFC8D6"/>
<path d="M69.2473 112.869H69.2277L62.4107 111.923C62.3724 111.915 62.3386 111.892 62.3161 111.86C62.2936 111.828 62.2841 111.789 62.2894 111.75C62.2948 111.711 62.3146 111.676 62.3449 111.651C62.3753 111.627 62.4138 111.614 62.4529 111.617L69.2699 112.564C69.3065 112.571 69.339 112.592 69.3614 112.622C69.3839 112.652 69.3947 112.689 69.392 112.726C69.3892 112.764 69.373 112.799 69.3464 112.825C69.3198 112.851 69.2846 112.867 69.2473 112.869Z" fill="#BFC8D6"/>
<path d="M65.8172 113.958C65.8093 113.959 65.8013 113.959 65.7934 113.958L62.0765 113.339C62.0565 113.335 62.0373 113.328 62.02 113.317C62.0027 113.306 61.9878 113.292 61.9759 113.276C61.9641 113.259 61.9556 113.241 61.951 113.221C61.9464 113.201 61.9458 113.18 61.9491 113.16C61.9524 113.14 61.9597 113.121 61.9704 113.104C61.9812 113.086 61.9953 113.071 62.0118 113.06C62.0283 113.048 62.047 113.039 62.0669 113.035C62.0867 113.03 62.1072 113.029 62.1273 113.033L65.8447 113.653C65.8815 113.661 65.9141 113.682 65.9363 113.712C65.9586 113.743 65.969 113.78 65.9657 113.818C65.9623 113.855 65.9453 113.89 65.918 113.916C65.8907 113.942 65.8548 113.957 65.8172 113.959V113.958Z" fill="#BFC8D6"/>
<path d="M67.5233 120.025C67.5233 120.025 69.0456 118.985 69.2235 118.258C69.4013 117.531 69.3561 116.153 69.3561 116.153L68.4687 118.089C68.4687 118.089 68.0409 117.967 67.8576 117.329C67.6743 116.69 67.3608 117.275 67.4867 117.757C67.6125 118.239 67.5233 120.025 67.5233 120.025Z" fill="url(#paint44_linear_27750_88049)"/>
<path d="M52.6286 106.059C54.2236 106.3 57.2639 107.641 58.892 109.789C61.9029 113.768 60.7522 117.946 63.2743 119.434C63.9954 119.862 65.2611 120.206 67.5473 119.397L68.423 119.863C68.423 119.863 69.4931 125.31 62.8838 125.513C56.2745 125.717 52.9836 117.495 52.9836 117.495L49.8785 107.434L52.6286 106.059Z" fill="url(#paint45_linear_27750_88049)"/>
<path d="M43.1562 98.0956C43.2279 97.9592 43.3122 97.8298 43.408 97.7091C43.785 97.2345 44.255 96.9496 44.7903 96.6829C45.6862 96.2365 46.6585 96.1209 47.5666 96.6255C48.2071 96.9808 48.7125 97.6583 49.0578 98.2919C49.1362 98.436 49.1785 98.5971 49.1812 98.7612C49.1838 98.9253 49.1467 99.0876 49.073 99.2342C48.5139 100.344 46.947 103.013 44.9602 102.665C44.2085 102.533 43.5033 102.061 43.2032 101.354C42.7822 100.362 42.6367 99.0807 43.1562 98.0956Z" fill="url(#paint46_linear_27750_88049)"/>
<path d="M43.6921 100.252C44.0141 101.801 44.3362 102.055 44.9718 101.985C45.0439 101.98 45.1135 101.956 45.174 101.916C45.1754 101.917 45.1769 101.917 45.1783 101.916C45.2325 101.878 45.2748 101.825 45.3005 101.764C45.3005 101.759 45.3042 101.757 45.3042 101.755C45.4735 101.363 45.2859 100.452 45.108 98.8031C44.8636 96.5637 47.2329 96.4793 47.2329 96.4793C47.2012 96.395 47.1632 96.3132 47.1192 96.2347C47.0936 96.205 47.0637 96.1793 47.0306 96.1583C46.9857 96.1307 46.9369 96.1101 46.8858 96.0971C46.2136 95.8947 45.3458 96.1693 44.7719 96.5252C43.5601 97.2682 43.4379 99.0392 43.6921 100.252Z" fill="url(#paint47_linear_27750_88049)"/>
<path d="M48.754 97.7904C48.754 97.7904 49.4971 97.9396 49.3651 98.7921C49.2612 99.4776 47.8239 102.782 45.3073 102.795C42.7907 102.807 43.2716 101.482 43.2716 101.482C43.2716 101.482 43.9714 102.64 45.3782 102.317C46.785 101.994 47.5415 101.271 48.4338 99.6874C48.4393 99.6874 49.1414 98.2894 48.754 97.7904Z" fill="url(#paint48_linear_27750_88049)"/>
<path style="mix-blend-mode:multiply" opacity="0.2" d="M44.7842 98.8527C44.8007 99.5474 45.0977 101.916 45.174 101.916C45.1754 101.917 45.1769 101.917 45.1783 101.916C45.2223 101.868 45.2631 101.817 45.3005 101.764C45.3005 101.759 45.3042 101.757 45.3042 101.755C45.4735 101.363 45.2859 100.452 45.108 98.8031C44.8636 96.5637 47.2329 96.4793 47.2329 96.4793C47.2012 96.3951 47.1632 96.3133 47.1192 96.2347C47.0936 96.205 47.0637 96.1793 47.0306 96.1583C46.5741 96.2323 45.4674 96.472 45.1435 97.0964C44.7322 97.8797 44.7652 98.1464 44.7842 98.8527Z" fill="url(#paint49_linear_27750_88049)"/>
</g>
<defs>
<linearGradient id="paint0_linear_27750_88049" x1="156.634" y1="57.6192" x2="127.025" y2="286.701" gradientUnits="userSpaceOnUse">
<stop stop-color="#EC1A3B"/>
<stop offset="1" stop-color="#F596A4"/>
</linearGradient>
<linearGradient id="paint1_linear_27750_88049" x1="158.778" y1="91.6923" x2="136.753" y2="262.092" gradientUnits="userSpaceOnUse">
<stop stop-color="#FFC444"/>
<stop offset="1" stop-color="#F36F56"/>
</linearGradient>
<linearGradient id="paint2_linear_27750_88049" x1="87.6366" y1="1.79728" x2="59.7587" y2="217.483" gradientUnits="userSpaceOnUse">
<stop stop-color="#EC1A3B"/>
<stop offset="1" stop-color="#F596A4"/>
</linearGradient>
<linearGradient id="paint3_linear_27750_88049" x1="80.8593" y1="36.8958" x2="61.5703" y2="186.128" gradientUnits="userSpaceOnUse">
<stop stop-color="#FFC444"/>
<stop offset="1" stop-color="#F36F56"/>
</linearGradient>
<linearGradient id="paint4_linear_27750_88049" x1="138.564" y1="86.5882" x2="142.94" y2="86.8389" gradientUnits="userSpaceOnUse">
<stop stop-color="#311944"/>
<stop offset="1" stop-color="#6B3976"/>
</linearGradient>
<linearGradient id="paint5_linear_27750_88049" x1="141.594" y1="86.512" x2="145.844" y2="75.8483" gradientUnits="userSpaceOnUse">
<stop stop-color="#FFD50B"/>
<stop offset="1" stop-color="#F36F56"/>
</linearGradient>
<linearGradient id="paint6_linear_27750_88049" x1="123.932" y1="86.8331" x2="128.315" y2="86.8331" gradientUnits="userSpaceOnUse">
<stop stop-color="#311944"/>
<stop offset="1" stop-color="#6B3976"/>
</linearGradient>
<linearGradient id="paint7_linear_27750_88049" x1="127.186" y1="86.7518" x2="131.186" y2="74.7589" gradientUnits="userSpaceOnUse">
<stop stop-color="#FFC444"/>
<stop offset="1" stop-color="#F36F56"/>
</linearGradient>
<linearGradient id="paint8_linear_27750_88049" x1="137.138" y1="41.4095" x2="127.424" y2="77.9799" gradientUnits="userSpaceOnUse">
<stop stop-color="#0B1E40"/>
<stop offset="1" stop-color="#212D4B"/>
</linearGradient>
<linearGradient id="paint9_linear_27750_88049" x1="149.088" y1="64.9258" x2="135.169" y2="64.9258" gradientUnits="userSpaceOnUse">
<stop stop-color="#0B1E40"/>
<stop offset="1" stop-color="#212D4B"/>
</linearGradient>
<linearGradient id="paint10_linear_27750_88049" x1="99.5278" y1="45.1313" x2="103.67" y2="59.2775" gradientUnits="userSpaceOnUse">
<stop stop-color="#FFC444"/>
<stop offset="1" stop-color="#F36F56"/>
</linearGradient>
<linearGradient id="paint11_linear_27750_88049" x1="127.302" y1="55.2141" x2="103.372" y2="32.8793" gradientUnits="userSpaceOnUse">
<stop stop-color="#2732FF"/>
<stop offset="1" stop-color="#2C35D6"/>
</linearGradient>
<linearGradient id="paint12_linear_27750_88049" x1="138.174" y1="43.5652" x2="114.245" y2="21.2303" gradientUnits="userSpaceOnUse">
<stop stop-color="#434BDB"/>
<stop offset="1" stop-color="#434BDB"/>
</linearGradient>
<linearGradient id="paint13_linear_27750_88049" x1="138.175" y1="43.5645" x2="114.245" y2="21.2297" gradientUnits="userSpaceOnUse">
<stop stop-color="#AA80F9"/>
<stop offset="1" stop-color="#2732FF"/>
</linearGradient>
<linearGradient id="paint14_linear_27750_88049" x1="124.93" y1="26.5763" x2="117.017" y2="19.6448" gradientUnits="userSpaceOnUse">
<stop stop-color="#FFC444"/>
<stop offset="1" stop-color="#F36F56"/>
</linearGradient>
<linearGradient id="paint15_linear_27750_88049" x1="122.267" y1="24.251" x2="116.731" y2="20.2226" gradientUnits="userSpaceOnUse">
<stop stop-color="#311944"/>
<stop offset="1" stop-color="#6B3976"/>
</linearGradient>
<linearGradient id="paint16_linear_27750_88049" x1="118.416" y1="22.1414" x2="122.858" y2="30.044" gradientUnits="userSpaceOnUse">
<stop stop-color="#FFC444"/>
<stop offset="1" stop-color="#F36F56"/>
</linearGradient>
<linearGradient id="paint17_linear_27750_88049" x1="117.404" y1="20.5296" x2="125.548" y2="26.9894" gradientUnits="userSpaceOnUse">
<stop stop-color="#FFC444"/>
<stop offset="1" stop-color="#F36F56"/>
</linearGradient>
<linearGradient id="paint18_linear_27750_88049" x1="116.269" y1="23.4948" x2="116.562" y2="21.9001" gradientUnits="userSpaceOnUse">
<stop stop-color="#FFC444"/>
<stop offset="1" stop-color="#F36F56"/>
</linearGradient>
<linearGradient id="paint19_linear_27750_88049" x1="115.142" y1="18.6999" x2="119.309" y2="23.645" gradientUnits="userSpaceOnUse">
<stop stop-color="#FFC444"/>
<stop offset="1" stop-color="#F36F56"/>
</linearGradient>
<linearGradient id="paint20_linear_27750_88049" x1="114.968" y1="34.1843" x2="118.27" y2="34.1843" gradientUnits="userSpaceOnUse">
<stop stop-color="#D8DEE8"/>
<stop offset="1" stop-color="white"/>
</linearGradient>
<linearGradient id="paint21_linear_27750_88049" x1="129.938" y1="36.2287" x2="134.08" y2="50.3749" gradientUnits="userSpaceOnUse">
<stop stop-color="#FFD50B"/>
<stop offset="1" stop-color="#EC1A3B"/>
</linearGradient>
<linearGradient id="paint22_linear_27750_88049" x1="143.052" y1="38.339" x2="119.122" y2="16.0048" gradientUnits="userSpaceOnUse">
<stop stop-color="#5B62DF"/>
<stop offset="1" stop-color="#2732FF"/>
</linearGradient>
<linearGradient id="paint23_linear_27750_88049" x1="116.512" y1="44.236" x2="134.008" y2="44.236" gradientUnits="userSpaceOnUse">
<stop stop-color="#D8DEE8"/>
<stop offset="1" stop-color="white"/>
</linearGradient>
<linearGradient id="paint24_linear_27750_88049" x1="71.9686" y1="107.282" x2="118.647" y2="107.282" gradientUnits="userSpaceOnUse">
<stop offset="0.49" stop-color="#EBEFF2"/>
<stop offset="1" stop-color="white"/>
</linearGradient>
<linearGradient id="paint25_linear_27750_88049" x1="75.224" y1="-0.900173" x2="56.3063" y2="17.2704" gradientUnits="userSpaceOnUse">
<stop stop-color="#F1B627"/>
<stop offset="1" stop-color="#F9821B"/>
</linearGradient>
<linearGradient id="paint26_linear_27750_88049" x1="19.0334" y1="3.24292" x2="83.3604" y2="108.384" gradientUnits="userSpaceOnUse">
<stop stop-color="#FFC444"/>
<stop offset="1" stop-color="#F36F56"/>
</linearGradient>
<linearGradient id="paint27_linear_27750_88049" x1="53.1107" y1="63.1273" x2="0.862907" y2="-41.8619" gradientUnits="userSpaceOnUse">
<stop stop-color="#F1B627"/>
<stop offset="1" stop-color="#F9821B"/>
</linearGradient>
<linearGradient id="paint28_linear_27750_88049" x1="13.9543" y1="42.7543" x2="64.3486" y2="42.7543" gradientUnits="userSpaceOnUse">
<stop stop-color="#0B1E40"/>
<stop offset="1" stop-color="#212D4B"/>
</linearGradient>
<linearGradient id="paint29_linear_27750_88049" x1="47.2452" y1="81.3612" x2="32.6763" y2="2.01353" gradientUnits="userSpaceOnUse">
<stop stop-color="#F1B627"/>
<stop offset="1" stop-color="#F9821B"/>
</linearGradient>
<linearGradient id="paint30_linear_27750_88049" x1="49.2949" y1="116.078" x2="31.54" y2="116.078" gradientUnits="userSpaceOnUse">
<stop stop-color="#2732FF"/>
<stop offset="1" stop-color="#434BDB"/>
</linearGradient>
<linearGradient id="paint31_linear_27750_88049" x1="37.2986" y1="169.541" x2="34.7632" y2="171.225" gradientUnits="userSpaceOnUse">
<stop stop-color="#444B8C"/>
<stop offset="1" stop-color="#26264F"/>
</linearGradient>
<linearGradient id="paint32_linear_27750_88049" x1="34.8349" y1="171.242" x2="35.3903" y2="167.317" gradientUnits="userSpaceOnUse">
<stop stop-color="#AB316D"/>
<stop offset="1" stop-color="#792D3D"/>
</linearGradient>
<linearGradient id="paint33_linear_27750_88049" x1="37.1084" y1="169.255" x2="34.5729" y2="170.939" gradientUnits="userSpaceOnUse">
<stop stop-color="#444B8C"/>
<stop offset="1" stop-color="#26264F"/>
</linearGradient>
<linearGradient id="paint34_linear_27750_88049" x1="53.3398" y1="170.839" x2="51.0645" y2="172.862" gradientUnits="userSpaceOnUse">
<stop stop-color="#444B8C"/>
<stop offset="1" stop-color="#26264F"/>
</linearGradient>
<linearGradient id="paint35_linear_27750_88049" x1="51.1496" y1="172.868" x2="51.1496" y2="168.903" gradientUnits="userSpaceOnUse">
<stop stop-color="#AB316D"/>
<stop offset="1" stop-color="#792D3D"/>
</linearGradient>
<linearGradient id="paint36_linear_27750_88049" x1="51.336" y1="174.686" x2="36.4879" y2="114.777" gradientUnits="userSpaceOnUse">
<stop stop-color="#212D4B"/>
<stop offset="1" stop-color="#0B1E40"/>
</linearGradient>
<linearGradient id="paint37_linear_27750_88049" x1="55.0015" y1="127.812" x2="37.8278" y2="108.382" gradientUnits="userSpaceOnUse">
<stop stop-color="#434BDB"/>
<stop offset="1" stop-color="#2732FF"/>
</linearGradient>
<linearGradient id="paint38_linear_27750_88049" x1="53.1113" y1="170.582" x2="50.836" y2="172.605" gradientUnits="userSpaceOnUse">
<stop stop-color="#444B8C"/>
<stop offset="1" stop-color="#26264F"/>
</linearGradient>
<linearGradient id="paint39_linear_27750_88049" x1="51.1032" y1="98.6362" x2="38.7779" y2="114.133" gradientUnits="userSpaceOnUse">
<stop stop-color="#AB316D"/>
<stop offset="1" stop-color="#792D3D"/>
</linearGradient>
<linearGradient id="paint40_linear_27750_88049" x1="46.3878" y1="98.5628" x2="43.0519" y2="110.151" gradientUnits="userSpaceOnUse">
<stop stop-color="#311944"/>
<stop offset="1" stop-color="#893976"/>
</linearGradient>
<linearGradient id="paint41_linear_27750_88049" x1="50.5843" y1="98.2228" x2="38.2585" y2="113.72" gradientUnits="userSpaceOnUse">
<stop stop-color="#AB316D"/>
<stop offset="1" stop-color="#792D3D"/>
</linearGradient>
<linearGradient id="paint42_linear_27750_88049" x1="54.3367" y1="128.4" x2="37.1624" y2="108.97" gradientUnits="userSpaceOnUse">
<stop stop-color="#AA80F9"/>
<stop offset="1" stop-color="#2732FF"/>
</linearGradient>
<linearGradient id="paint43_linear_27750_88049" x1="67.0887" y1="111.344" x2="58.104" y2="125.43" gradientUnits="userSpaceOnUse">
<stop stop-color="#444B8C"/>
<stop offset="1" stop-color="#26264F"/>
</linearGradient>
<linearGradient id="paint44_linear_27750_88049" x1="68.8689" y1="116.986" x2="66.7129" y2="120.367" gradientUnits="userSpaceOnUse">
<stop stop-color="#AB316D"/>
<stop offset="1" stop-color="#792D3D"/>
</linearGradient>
<linearGradient id="paint45_linear_27750_88049" x1="62.4077" y1="121.266" x2="45.234" y2="101.836" gradientUnits="userSpaceOnUse">
<stop stop-color="#2732FF"/>
<stop offset="1" stop-color="#434BDB"/>
<stop offset="1" stop-color="#434BDB"/>
</linearGradient>
<linearGradient id="paint46_linear_27750_88049" x1="48.6336" y1="95.6495" x2="40.4263" y2="105.969" gradientUnits="userSpaceOnUse">
<stop stop-color="#F1B627"/>
<stop offset="1" stop-color="#F36F56"/>
<stop offset="1" stop-color="#F9821B"/>
</linearGradient>
<linearGradient id="paint47_linear_27750_88049" x1="45.9031" y1="92.1943" x2="45.0391" y2="101.831" gradientUnits="userSpaceOnUse">
<stop stop-color="#FFC444"/>
<stop offset="1" stop-color="#F36F56"/>
</linearGradient>
<linearGradient id="paint48_linear_27750_88049" x1="46.8339" y1="94.3329" x2="46.0812" y2="102.726" gradientUnits="userSpaceOnUse">
<stop stop-color="#FFC444"/>
<stop offset="1" stop-color="#F36F56"/>
</linearGradient>
<linearGradient id="paint49_linear_27750_88049" x1="46.4452" y1="92.4488" x2="45.6093" y2="101.771" gradientUnits="userSpaceOnUse">
<stop stop-color="#FFC444"/>
<stop offset="1" stop-color="#F36F56"/>
</linearGradient>
<clipPath id="clip0_27750_88049">
<rect width="180" height="175.213" fill="white" transform="translate(0.5)"/>
</clipPath>
</defs>
</svg>
