<svg width="32" height="32" viewBox="0 0 32 32" fill="none" xmlns="http://www.w3.org/2000/svg">
<rect width="32" height="32" rx="16" fill="#39A07C"/>
<path d="M23.5 9.25H20.9012L19.6234 7.33375C19.555 7.23114 19.4623 7.147 19.3535 7.08879C19.2448 7.03057 19.1233 7.00007 19 7H13C12.8767 7.00007 12.7552 7.03057 12.6465 7.08879C12.5377 7.147 12.445 7.23114 12.3766 7.33375L11.0978 9.25H8.5C7.90326 9.25 7.33097 9.48705 6.90901 9.90901C6.48705 10.331 6.25 10.9033 6.25 11.5V22C6.25 22.5967 6.48705 23.169 6.90901 23.591C7.33097 24.0129 7.90326 24.25 8.5 24.25H23.5C24.0967 24.25 24.669 24.0129 25.091 23.591C25.5129 23.169 25.75 22.5967 25.75 22V11.5C25.75 10.9033 25.5129 10.331 25.091 9.90901C24.669 9.48705 24.0967 9.25 23.5 9.25ZM24.25 22C24.25 22.1989 24.171 22.3897 24.0303 22.5303C23.8897 22.671 23.6989 22.75 23.5 22.75H8.5C8.30109 22.75 8.11032 22.671 7.96967 22.5303C7.82902 22.3897 7.75 22.1989 7.75 22V11.5C7.75 11.3011 7.82902 11.1103 7.96967 10.9697C8.11032 10.829 8.30109 10.75 8.5 10.75H11.5C11.6235 10.7501 11.7451 10.7197 11.854 10.6614C11.963 10.6032 12.0558 10.519 12.1244 10.4163L13.4012 8.5H18.5978L19.8756 10.4163C19.9442 10.519 20.037 10.6032 20.146 10.6614C20.2549 10.7197 20.3765 10.7501 20.5 10.75H23.5C23.6989 10.75 23.8897 10.829 24.0303 10.9697C24.171 11.1103 24.25 11.3011 24.25 11.5V22ZM16 12.25C15.1842 12.25 14.3866 12.4919 13.7083 12.9452C13.0299 13.3984 12.5012 14.0427 12.189 14.7964C11.8768 15.5502 11.7951 16.3796 11.9543 17.1797C12.1134 17.9799 12.5063 18.7149 13.0832 19.2918C13.6601 19.8687 14.3951 20.2616 15.1953 20.4207C15.9954 20.5799 16.8248 20.4982 17.5786 20.186C18.3323 19.8738 18.9766 19.3451 19.4298 18.6667C19.8831 17.9884 20.125 17.1908 20.125 16.375C20.1238 15.2814 19.6888 14.2329 18.9154 13.4596C18.1421 12.6862 17.0936 12.2512 16 12.25ZM16 19C15.4808 19 14.9733 18.846 14.5416 18.5576C14.1099 18.2692 13.7735 17.8592 13.5748 17.3795C13.3761 16.8999 13.3242 16.3721 13.4254 15.8629C13.5267 15.3537 13.7767 14.886 14.1438 14.5188C14.511 14.1517 14.9787 13.9017 15.4879 13.8004C15.9971 13.6992 16.5249 13.7511 17.0045 13.9498C17.4842 14.1485 17.8942 14.4849 18.1826 14.9166C18.471 15.3483 18.625 15.8558 18.625 16.375C18.625 17.0712 18.3484 17.7389 17.8562 18.2312C17.3639 18.7234 16.6962 19 16 19Z" fill="white"/>
</svg>
