<svg width="46" height="46" viewBox="0 0 46 46" fill="none" xmlns="http://www.w3.org/2000/svg">
<path d="M32.9881 16.5119C33.1508 16.6744 33.2799 16.8674 33.368 17.0799C33.4561 17.2923 33.5014 17.52 33.5014 17.75C33.5014 17.98 33.4561 18.2077 33.368 18.4201C33.2799 18.6326 33.1508 18.8256 32.9881 18.9881L20.7381 31.2381C20.5756 31.4008 20.3826 31.5299 20.1702 31.618C19.9577 31.706 19.73 31.7514 19.5 31.7514C19.27 31.7514 19.0423 31.706 18.8299 31.618C18.6174 31.5299 18.4244 31.4008 18.2619 31.2381L13.0119 25.9881C12.6835 25.6598 12.499 25.2144 12.499 24.75C12.499 24.2856 12.6835 23.8402 13.0119 23.5119C13.3403 23.1835 13.7856 22.999 14.25 22.999C14.7144 22.999 15.1598 23.1835 15.4881 23.5119L19.5 27.5259L30.5119 16.5119C30.6744 16.3492 30.8674 16.2201 31.0799 16.132C31.2923 16.044 31.52 15.9986 31.75 15.9986C31.98 15.9986 32.2077 16.044 32.4202 16.132C32.6326 16.2201 32.8256 16.3492 32.9881 16.5119ZM45.75 23C45.75 27.4995 44.4157 31.898 41.9159 35.6392C39.4161 39.3804 35.8631 42.2964 31.7061 44.0183C27.549 45.7402 22.9748 46.1907 18.5617 45.3129C14.1486 44.4351 10.095 42.2683 6.91333 39.0867C3.73169 35.905 1.56496 31.8514 0.687145 27.4383C-0.190669 23.0252 0.259857 18.451 1.98175 14.294C3.70364 10.1369 6.61957 6.58387 10.3608 4.08407C14.102 1.58426 18.5005 0.25 23 0.25C29.0317 0.25637 34.8146 2.65528 39.0797 6.92036C43.3447 11.1854 45.7436 16.9683 45.75 23ZM42.25 23C42.25 19.1927 41.121 15.4709 39.0058 12.3053C36.8906 9.13963 33.8841 6.67231 30.3667 5.21532C26.8492 3.75833 22.9787 3.37712 19.2445 4.11988C15.5104 4.86265 12.0804 6.69603 9.3882 9.3882C6.69604 12.0804 4.86266 15.5104 4.11989 19.2445C3.37713 22.9786 3.75834 26.8492 5.21533 30.3667C6.67232 33.8841 9.13964 36.8906 12.3053 39.0058C15.4709 41.121 19.1927 42.25 23 42.25C28.1037 42.2442 32.9966 40.2142 36.6054 36.6054C40.2142 32.9966 42.2442 28.1036 42.25 23Z" fill="#39A07C"/>
</svg>
