<svg width="24" height="24" viewBox="0 0 24 24" fill="none" xmlns="http://www.w3.org/2000/svg">
<path d="M8.4001 13.2001C9.06284 13.2001 9.6001 12.6628 9.6001 12.0001C9.6001 11.3374 9.06284 10.8001 8.4001 10.8001C7.73736 10.8001 7.2001 11.3374 7.2001 12.0001C7.2001 12.6628 7.73736 13.2001 8.4001 13.2001ZM9.6001 15.6001C9.6001 16.2628 9.06284 16.8001 8.4001 16.8001C7.73736 16.8001 7.2001 16.2628 7.2001 15.6001C7.2001 14.9374 7.73736 14.4001 8.4001 14.4001C9.06284 14.4001 9.6001 14.9374 9.6001 15.6001ZM12.0001 13.2001C12.6628 13.2001 13.2001 12.6628 13.2001 12.0001C13.2001 11.3374 12.6628 10.8001 12.0001 10.8001C11.3374 10.8001 10.8001 11.3374 10.8001 12.0001C10.8001 12.6628 11.3374 13.2001 12.0001 13.2001ZM13.2001 15.6001C13.2001 16.2628 12.6628 16.8001 12.0001 16.8001C11.3374 16.8001 10.8001 16.2628 10.8001 15.6001C10.8001 14.9374 11.3374 14.4001 12.0001 14.4001C12.6628 14.4001 13.2001 14.9374 13.2001 15.6001ZM15.6001 13.2001C16.2628 13.2001 16.8001 12.6628 16.8001 12.0001C16.8001 11.3374 16.2628 10.8001 15.6001 10.8001C14.9374 10.8001 14.4001 11.3374 14.4001 12.0001C14.4001 12.6628 14.9374 13.2001 15.6001 13.2001ZM20.4001 6.6001C20.4001 4.94324 19.057 3.6001 17.4001 3.6001H6.6001C4.94324 3.6001 3.6001 4.94324 3.6001 6.6001V17.4001C3.6001 19.057 4.94324 20.4001 6.6001 20.4001H17.4001C19.057 20.4001 20.4001 19.057 20.4001 17.4001V6.6001ZM4.8001 8.4001H19.2001V17.4001C19.2001 18.3942 18.3942 19.2001 17.4001 19.2001H6.6001C5.60598 19.2001 4.8001 18.3942 4.8001 17.4001V8.4001ZM6.6001 4.8001H17.4001C18.3942 4.8001 19.2001 5.60598 19.2001 6.6001V7.2001H4.8001V6.6001C4.8001 5.60598 5.60598 4.8001 6.6001 4.8001Z" fill="#3180E8"/>
</svg>
