<svg
        width="56"
        height="56"
        viewBox="0 0 56 56"
        fill="none"
        xmlns="http://www.w3.org/2000/svg">
    <path
            d="M46.7945 46.073C46.9523 46.2425 47.0748 46.4417 47.1551 46.6589C47.2354 46.8761 47.2717 47.1071 47.262 47.3385C47.2524 47.5699 47.1969 47.797 47.0988 48.0068C47.0007 48.2166 46.8619 48.4048 46.6905 48.5605C46.5192 48.7163 46.3186 48.8365 46.1004 48.9141C45.8822 48.9918 45.6508 49.0253 45.4196 49.0129C45.1883 49.0005 44.9618 48.9422 44.7533 48.8416C44.5447 48.741 44.3581 48.6 44.2045 48.4268L32.8295 35.9252C30.7724 35.109 28.5424 34.8262 26.3467 35.1031C24.151 35.38 22.061 36.2076 20.271 37.509C20.0856 37.6491 19.8742 37.7509 19.649 37.8084C19.4238 37.8659 19.1895 37.878 18.9596 37.8439C18.7297 37.8099 18.5089 37.7304 18.31 37.6101C18.1112 37.4898 17.9383 37.3311 17.8015 37.1433C17.6646 36.9555 17.5666 36.7422 17.513 36.5161C17.4595 36.29 17.4515 36.0554 17.4895 35.8262C17.5276 35.5969 17.611 35.3775 17.7347 35.1808C17.8585 34.9841 18.0202 34.8141 18.2104 34.6805C21.0508 32.6037 24.4808 31.4892 27.9995 31.4999C28.2795 31.4999 28.5573 31.4999 28.8351 31.5218L22.9463 25.0446C19.4409 25.8136 16.1568 27.3712 13.3432 29.599C13.1628 29.7427 12.9557 29.8493 12.734 29.9126C12.5122 29.976 12.2801 29.995 12.051 29.9683C11.8219 29.9417 11.6003 29.87 11.399 29.7575C11.1976 29.6449 11.0206 29.4936 10.8779 29.3124C10.5895 28.9496 10.4567 28.4872 10.5088 28.0267C10.5609 27.5661 10.7935 27.1451 11.1557 26.8558C13.868 24.7105 16.9647 23.1024 20.2798 22.1177L15.1741 16.4937C11.9877 17.7878 9.01609 19.558 6.36071 21.7437C6.1826 21.8896 5.9775 21.999 5.75711 22.0657C5.53671 22.1323 5.30535 22.1549 5.07622 22.1322C4.84709 22.1094 4.62469 22.0418 4.4217 21.9331C4.21872 21.8244 4.03914 21.6768 3.89321 21.4987C3.74728 21.3205 3.63786 21.1154 3.57119 20.895C3.50453 20.6747 3.48192 20.4433 3.50467 20.2142C3.55062 19.7514 3.77851 19.3259 4.13821 19.0312C6.73868 16.8964 9.61393 15.1203 12.687 13.7505L9.20446 9.92678C9.04667 9.75728 8.92409 9.55814 8.84382 9.34092C8.76356 9.12369 8.72721 8.8927 8.73687 8.66132C8.74654 8.42995 8.80204 8.20279 8.90014 7.99302C8.99824 7.78324 9.13701 7.59503 9.30839 7.43928C9.47977 7.28353 9.68036 7.16335 9.89853 7.0857C10.1167 7.00804 10.3481 6.97446 10.5794 6.9869C10.8106 6.99934 11.0371 7.05756 11.2457 7.15817C11.4542 7.25878 11.6408 7.39979 11.7945 7.57303L46.7945 46.073ZM27.9995 41.9999C27.4803 41.9999 26.9728 42.1539 26.5411 42.4423C26.1094 42.7307 25.773 43.1407 25.5743 43.6204C25.3756 44.1 25.3236 44.6278 25.4249 45.137C25.5262 45.6462 25.7762 46.1139 26.1433 46.4811C26.5104 46.8482 26.9781 47.0982 27.4873 47.1995C27.9965 47.3007 28.5243 47.2488 29.004 47.0501C29.4837 46.8514 29.8936 46.5149 30.1821 46.0833C30.4705 45.6516 30.6245 45.1441 30.6245 44.6249C30.6245 43.9287 30.3479 43.261 29.8556 42.7687C29.3633 42.2765 28.6957 41.9999 27.9995 41.9999ZM51.8607 19.0312C47.8924 15.7812 43.3026 13.3755 38.3722 11.9612C33.4418 10.547 28.2746 10.1539 23.187 10.8062C22.9549 10.8298 22.7299 10.8997 22.5252 11.0116C22.3205 11.1235 22.1402 11.2752 21.995 11.4578C21.8498 11.6404 21.7425 11.8502 21.6796 12.0749C21.6166 12.2995 21.5992 12.5345 21.6284 12.7659C21.6576 12.9974 21.7327 13.2207 21.8494 13.4227C21.9662 13.6247 22.1221 13.8013 22.3081 13.9421C22.4941 14.083 22.7063 14.1852 22.9324 14.2429C23.1584 14.3005 23.3938 14.3123 23.6245 14.2777C25.0755 14.0928 26.5367 14 27.9995 13.9999C35.8892 14.0042 43.5345 16.7379 49.6382 21.7371C49.997 22.0318 50.4583 22.1719 50.9204 22.1266C51.3825 22.0813 51.8077 21.8542 52.1024 21.4954C52.3972 21.1365 52.5373 20.6753 52.4919 20.2132C52.4466 19.7511 52.2195 19.3259 51.8607 19.0312ZM42.6557 29.599C42.8358 29.7418 43.0423 29.8477 43.2633 29.9107C43.4844 29.9737 43.7157 29.9925 43.944 29.9661C44.1723 29.9397 44.3932 29.8685 44.594 29.7568C44.7949 29.645 44.9717 29.4947 45.1145 29.3146C45.2573 29.1345 45.3632 28.928 45.4262 28.707C45.4892 28.4859 45.508 28.2546 45.4816 28.0263C45.4552 27.798 45.384 27.5771 45.2723 27.3763C45.1605 27.1754 45.0102 26.9986 44.8301 26.8558C41.5203 24.2365 37.646 22.4241 33.5141 21.5621C33.2867 21.5098 33.0512 21.5035 32.8213 21.5436C32.5914 21.5837 32.3719 21.6694 32.1756 21.7955C31.9793 21.9217 31.8103 22.0859 31.6784 22.2784C31.5465 22.4709 31.4544 22.6878 31.4076 22.9164C31.3607 23.145 31.3601 23.3806 31.4057 23.6095C31.4513 23.8383 31.5422 24.0557 31.673 24.2489C31.8039 24.4421 31.9721 24.6072 32.1677 24.7345C32.3632 24.8617 32.5823 24.9486 32.812 24.9899C36.4065 25.7412 39.7768 27.3192 42.6557 29.599Z"
            fill="#323E44" />
</svg>