<svg width="56" height="56" viewBox="0 0 56 56" fill="none" xmlns="http://www.w3.org/2000/svg">
<path d="M28.0001 5.6001C40.3713 5.6001 50.4001 15.6289 50.4001 28.0001C50.4001 40.3713 40.3713 50.4001 28.0001 50.4001C15.6289 50.4001 5.6001 40.3713 5.6001 28.0001C5.6001 15.6289 15.6289 5.6001 28.0001 5.6001ZM28.0001 8.4001C17.1753 8.4001 8.4001 17.1753 8.4001 28.0001C8.4001 38.8249 17.1753 47.6001 28.0001 47.6001C38.8249 47.6001 47.6001 38.8249 47.6001 28.0001C47.6001 17.1753 38.8249 8.4001 28.0001 8.4001ZM37.4037 21.4101C37.8897 21.8961 37.9437 22.6505 37.5657 23.1962L37.4037 23.39L26.1901 34.6037C25.7041 35.0897 24.9497 35.1437 24.404 34.7657L24.2101 34.6037L18.6101 29.0037C18.0634 28.4569 18.0634 27.5705 18.6101 27.0238C19.0961 26.5378 19.8505 26.4838 20.3962 26.8618L20.59 27.0238L25.2001 31.6345L35.4238 21.4101C35.9705 20.8634 36.8569 20.8634 37.4037 21.4101Z" fill="#3180E8"/>
</svg>
