<svg width="24" height="24" viewBox="0 0 24 24" fill="none" xmlns="http://www.w3.org/2000/svg">
<path d="M7.36841 20.2981C6.89746 20.2981 6.49527 20.1314 6.16183 19.7979C5.8284 19.4645 5.66168 19.0623 5.66168 18.5914V6.06061H5.38378C5.18955 6.06061 5.02401 5.99218 4.88716 5.85533C4.75031 5.71847 4.68188 5.55373 4.68188 5.36111C4.68188 5.16849 4.75031 5.00375 4.88716 4.86688C5.02401 4.73003 5.18955 4.66161 5.38378 4.66161H9.04048V4.64911C9.04048 4.42283 9.12253 4.22763 9.28663 4.06353C9.45074 3.89943 9.64753 3.81738 9.87703 3.81738H14.1482C14.3745 3.81738 14.5697 3.89943 14.7338 4.06353C14.8979 4.22763 14.9799 4.42283 14.9799 4.64911V4.66161H18.6435C18.8331 4.66161 18.9964 4.73016 19.1333 4.86726C19.2701 5.00434 19.3385 5.16816 19.3385 5.35871C19.3385 5.55292 19.27 5.71847 19.1329 5.85533C18.9958 5.99218 18.832 6.06061 18.6414 6.06061H18.3587V18.5914C18.3587 19.0623 18.192 19.4645 17.8586 19.7979C17.5252 20.1314 17.123 20.2981 16.652 20.2981H7.36841ZM16.9597 6.06061H7.06068V18.5914C7.06068 18.6811 7.08954 18.7548 7.14724 18.8125C7.20494 18.8702 7.27866 18.8991 7.36841 18.8991H16.652C16.7418 18.8991 16.8155 18.8702 16.8732 18.8125C16.9309 18.7548 16.9597 18.6811 16.9597 18.5914V6.06061ZM9.50493 16.927H10.904V8.02791H9.50493V16.927ZM13.1165 16.927H14.5155V8.02791H13.1165V16.927Z" fill="#EB2D4B"/>
</svg>
