<svg width="24" height="24" viewBox="0 0 24 24" fill="none" xmlns="http://www.w3.org/2000/svg">
<path d="M3.40887 15.379C2.96529 15.379 2.56994 15.2054 2.22282 14.8583C1.87571 14.5112 1.70215 14.1159 1.70215 13.6723V12.095C1.70215 11.9922 1.71198 11.8822 1.73165 11.7647C1.75132 11.6473 1.77834 11.5406 1.81272 11.4444L4.6387 4.8239C4.77416 4.5026 5.00899 4.23532 5.34317 4.02205C5.67737 3.80878 6.02024 3.70215 6.37177 3.70215H16.6877V15.379L11.1252 20.9117C10.913 21.1239 10.6728 21.2559 10.4045 21.3078C10.1363 21.3598 9.88692 21.3224 9.65647 21.1958C9.42602 21.0692 9.26097 20.8758 9.1613 20.6155C9.06161 20.3553 9.0496 20.0745 9.12525 19.7732L10.1089 15.379H3.40887ZM15.2887 14.7886V5.10115H6.33002C6.25951 5.10115 6.18739 5.12038 6.11367 5.15885C6.03994 5.19732 5.98384 5.26142 5.94537 5.35117L3.10115 11.9861V13.6723C3.10115 13.762 3.13 13.8358 3.1877 13.8935C3.2454 13.9512 3.31912 13.98 3.40887 13.98H11.8636L10.6425 19.4204L15.2887 14.7886ZM19.5713 3.70215C20.0407 3.70215 20.4425 3.86927 20.7767 4.2035C21.1109 4.53773 21.278 4.93952 21.278 5.40887V13.6723C21.278 14.1416 21.1109 14.5434 20.7767 14.8777C20.4425 15.2119 20.0407 15.379 19.5713 15.379H16.6877L16.6877 13.98H19.5713C19.6611 13.98 19.7348 13.9512 19.7925 13.8935C19.8502 13.8358 19.879 13.762 19.879 13.6723V5.40887C19.879 5.31912 19.8502 5.2454 19.7925 5.1877C19.7348 5.13 19.6611 5.10115 19.5713 5.10115H16.6877L16.6877 3.70215H19.5713Z" fill="#EB2D4B"/>
</svg>
