<svg width="24" height="24" viewBox="0 0 24 24" fill="none" xmlns="http://www.w3.org/2000/svg">
<path d="M18.6 20.3987C18.9314 20.3987 19.2 20.6673 19.2 20.9987C19.2 21.2933 18.9878 21.5382 18.7079 21.589L18.6 21.5987H5.40005C5.06868 21.5987 4.80005 21.3301 4.80005 20.9987C4.80005 20.7042 5.0123 20.4592 5.2922 20.4084L5.40005 20.3987H18.6ZM12.0002 2.40137C12.2948 2.40137 12.5397 2.61377 12.5904 2.89369L12.6 3.00154L12.5952 17.1542L16.9697 12.7762C17.1778 12.5677 17.5011 12.5443 17.7351 12.706L17.8183 12.7754C18.0267 12.9835 18.0502 13.3068 17.8884 13.5408L17.819 13.6239L12.429 19.0239C12.342 19.1111 12.2349 19.1659 12.1225 19.1883L11.9953 19.2C11.8022 19.2 11.6304 19.1087 11.5207 18.9669L6.17268 13.6246C5.9382 13.3905 5.93793 13.0106 6.17208 12.7761C6.38021 12.5676 6.7035 12.5443 6.93746 12.7061L7.02061 12.7755L11.3952 17.1446L11.4 3.00119C11.4001 2.66982 11.6689 2.40137 12.0002 2.40137Z" fill="#3180E8"/>
</svg>
