<svg width="24" height="24" viewBox="0 0 24 24" fill="none" xmlns="http://www.w3.org/2000/svg">
<rect width="24" height="24" rx="12" fill="#3180E8"/>
<path d="M17.7451 6.34151C16.8233 5.37204 15.2837 5.35262 14.3378 6.29853L6.83793 13.798C6.57566 14.0603 6.39363 14.3919 6.31319 14.754L5.61109 17.9139C5.58143 18.0474 5.62203 18.1868 5.71875 18.2835C5.81547 18.3802 5.95489 18.4208 6.0884 18.3911L9.22951 17.6926C9.60346 17.6094 9.94594 17.4214 10.2168 17.1505L17.7032 9.66402C18.616 8.7512 18.6346 7.27705 17.7451 6.34151ZM14.9035 6.86423C15.5314 6.23631 16.5534 6.2492 17.1653 6.89276C17.7558 7.5138 17.7435 8.49238 17.1375 9.09834L16.6005 9.63535L14.3664 7.40124L14.9035 6.86423ZM13.8007 7.96691L16.0348 10.201L9.65113 16.5848C9.48781 16.7481 9.28131 16.8615 9.05585 16.9117L6.5284 17.4737L7.09414 14.9275C7.14158 14.714 7.24893 14.5184 7.4036 14.3637L13.8007 7.96691Z" fill="white"/>
</svg>
