<svg width="201" height="200" viewBox="0 0 201 200" fill="none" xmlns="http://www.w3.org/2000/svg">
<path opacity="0.3" d="M30.1434 151.713C35.5834 164.988 44.4534 167.751 50.6897 164.988C62.7505 159.644 94.0802 153.673 126.257 167.708C168.873 186.296 177.941 158.251 164.34 129.884C150.739 101.516 146.129 72.8288 161.808 57.0237C177.487 41.2186 156.969 16.4937 120.532 42.2306C96.9842 58.8627 79.7031 55.1592 70.4232 50.4574C61.6772 46.0261 51.9506 41.3934 42.8377 45.0106C31.7802 49.3999 27.4232 58.9161 44.2467 80.1754C68.087 110.302 17.9489 121.957 30.1434 151.713Z" fill="url(#paint0_linear_1233_33134)"/>
<path d="M52.2939 87.0459H136.957V152.157C136.957 152.289 136.904 152.417 136.811 152.51C136.717 152.604 136.59 152.657 136.457 152.657H52.7939C52.6613 152.657 52.5342 152.604 52.4404 152.51C52.3466 152.417 52.2939 152.289 52.2939 152.157V87.0459Z" fill="#78CFB1"/>
<path d="M115.718 61.5305H76.3512L52.2939 87.0458H136.957L115.718 61.5305Z" fill="#308567"/>
<path d="M60.3127 51.3243L76.3509 61.5305L52.2937 87.0458L34.0684 73.1946L60.3127 51.3243Z" fill="#39A07C"/>
<path d="M131.756 51.3243L115.718 61.5305L136.957 87.0458L158 73.1946L131.756 51.3243Z" fill="#39A07C"/>
<path d="M86.6934 51.8462C87.1459 51.6316 87.4981 51.2504 87.6762 50.7822C87.8542 50.3141 87.8445 49.7952 87.649 49.3341L80.4341 32.3213C80.3319 32.0803 80.182 31.8625 79.9935 31.6809C79.8049 31.4993 79.5816 31.3578 79.337 31.2647C79.0923 31.1716 78.8314 31.129 78.5699 31.1394C78.3083 31.1498 78.0516 31.2129 77.8151 31.3251L76.425 31.9842C76.1885 32.0963 75.9772 32.2551 75.8036 32.4511C75.63 32.647 75.4979 32.876 75.4151 33.1243C75.3323 33.3726 75.3006 33.6351 75.3218 33.896C75.3431 34.1569 75.4169 34.4108 75.5388 34.6424L84.1436 50.996C84.3768 51.4393 84.7724 51.7753 85.2475 51.9337C85.7227 52.0921 86.2408 52.0608 86.6934 51.8462Z" fill="#308567"/>
<path d="M95.7386 50.1969C96.0661 50.1736 96.372 50.0246 96.5923 49.781C96.8126 49.5375 96.9302 49.2182 96.9207 48.89L96.5643 36.7784C96.5592 36.6068 96.5195 36.4381 96.4476 36.2822C96.3756 36.1264 96.2729 35.9867 96.1456 35.8716C96.0183 35.7565 95.8691 35.6683 95.7068 35.6123C95.5446 35.5564 95.3727 35.5338 95.2015 35.546L94.1952 35.6177C94.0241 35.6299 93.8571 35.6765 93.7045 35.7548C93.5518 35.8332 93.4166 35.9415 93.3069 36.0735C93.1972 36.2054 93.1153 36.3581 93.0661 36.5225C93.0169 36.6869 93.0015 36.8595 93.0207 37.03L94.3834 49.07C94.4202 49.3964 94.5818 49.6959 94.8344 49.9059C95.087 50.1159 95.4109 50.2202 95.7386 50.1969Z" fill="#308567"/>
<path d="M102.722 54.6741C103.623 55.195 104.888 54.717 105.589 53.5903L118.046 33.585C118.79 32.3899 118.614 30.9333 117.658 30.3808L116.326 29.6108C115.37 29.0582 114.02 29.632 113.355 30.8731L102.231 51.6483C101.604 52.8184 101.821 54.1531 102.722 54.6741Z" fill="#308567"/>
<defs>
<linearGradient id="paint0_linear_1233_33134" x1="188.464" y1="215.965" x2="61.2818" y2="58.5475" gradientUnits="userSpaceOnUse">
<stop stop-color="#798287"/>
<stop offset="1" stop-color="#D5E1E7"/>
</linearGradient>
</defs>
</svg>
