<svg width="24" height="24" viewBox="0 0 24 24" fill="none" xmlns="http://www.w3.org/2000/svg">
<path d="M20.6176 3.51227C19.2349 2.05806 16.9256 2.02893 15.5067 3.4478L4.25689 14.6971C3.86349 15.0904 3.59045 15.5878 3.46978 16.1309L2.41664 20.8708C2.37214 21.0711 2.43305 21.2802 2.57813 21.4253C2.72321 21.5703 2.93234 21.6312 3.1326 21.5866L7.84427 20.5389C8.40519 20.4141 8.91892 20.1321 9.32523 19.7257L20.5548 8.49604C21.924 7.12679 21.9519 4.91558 20.6176 3.51227ZM16.3552 4.29635C17.2971 3.35446 18.8301 3.3738 19.748 4.33915C20.6337 5.2707 20.6152 6.73857 19.7063 7.64751L18.9008 8.45302L15.5496 5.10186L16.3552 4.29635ZM14.7011 5.95037L18.0523 9.30155L8.4767 18.8772C8.23172 19.1222 7.92197 19.2923 7.58378 19.3675L3.7926 20.2106L4.64121 16.3912C4.71237 16.0709 4.8734 15.7776 5.1054 15.5456L14.7011 5.95037Z" fill="#3180E8"/>
</svg>
