<svg
        width="49"
        height="48"
        viewBox="0 0 49 48"
        fill="none"
        xmlns="http://www.w3.org/2000/svg">
    <rect
            x="0.5"
            width="48"
            height="48"
            rx="16"
            fill="url(#paint0_linear_33702_47229)" />
    <path
            d="M21.2006 12.7622L22.4028 15.4365C23.0465 16.8683 22.7073 18.551 21.5592 19.6216L19.5668 21.4795C19.5086 21.5338 19.4717 21.6072 19.4628 21.6863C19.4037 22.2158 19.7627 23.247 20.5897 24.6795C21.1911 25.7211 21.7354 26.4516 22.1987 26.8625C22.5215 27.1487 22.6992 27.2106 22.7749 27.1881L25.4553 26.3686C26.9561 25.9098 28.5825 26.4569 29.5008 27.7296L31.2084 30.0963C32.2833 31.5859 32.09 33.6409 30.7563 34.904L29.5745 36.0232C28.2992 37.2309 26.4838 37.6809 24.7921 37.2088C21.12 36.1838 17.8276 33.085 14.8785 27.9769C11.9252 22.8617 10.8889 18.4557 11.8442 14.76C12.2814 13.0687 13.5695 11.7282 15.2421 11.224L16.7981 10.755C18.5614 10.2235 20.4454 11.0825 21.2006 12.7622ZM17.3753 12.6699L15.8193 13.1389C14.8158 13.4414 14.0429 14.2457 13.7806 15.2605C12.977 18.3692 13.8955 22.2743 16.6105 26.9769C19.3219 31.6731 22.2405 34.4201 25.3298 35.2824C26.3448 35.5657 27.4341 35.2957 28.1992 34.5711L29.381 33.4519C29.9873 32.8777 30.0751 31.9436 29.5866 31.2665L27.8789 28.8999C27.4615 28.3214 26.7222 28.0727 26.0401 28.2812L23.3529 29.1027C21.7933 29.5677 20.3778 28.3124 18.8576 25.6795C17.8332 23.9051 17.3558 22.5336 17.4752 21.4643C17.5371 20.9104 17.7952 20.3969 18.2028 20.0168L20.1952 18.1589C20.717 17.6722 20.8712 16.9074 20.5787 16.2566L19.3764 13.5823C19.0332 12.8187 18.1768 12.4283 17.3753 12.6699ZM31.3646 10.6718L31.5003 10.6627C32.0066 10.6627 32.425 11.0389 32.4912 11.527L32.5003 11.6627L32.4995 16.0011L36.836 16.0022C37.3422 16.0022 37.7606 16.3784 37.8268 16.8665L37.836 17.0022C37.836 17.5085 37.4598 17.9269 36.9717 17.9931L36.836 18.0022L32.4995 18.0011L32.5003 22.3333C32.5003 22.8396 32.1241 23.258 31.636 23.3242L31.5003 23.3333C30.9941 23.3333 30.5757 22.9571 30.5094 22.469L30.5003 22.3333L30.4995 18.0011L26.1647 18.0022C25.6584 18.0022 25.24 17.626 25.1738 17.1379L25.1647 17.0022C25.1647 16.496 25.5409 16.0776 26.029 16.0114L26.1647 16.0022L30.4995 16.0011L30.5003 11.6627C30.5003 11.1564 30.8765 10.738 31.3646 10.6718L31.5003 10.6627L31.3646 10.6718Z"
            fill="white" />
    <defs>
        <linearGradient
                id="paint0_linear_33702_47229"
                x1="0.5"
                y1="0"
                x2="48.5"
                y2="48"
                gradientUnits="userSpaceOnUse">
            <stop stop-color="#FF7875" />
            <stop
                    offset="1"
                    stop-color="#F5222D" />
        </linearGradient>
    </defs>
</svg>