<svg width="49" height="48" viewBox="0 0 49 48" fill="none" xmlns="http://www.w3.org/2000/svg">
<rect x="0.5" width="48" height="48" rx="16" fill="url(#paint0_linear_33550_8763)"/>
<path d="M23.4657 18.2343C23.7781 18.5468 23.7781 19.0533 23.4657 19.3657L20.6657 22.1656C20.3632 22.468 19.8763 22.479 19.5605 22.1906L18.3605 21.0946C18.0342 20.7966 18.0113 20.2906 18.3093 19.9644C18.6073 19.6381 19.1133 19.6152 19.4395 19.9132L20.075 20.4935L22.3343 18.2343C22.6467 17.9219 23.1533 17.9219 23.4657 18.2343ZM23.4657 27.3657C23.7781 27.0533 23.7781 26.5468 23.4657 26.2343C23.1533 25.9219 22.6467 25.9219 22.3343 26.2343L20.075 28.4935L19.4395 27.9132C19.1133 27.6152 18.6073 27.6381 18.3093 27.9644C18.0113 28.2906 18.0342 28.7966 18.3605 29.0946L19.5605 30.1906C19.8763 30.479 20.3632 30.468 20.6657 30.1656L23.4657 27.3657ZM26.1 19.2C25.6582 19.2 25.3 19.5582 25.3 20C25.3 20.4418 25.6582 20.8 26.1 20.8H30.1C30.5418 20.8 30.9 20.4418 30.9 20C30.9 19.5582 30.5418 19.2 30.1 19.2H26.1ZM13.3 17.6C13.3 14.949 15.449 12.8 18.1 12.8H30.9C33.551 12.8 35.7 14.949 35.7 17.6V23.3616C35.1899 23.1013 34.6541 22.8907 34.1 22.7336V17.6C34.1 15.8327 32.6673 14.4 30.9 14.4H18.1C16.3327 14.4 14.9 15.8327 14.9 17.6V30.4C14.9 32.1673 16.3327 33.6 18.1 33.6H23.2336C23.3903 34.1528 23.6007 34.6887 23.8616 35.2H18.1C15.449 35.2 13.3 33.051 13.3 30.4V17.6ZM25.5149 30.2716C25.9281 30.1659 26.316 29.9787 26.6558 29.721C26.9956 29.4633 27.2804 29.1403 27.4936 28.7709C27.7067 28.4015 27.8439 27.9932 27.897 27.5701C27.9502 27.1469 27.9182 26.7174 27.8029 26.3068L27.5533 25.4156C27.9608 25.1011 28.4019 24.8328 28.8685 24.6156L29.4077 25.1884C29.7069 25.5056 30.0677 25.7583 30.468 25.9311C30.8683 26.1038 31.2997 26.1929 31.7357 26.1929C32.1717 26.1929 32.6031 26.1038 33.0035 25.9311C33.4038 25.7583 33.7646 25.5056 34.0637 25.1884L34.5789 24.6396C35.0548 24.8633 35.5032 25.1414 35.9149 25.4684L35.7133 26.1436C35.5885 26.5613 35.5504 27 35.6012 27.433C35.652 27.8659 35.7907 28.2839 36.0089 28.6613C36.227 29.0387 36.5199 29.3675 36.8697 29.6277C37.2195 29.8878 37.6187 30.0737 38.0429 30.174L38.6013 30.3052C38.6367 30.5999 38.6544 30.8964 38.6541 31.1932C38.6541 31.4428 38.6413 31.6892 38.6173 31.9324L37.8813 32.1212C37.468 32.2267 37.08 32.4138 36.74 32.6715C36.4 32.9291 36.115 33.2521 35.9017 33.6215C35.6884 33.9909 35.5511 34.3992 35.4978 34.8225C35.4446 35.2457 35.4765 35.6753 35.5917 36.086L35.8413 36.9756C35.4345 37.291 34.9933 37.5594 34.5261 37.7756L33.9869 37.2028C33.6878 36.8859 33.3271 36.6334 32.9269 36.4608C32.5268 36.2882 32.0955 36.1992 31.6597 36.1992C31.2239 36.1992 30.7927 36.2882 30.3926 36.4608C29.9924 36.6334 29.6317 36.8859 29.3325 37.2028L28.8189 37.7596C28.3437 37.5348 27.8955 37.2567 27.4829 36.9308L27.6845 36.254C27.8094 35.8364 27.8475 35.3976 27.7967 34.9647C27.7459 34.5318 27.6072 34.1138 27.389 33.7364C27.1709 33.359 26.8779 33.0301 26.5282 32.77C26.1784 32.5099 25.7791 32.3239 25.3549 32.2236L24.7965 32.0908C24.7611 31.7967 24.7435 31.5007 24.7437 31.2044C24.7437 30.9548 24.7565 30.7084 24.7805 30.4652L25.5149 30.2716ZM33.2989 31.1996C33.2989 30.7753 33.1304 30.3683 32.8303 30.0683C32.5303 29.7682 32.1233 29.5996 31.6989 29.5996C31.3825 29.5996 31.0731 29.6935 30.81 29.8693C30.5469 30.0451 30.3418 30.295 30.2207 30.5873C30.0996 30.8797 30.0679 31.2014 30.1297 31.5118C30.1914 31.8221 30.3438 32.1072 30.5676 32.331C30.7913 32.5548 31.0764 32.7071 31.3868 32.7689C31.6972 32.8306 32.0189 32.7989 32.3112 32.6778C32.6036 32.5567 32.8535 32.3517 33.0293 32.0885C33.2051 31.8254 33.2989 31.5161 33.2989 31.1996Z" fill="white"/>
<defs>
<linearGradient id="paint0_linear_33550_8763" x1="0.5" y1="0" x2="48.5" y2="48" gradientUnits="userSpaceOnUse">
<stop stop-color="#FFD591"/>
<stop offset="1" stop-color="#FA8C16"/>
</linearGradient>
</defs>
</svg>
