<svg width="24" height="24" viewBox="0 0 24 24" fill="none" xmlns="http://www.w3.org/2000/svg">
<path d="M1.79834 19.3077V17.0846C1.79834 16.5693 1.93136 16.1093 2.19739 15.7049C2.46341 15.3004 2.81867 14.9857 3.26319 14.7608C4.21354 14.2959 5.16916 13.9376 6.13004 13.6856C7.09094 13.4337 8.14703 13.3078 9.29832 13.3078C10.4496 13.3078 11.5057 13.4337 12.4666 13.6856C13.4275 13.9376 14.3831 14.2959 15.3334 14.7608C15.778 14.9857 16.1332 15.3004 16.3992 15.7049C16.6653 16.1093 16.7983 16.5693 16.7983 17.0846V19.3077H1.79834ZM18.7983 19.3077V16.9616C18.7983 16.3052 18.6375 15.6796 18.3161 15.0848C17.9947 14.4901 17.5387 13.9798 16.9483 13.5539C17.6188 13.6539 18.2553 13.8087 18.8579 14.0183C19.4604 14.228 20.0354 14.4757 20.5829 14.7616C21.0995 15.0372 21.4986 15.3621 21.78 15.7362C22.0614 16.1103 22.2021 16.5188 22.2021 16.9616V19.3077H18.7983ZM9.29832 11.6923C8.33583 11.6923 7.51188 11.3496 6.82646 10.6642C6.14105 9.97879 5.79834 9.15484 5.79834 8.19236C5.79834 7.22986 6.14105 6.40591 6.82646 5.72051C7.51188 5.03509 8.33583 4.69238 9.29832 4.69238C10.2608 4.69238 11.0847 5.03509 11.7702 5.72051C12.4556 6.40591 12.7983 7.22986 12.7983 8.19236C12.7983 9.15484 12.4556 9.97879 11.7702 10.6642C11.0847 11.3496 10.2608 11.6923 9.29832 11.6923ZM17.9328 8.19236C17.9328 9.15484 17.5901 9.97879 16.9047 10.6642C16.2193 11.3496 15.3953 11.6923 14.4329 11.6923C14.32 11.6923 14.1765 11.6795 14.0021 11.6539C13.8278 11.6282 13.6842 11.6 13.5714 11.5693C13.9657 11.0951 14.2688 10.5692 14.4806 9.99133C14.6924 9.4135 14.7983 8.81344 14.7983 8.19116C14.7983 7.56889 14.6903 6.97122 14.4742 6.39813C14.2582 5.82507 13.9573 5.29751 13.5714 4.81546C13.7149 4.76418 13.8585 4.73084 14.0021 4.71546C14.1457 4.70008 14.2893 4.69238 14.4329 4.69238C15.3953 4.69238 16.2193 5.03509 16.9047 5.72051C17.5901 6.40591 17.9328 7.22986 17.9328 8.19236ZM3.29831 17.8077H15.2983V17.0846C15.2983 16.8757 15.2461 16.6898 15.1416 16.5269C15.0371 16.3641 14.8714 16.2218 14.6445 16.1C13.8214 15.6757 12.9739 15.3542 12.1022 15.1356C11.2304 14.917 10.2957 14.8077 9.29832 14.8077C8.30088 14.8077 7.36626 14.917 6.49446 15.1356C5.62268 15.3542 4.77525 15.6757 3.95216 16.1C3.72525 16.2218 3.55954 16.3641 3.45504 16.5269C3.35056 16.6898 3.29831 16.8757 3.29831 17.0846V17.8077ZM9.29832 10.1924C9.84832 10.1924 10.3191 9.99653 10.7108 9.60486C11.1025 9.21319 11.2983 8.74236 11.2983 8.19236C11.2983 7.64236 11.1025 7.17153 10.7108 6.77986C10.3191 6.38819 9.84832 6.19236 9.29832 6.19236C8.74832 6.19236 8.27748 6.38819 7.88582 6.77986C7.49415 7.17153 7.29832 7.64236 7.29832 8.19236C7.29832 8.74236 7.49415 9.21319 7.88582 9.60486C8.27748 9.99653 8.74832 10.1924 9.29832 10.1924Z" fill="#39A07C"/>
</svg>
