<svg width="25" height="24" viewBox="0 0 25 24" fill="none" xmlns="http://www.w3.org/2000/svg">
<path d="M3.31738 15.155V3.38465C3.31738 3.134 3.40216 2.9239 3.57171 2.75435C3.74126 2.5848 3.95136 2.50002 4.20201 2.50002H16.6635C16.9141 2.50002 17.1242 2.5848 17.2938 2.75435C17.4633 2.9239 17.5481 3.134 17.5481 3.38465V11.8461C17.5481 12.0968 17.4633 12.3069 17.2938 12.4764C17.1242 12.646 16.9141 12.7307 16.6635 12.7307H6.85581L4.10008 15.4865C3.95648 15.6301 3.79013 15.6644 3.60103 15.5894C3.41193 15.5144 3.31738 15.3696 3.31738 15.155ZM7.74043 17.1153C7.48978 17.1153 7.27968 17.0305 7.11013 16.861C6.94058 16.6914 6.85581 16.4814 6.85581 16.2307V14.7307H19.2308L19.5481 15.0481V6H21.0481C21.2987 6 21.5088 6.08477 21.6784 6.25432C21.8479 6.42387 21.9327 6.63396 21.9327 6.8846V19.5404C21.9327 19.7544 21.8381 19.8989 21.649 19.9739C21.4599 20.0489 21.2936 20.0146 21.15 19.871L18.3943 17.1153H7.74043Z" fill="#3180E8"/>
</svg>
