<svg width="49" height="48" viewBox="0 0 49 48" fill="none" xmlns="http://www.w3.org/2000/svg">
<rect x="0.5" width="48" height="48" rx="16" fill="url(#paint0_linear_33550_8747)"/>
<path d="M23.4657 19.3657C23.7781 19.0533 23.7781 18.5467 23.4657 18.2343C23.1533 17.9219 22.6467 17.9219 22.3343 18.2343L20.075 20.4935L19.4395 19.9131C19.1133 19.6152 18.6073 19.6381 18.3093 19.9643C18.0113 20.2906 18.0342 20.7966 18.3605 21.0946L19.5605 22.1906C19.8763 22.479 20.3632 22.468 20.6657 22.1655L23.4657 19.3657ZM23.4657 26.2343C23.7781 26.5467 23.7781 27.0533 23.4657 27.3657L20.6657 30.1655C20.3632 30.468 19.8763 30.479 19.5605 30.1906L18.3605 29.0946C18.0342 28.7966 18.0113 28.2906 18.3093 27.9643C18.6073 27.6381 19.1133 27.6152 19.4395 27.9131L20.075 28.4935L22.3343 26.2343C22.6467 25.9219 23.1533 25.9219 23.4657 26.2343ZM26.1 27.2C25.6582 27.2 25.3 27.5582 25.3 28C25.3 28.4418 25.6582 28.8 26.1 28.8H30.1C30.5418 28.8 30.9 28.4418 30.9 28C30.9 27.5582 30.5418 27.2 30.1 27.2H26.1ZM25.3 20C25.3 19.5582 25.6582 19.2 26.1 19.2H30.1C30.5418 19.2 30.9 19.5582 30.9 20C30.9 20.4418 30.5418 20.8 30.1 20.8H26.1C25.6582 20.8 25.3 20.4418 25.3 20ZM18.1 12.8C15.449 12.8 13.3 14.949 13.3 17.6V30.4C13.3 33.051 15.449 35.2 18.1 35.2H30.9C33.551 35.2 35.7 33.051 35.7 30.4V17.6C35.7 14.949 33.551 12.8 30.9 12.8H18.1ZM14.9 17.6C14.9 15.8327 16.3327 14.4 18.1 14.4H30.9C32.6673 14.4 34.1 15.8327 34.1 17.6V30.4C34.1 32.1673 32.6673 33.6 30.9 33.6H18.1C16.3327 33.6 14.9 32.1673 14.9 30.4V17.6Z" fill="white"/>
<defs>
<linearGradient id="paint0_linear_33550_8747" x1="0.5" y1="0" x2="48.5" y2="48" gradientUnits="userSpaceOnUse">
<stop stop-color="#FFADD2"/>
<stop offset="1" stop-color="#EB2F96"/>
</linearGradient>
</defs>
</svg>
