<svg width="25" height="24" viewBox="0 0 25 24" fill="none" xmlns="http://www.w3.org/2000/svg">
<path d="M19.125 4C20.9199 4 22.375 5.45507 22.375 7.25V18.75C22.375 20.5449 20.9199 22 19.125 22H7.625C5.83007 22 4.375 20.5449 4.375 18.75V12.5019C4.84925 12.6996 5.35187 12.8428 5.87509 12.9236L5.875 18.75C5.875 18.9584 5.91143 19.1583 5.97826 19.3437L11.8008 13.643C12.6339 12.8273 13.9425 12.7885 14.8208 13.5266L14.9492 13.6431L20.7714 19.3447C20.8384 19.159 20.875 18.9588 20.875 18.75V7.25C20.875 6.2835 20.0915 5.5 19.125 5.5L13.2986 5.50009C13.2178 4.97687 13.0746 4.47425 12.8769 4H19.125ZM12.9338 14.644L12.8502 14.7148L7.04345 20.4011C7.2254 20.4651 7.42113 20.5 7.625 20.5H19.125C19.3285 20.5 19.5239 20.4653 19.7055 20.4014L13.8997 14.7148C13.6346 14.4553 13.2251 14.4316 12.9338 14.644ZM16.6271 7.5C17.8709 7.5 18.8792 8.50831 18.8792 9.75212C18.8792 10.9959 17.8709 12.0042 16.6271 12.0042C15.3833 12.0042 14.375 10.9959 14.375 9.75212C14.375 8.50831 15.3833 7.5 16.6271 7.5ZM6.875 1C9.91257 1 12.375 3.46243 12.375 6.5C12.375 9.53757 9.91257 12 6.875 12C3.83743 12 1.375 9.53757 1.375 6.5C1.375 3.46243 3.83743 1 6.875 1ZM16.6271 9C16.2117 9 15.875 9.33673 15.875 9.75212C15.875 10.1675 16.2117 10.5042 16.6271 10.5042C17.0425 10.5042 17.3792 10.1675 17.3792 9.75212C17.3792 9.33673 17.0425 9 16.6271 9ZM6.875 2.99923L6.78512 3.00729C6.58103 3.04433 6.4201 3.20527 6.38306 3.40936L6.375 3.49923L6.37465 5.99923L3.87265 6L3.78277 6.00806C3.57868 6.0451 3.41775 6.20603 3.38071 6.41012L3.37265 6.5L3.38071 6.58988C3.41775 6.79397 3.57868 6.9549 3.78277 6.99194L3.87265 7L6.37565 6.99923L6.37611 9.50348L6.38416 9.59336C6.42121 9.79745 6.58214 9.95839 6.78623 9.99543L6.87611 10.0035L6.96598 9.99543C7.17008 9.95839 7.33101 9.79745 7.36805 9.59336L7.37611 9.50348L7.37565 6.99923L9.87957 7L9.96944 6.99194C10.1735 6.9549 10.3345 6.79397 10.3715 6.58988L10.3796 6.5L10.3715 6.41012C10.3345 6.20603 10.1735 6.0451 9.96944 6.00806L9.87957 6L7.37465 5.99923L7.375 3.49923L7.36694 3.40936C7.3299 3.20527 7.16897 3.04433 6.96488 3.00729L6.875 2.99923Z" fill="#39A07C"/>
</svg>
