<svg width="25" height="24" viewBox="0 0 25 24" fill="none" xmlns="http://www.w3.org/2000/svg">
<path d="M6.87497 20.5C6.46601 20.5 6.11377 20.3523 5.81827 20.0568C5.52276 19.7613 5.375 19.409 5.375 19.0001V10.0001C5.375 9.76032 5.42821 9.53565 5.53462 9.32603C5.64102 9.11643 5.78717 8.9424 5.97307 8.80393L11.9731 4.2847C12.1115 4.18342 12.2551 4.10906 12.4038 4.06163C12.5525 4.0142 12.7096 3.99048 12.875 3.99048C13.0404 3.99048 13.1974 4.0142 13.3461 4.06163C13.4948 4.10906 13.6384 4.18342 13.7769 4.2847L19.7769 8.80393C19.9628 8.9424 20.1089 9.11643 20.2153 9.32603C20.3217 9.53565 20.375 9.76032 20.375 10.0001V19.0001C20.375 19.409 20.2272 19.7613 19.9317 20.0568C19.6362 20.3523 19.2839 20.5 18.875 20.5H14.7788V13.8077H10.9711V20.5H6.87497Z" fill="#3180E8"/>
</svg>
