<svg width="32" height="32" viewBox="0 0 32 32" fill="none" xmlns="http://www.w3.org/2000/svg">
<path d="M16.0138 22.1986C16.2704 22.1986 16.4899 22.1073 16.6724 21.9246C16.8548 21.7419 16.9461 21.5213 16.9461 21.2628V15.623C16.9461 15.3694 16.8545 15.151 16.6714 14.968C16.4883 14.785 16.2699 14.6935 16.0162 14.6935C15.7575 14.6935 15.5369 14.785 15.3544 14.968C15.172 15.151 15.0807 15.3694 15.0807 15.623V21.2628C15.0807 21.5213 15.1721 21.7419 15.3549 21.9246C15.5377 22.1073 15.7573 22.1986 16.0138 22.1986ZM15.9964 12.4923C16.2902 12.4923 16.5348 12.3958 16.73 12.2028C16.9254 12.0099 17.023 11.7665 17.023 11.4727C17.023 11.1789 16.9265 10.9344 16.7336 10.7391C16.5406 10.5438 16.2972 10.4461 16.0034 10.4461C15.7097 10.4461 15.4651 10.5426 15.2698 10.7356C15.0745 10.9286 14.9769 11.1719 14.9769 11.4657C14.9769 11.7595 15.0734 12.004 15.2663 12.1993C15.4593 12.3946 15.7026 12.4923 15.9964 12.4923ZM16.003 28.3973C14.2885 28.3973 12.6767 28.0715 11.1675 27.4198C9.65827 26.7682 8.34547 25.8838 7.22907 24.7667C6.11267 23.6496 5.22915 22.3378 4.57851 20.8315C3.92786 19.3252 3.60254 17.7157 3.60254 16.003C3.60254 14.2885 3.92837 12.6767 4.58004 11.1675C5.23168 9.65827 6.11607 8.34547 7.23321 7.22907C8.35032 6.11267 9.66204 5.22915 11.1684 4.57851C12.6747 3.92786 14.2842 3.60254 15.9969 3.60254C17.7114 3.60254 19.3232 3.92837 20.8324 4.58004C22.3416 5.23168 23.6544 6.11607 24.7708 7.23321C25.8872 8.35032 26.7707 9.66204 27.4214 11.1684C28.072 12.6747 28.3973 14.2842 28.3973 15.9969C28.3973 17.7114 28.0715 19.3232 27.4198 20.8324C26.7682 22.3416 25.8838 23.6544 24.7667 24.7708C23.6496 25.8872 22.3378 26.7707 20.8315 27.4214C19.3252 28.072 17.7157 28.3973 16.003 28.3973ZM15.9995 26.532C18.9306 26.532 21.4188 25.5095 23.464 23.4645C25.5093 21.4195 26.532 18.9314 26.532 16.0004C26.532 13.0693 25.5095 10.5811 23.4645 8.53584C21.4195 6.49053 18.9314 5.46787 16.0004 5.46787C13.0693 5.46787 10.5811 6.49038 8.53584 8.53541C6.49053 10.5804 5.46787 13.0685 5.46787 15.9995C5.46787 18.9306 6.49038 21.4188 8.53541 23.464C10.5804 25.5093 13.0685 26.532 15.9995 26.532Z" fill="#3180E8"/>
</svg>
