<svg width="49" height="48" viewBox="0 0 49 48" fill="none" xmlns="http://www.w3.org/2000/svg">
<rect x="0.5" width="48" height="48" rx="16" fill="url(#paint0_linear_33550_8733)"/>
<path d="M20.1667 19C20.1667 19.7364 19.5697 20.3333 18.8333 20.3333C18.097 20.3333 17.5 19.7364 17.5 19C17.5 18.2636 18.097 17.6667 18.8333 17.6667C19.5697 17.6667 20.1667 18.2636 20.1667 19ZM22.5 19C22.5 18.4477 22.9477 18 23.5 18H30.8333C31.3856 18 31.8333 18.4477 31.8333 19C31.8333 19.5523 31.3856 20 30.8333 20H23.5C22.9477 20 22.5 19.5523 22.5 19ZM22.5001 24C22.5001 23.4477 22.9478 23 23.5001 23H30.8333C31.3855 23 31.8333 23.4477 31.8333 24C31.8333 24.5523 31.3855 25 30.8333 25H23.5001C22.9478 25 22.5001 24.5523 22.5001 24ZM23.5001 28C22.9478 28 22.5001 28.4477 22.5001 29C22.5001 29.5523 22.9478 30 23.5001 30H30.8333C31.3855 30 31.8333 29.5523 31.8333 29C31.8333 28.4477 31.3855 28 30.8333 28H23.5001ZM18.8333 25.3333C19.5697 25.3333 20.1667 24.7364 20.1667 24C20.1667 23.2636 19.5697 22.6667 18.8333 22.6667C18.097 22.6667 17.5 23.2636 17.5 24C17.5 24.7364 18.097 25.3333 18.8333 25.3333ZM20.1667 29C20.1667 29.7364 19.5697 30.3333 18.8333 30.3333C18.097 30.3333 17.5 29.7364 17.5 29C17.5 28.2636 18.097 27.6667 18.8333 27.6667C19.5697 27.6667 20.1667 28.2636 20.1667 29ZM15.5 12C13.8431 12 12.5 13.3431 12.5 15V33C12.5 34.6568 13.8431 36 15.5 36H33.5C35.1569 36 36.5 34.6568 36.5 33V15C36.5 13.3431 35.1569 12 33.5 12H15.5ZM14.5 15C14.5 14.4477 14.9477 14 15.5 14H33.5C34.0523 14 34.5 14.4477 34.5 15V33C34.5 33.5523 34.0523 34 33.5 34H15.5C14.9477 34 14.5 33.5523 14.5 33V15Z" fill="white"/>
<defs>
<linearGradient id="paint0_linear_33550_8733" x1="0.5" y1="0" x2="48.5" y2="48" gradientUnits="userSpaceOnUse">
<stop stop-color="#B7EB8F"/>
<stop offset="1" stop-color="#52C41A"/>
</linearGradient>
</defs>
</svg>
