<svg width="209" height="48" viewBox="0 0 209 48" fill="none" xmlns="http://www.w3.org/2000/svg">
<path d="M82.4688 36V12.312H97.992V15.1008H85.8624V22.56H97.2192V25.3824H85.8624V33.1776H97.992V36H82.4688Z" fill="#3180E8"/>
<path d="M106.695 36L99.4378 19.0656H103.067L108.779 33.2112H107.804L113.617 19.0656H117.078L109.787 36H106.695Z" fill="#3180E8"/>
<path d="M126.732 36.3024C125.052 36.3024 123.596 35.9552 122.364 35.2608C121.132 34.544 120.18 33.536 119.508 32.2368C118.836 30.9152 118.5 29.3472 118.5 27.5328C118.5 25.7184 118.836 24.1616 119.508 22.8624C120.18 21.5408 121.132 20.5328 122.364 19.8384C123.596 19.1216 125.052 18.7632 126.732 18.7632C128.412 18.7632 129.868 19.1216 131.1 19.8384C132.354 20.5328 133.317 21.5408 133.989 22.8624C134.684 24.1616 135.031 25.7184 135.031 27.5328C135.031 29.3472 134.684 30.9152 133.989 32.2368C133.317 33.536 132.354 34.544 131.1 35.2608C129.868 35.9552 128.412 36.3024 126.732 36.3024ZM126.732 33.648C128.21 33.648 129.386 33.1328 130.26 32.1024C131.133 31.072 131.57 29.5488 131.57 27.5328C131.57 25.5168 131.133 24.0048 130.26 22.9968C129.386 21.9664 128.21 21.4512 126.732 21.4512C125.276 21.4512 124.111 21.9664 123.237 22.9968C122.364 24.0048 121.927 25.5168 121.927 27.5328C121.927 29.5488 122.353 31.072 123.204 32.1024C124.077 33.1328 125.253 33.648 126.732 33.648Z" fill="#3180E8"/>
<path d="M139.3 36V12.312H149.178C151.732 12.312 153.692 12.8496 155.058 13.9248C156.447 15 157.142 16.512 157.142 18.4608C157.142 19.9168 156.705 21.1376 155.831 22.1232C154.958 23.1088 153.759 23.7696 152.236 24.1056V23.6016C153.983 23.8256 155.338 24.4416 156.302 25.4496C157.265 26.4576 157.746 27.7904 157.746 29.448C157.746 31.5536 157.03 33.1776 155.596 34.32C154.185 35.44 152.191 36 149.615 36H139.3ZM142.694 33.2784H149.246C150.836 33.2784 152.079 32.976 152.975 32.3712C153.894 31.7664 154.353 30.7472 154.353 29.3136C154.353 27.88 153.894 26.8608 152.975 26.256C152.079 25.6512 150.836 25.3488 149.246 25.3488H142.694V33.2784ZM142.694 22.6608H148.641C150.343 22.6608 151.62 22.336 152.471 21.6864C153.322 21.0368 153.748 20.0848 153.748 18.8304C153.748 17.576 153.322 16.624 152.471 15.9744C151.62 15.3248 150.343 15 148.641 15H142.694V22.6608Z" fill="#3180E8"/>
<path d="M162.335 36V12.312H165.393L174.532 32.9088H173.524L182.663 12.312H185.687V36H182.529V17.0496H183.638L175.103 36H172.919L164.385 17.0496H165.527V36H162.335Z" fill="#3180E8"/>
<path d="M199.337 36.3024C197.433 36.3024 195.709 36.0672 194.163 35.5968C192.617 35.104 191.273 34.4096 190.131 33.5136L191.307 30.7584C192.069 31.3408 192.853 31.8224 193.659 32.2032C194.488 32.584 195.361 32.8752 196.28 33.0768C197.221 33.256 198.24 33.3456 199.337 33.3456C201.219 33.3456 202.597 33.0096 203.47 32.3376C204.366 31.6656 204.814 30.7808 204.814 29.6832C204.814 28.7424 204.501 28.0144 203.873 27.4992C203.269 26.984 202.193 26.5696 200.648 26.256L196.985 25.5168C194.813 25.0688 193.189 24.3408 192.113 23.3328C191.061 22.3024 190.534 20.9024 190.534 19.1328C190.534 17.6992 190.915 16.4448 191.677 15.3696C192.438 14.2944 193.491 13.4656 194.835 12.8832C196.201 12.3008 197.792 12.0096 199.606 12.0096C201.286 12.0096 202.832 12.256 204.243 12.7488C205.654 13.2192 206.841 13.9248 207.805 14.8656L206.662 17.52C205.654 16.6464 204.579 16.008 203.437 15.6048C202.294 15.1792 200.995 14.9664 199.539 14.9664C197.814 14.9664 196.459 15.3248 195.473 16.0416C194.51 16.7584 194.029 17.7328 194.029 18.9648C194.029 19.9504 194.331 20.7232 194.936 21.2832C195.563 21.8432 196.593 22.2688 198.027 22.56L201.689 23.2656C203.952 23.736 205.621 24.464 206.696 25.4496C207.771 26.4128 208.309 27.7456 208.309 29.448C208.309 30.8144 207.939 32.0128 207.2 33.0432C206.483 34.0736 205.453 34.88 204.109 35.4624C202.765 36.0224 201.174 36.3024 199.337 36.3024Z" fill="#3180E8"/>
<path fill-rule="evenodd" clip-rule="evenodd" d="M8 0C6.89543 0 6 0.89543 6 2V42H14.4V27.2L32.4 18V42H33.6V18L39.6 21.6038V42H40.8V12L52.8 6V42H54V6L66 12V2C66 0.895431 65.1046 0 64 0H8ZM72 44H0V46C0 47.1046 0.895432 48 2 48H70C71.1046 48 72 47.1046 72 46V44Z" fill="#3180E8"/>
</svg>
