<svg width="32" height="32" viewBox="0 0 32 32" fill="none" xmlns="http://www.w3.org/2000/svg">
<path d="M15.992 28.3973C14.2896 28.3973 12.6853 28.0727 11.1791 27.4235C9.67291 26.7743 8.35822 25.888 7.23504 24.7648C6.11184 23.6417 5.22563 22.327 4.57641 20.8208C3.92716 19.3146 3.60254 17.7103 3.60254 16.0079C3.60254 14.2881 3.92716 12.6782 4.57641 11.1782C5.22563 9.67831 6.11184 8.36585 7.23504 7.24087C8.35822 6.1159 9.67291 5.22826 11.1791 4.57797C12.6853 3.92768 14.2896 3.60254 15.992 3.60254C17.7118 3.60254 19.3217 3.92776 20.8216 4.57821C22.3216 5.22865 23.634 6.11652 24.759 7.24181C25.884 8.36707 26.7716 9.67986 27.4219 11.1802C28.0722 12.6805 28.3973 14.2871 28.3973 15.9999C28.3973 17.7076 28.0722 19.3146 27.4219 20.8208C26.7716 22.327 25.884 23.6417 24.759 24.7648C23.634 25.888 22.3216 26.7743 20.8216 27.4235C19.3217 28.0727 17.7118 28.3973 15.992 28.3973ZM15.9999 26.5846C16.6938 25.673 17.2761 24.7487 17.7466 23.8118C18.2172 22.8748 18.6008 21.8585 18.8974 20.7627H13.1089C13.414 21.8969 13.7997 22.9304 14.266 23.863C14.7324 24.7957 15.3103 25.7029 15.9999 26.5846ZM13.5795 26.191C13.0504 25.4286 12.5763 24.5786 12.157 23.641C11.7378 22.7034 11.4143 21.7439 11.1866 20.7627H6.63967C7.34394 22.1764 8.29629 23.3514 9.49674 24.2878C10.6972 25.2241 12.0581 25.8585 13.5795 26.191ZM18.4204 26.191C19.9375 25.8628 21.2974 25.2294 22.4999 24.291C23.7025 23.3525 24.6581 22.1764 25.3666 20.7627H20.8196C20.545 21.7525 20.198 22.7162 19.7787 23.6538C19.3595 24.5914 18.9067 25.4371 18.4204 26.191ZM5.88201 18.8974H10.7948C10.7111 18.3948 10.6504 17.9044 10.6128 17.4262C10.5752 16.948 10.5564 16.4726 10.5564 15.9999C10.5564 15.5273 10.5752 15.0519 10.6128 14.5736C10.6504 14.0954 10.7111 13.6051 10.7948 13.1025H5.88201C5.74267 13.5666 5.63882 14.0413 5.57044 14.5266C5.50206 15.0118 5.46787 15.503 5.46787 15.9999C5.46787 16.4969 5.50206 16.988 5.57044 17.4733C5.63882 17.9586 5.74267 18.4333 5.88201 18.8974ZM12.6768 18.8974H19.3294C19.4158 18.3948 19.4788 17.9105 19.5185 17.4445C19.5583 16.9784 19.5782 16.4969 19.5782 15.9999C19.5782 15.503 19.5583 15.0215 19.5185 14.5554C19.4788 14.0894 19.4158 13.6051 19.3294 13.1025H12.6768C12.5862 13.6051 12.5211 14.0894 12.4813 14.5554C12.4416 15.0215 12.4217 15.503 12.4217 15.9999C12.4217 16.4969 12.4416 16.9784 12.4813 17.4445C12.5211 17.9105 12.5862 18.3948 12.6768 18.8974ZM21.205 18.8974H26.1243C26.2594 18.4333 26.3611 17.9586 26.4294 17.4733C26.4978 16.988 26.532 16.4969 26.532 15.9999C26.532 15.503 26.4978 15.0118 26.4294 14.5266C26.3611 14.0413 26.2594 13.5666 26.1243 13.1025H21.205C21.2888 13.6051 21.3495 14.0954 21.3871 14.5736C21.4247 15.0519 21.4435 15.5273 21.4435 15.9999C21.4435 16.4726 21.4247 16.948 21.3871 17.4262C21.3495 17.9044 21.2888 18.3948 21.205 18.8974ZM20.8196 11.2371H25.3666C24.6538 9.81063 23.7068 8.63562 22.5256 7.71211C21.3444 6.78859 19.976 6.14992 18.4204 5.79607C18.9495 6.6012 19.4204 7.46617 19.8332 8.39097C20.2461 9.31577 20.5749 10.2645 20.8196 11.2371ZM13.1089 11.2371H18.8974C18.588 10.1158 18.1937 9.07698 17.7146 8.12081C17.2355 7.1646 16.6639 6.26277 15.9999 5.41531C15.336 6.26277 14.7644 7.1646 14.2853 8.12081C13.8061 9.07698 13.414 10.1158 13.1089 11.2371ZM6.63967 11.2371H11.1866C11.4272 10.2645 11.7538 9.31577 12.1666 8.39097C12.5795 7.46617 13.0504 6.6012 13.5795 5.79607C12.0196 6.15418 10.6502 6.79499 9.47111 7.71851C8.29204 8.64202 7.34823 9.8149 6.63967 11.2371Z" fill="#3180E8"/>
</svg>
