<svg width="24" height="24" viewBox="0 0 24 24" fill="none" xmlns="http://www.w3.org/2000/svg">
<path d="M7.31254 20.298V8.62114L12.8798 3.08364C13.0888 2.87467 13.3274 2.74422 13.5957 2.69229C13.8639 2.64037 14.1149 2.67691 14.3485 2.80191C14.5758 2.93011 14.7393 3.12434 14.8389 3.38459C14.9386 3.64484 14.9522 3.924 14.8798 4.22206L13.8913 8.62114H20.5913C21.0349 8.62114 21.4303 8.79469 21.7774 9.14179C22.1245 9.4889 22.2981 9.88425 22.2981 10.3278V11.9051C22.2981 12.0079 22.2882 12.118 22.2686 12.2354C22.2489 12.3528 22.2219 12.4596 22.1875 12.5557L19.3615 19.1762C19.2261 19.4975 18.9913 19.7648 18.6571 19.9781C18.3229 20.1914 17.98 20.298 17.6285 20.298H7.31254ZM8.71154 9.20669V18.899H17.6702C17.7407 18.899 17.8128 18.8798 17.8865 18.8413C17.9603 18.8028 18.0164 18.7387 18.0548 18.649L20.8991 12.0076V10.3278C20.8991 10.2381 20.8702 10.1644 20.8125 10.1067C20.7548 10.049 20.6811 10.0201 20.5913 10.0201H12.1366L13.3625 4.57974L8.71154 9.20669ZM4.42889 20.298C3.95954 20.298 3.55775 20.1309 3.22352 19.7966C2.88928 19.4624 2.72217 19.0606 2.72217 18.5913V10.3278C2.72217 9.85849 2.88928 9.4567 3.22352 9.12246C3.55775 8.78825 3.95954 8.62114 4.42889 8.62114H7.31254V10.0201H4.42889C4.33914 10.0201 4.26542 10.049 4.20772 10.1067C4.15002 10.1644 4.12117 10.2381 4.12117 10.3278V18.5913C4.12117 18.681 4.15002 18.7547 4.20772 18.8124C4.26542 18.8701 4.33914 18.899 4.42889 18.899H7.31254V20.298H4.42889Z" fill="#1FB266"/>
</svg>
