<svg width="57" height="56" viewBox="0 0 57 56" fill="none" xmlns="http://www.w3.org/2000/svg">
<path d="M9.8335 43.7499C7.4164 43.7499 5.35381 42.8958 3.64573 41.1877C1.93757 39.4796 1.0835 37.417 1.0835 34.9999C1.0835 32.7982 1.8119 30.8792 3.26872 29.2429C4.72558 27.6066 6.55485 26.6568 8.75654 26.3936H9.6092L6.94372 24.141H2.47451C2.07368 24.141 1.74165 24.0093 1.47841 23.7461C1.21513 23.4828 1.0835 23.1508 1.0835 22.7499C1.0835 22.3491 1.21513 22.0171 1.47841 21.7538C1.74165 21.4905 2.07368 21.3589 2.47451 21.3589H10.4617L16.7887 25.1282L25.5297 21.8525C25.772 21.7748 26.0181 21.7104 26.2679 21.6596C26.5176 21.6087 26.7757 21.5833 27.0419 21.5833H34.7285L30.3938 16.0192C30.3191 15.9294 30.233 15.8621 30.1358 15.8172C30.0386 15.7723 29.9301 15.7499 29.8104 15.7499H26.1668C25.6703 15.7499 25.2545 15.5824 24.9194 15.2473C24.5844 14.9123 24.4169 14.4965 24.4169 13.9999C24.4169 13.5034 24.5844 13.0876 24.9194 12.7525C25.2545 12.4175 25.6703 12.25 26.1668 12.25H29.797C30.461 12.25 31.084 12.3966 31.6658 12.6897C32.2477 12.9829 32.73 13.3793 33.1129 13.8788L36.4783 18.191L42.3565 15.6154C42.7155 15.4658 43.0535 15.4927 43.3706 15.6962C43.6877 15.8996 43.8463 16.1928 43.8463 16.5757V19.407C43.8463 19.6881 43.7408 19.9342 43.5299 20.1451C43.319 20.356 43.073 20.4615 42.7918 20.4615H38.3001L43.4155 27.0846C43.9989 26.7915 44.6069 26.579 45.2395 26.4474C45.8723 26.3158 46.5147 26.25 47.1668 26.25C49.5839 26.25 51.6465 27.1041 53.3546 28.8122C55.0627 30.5203 55.9168 32.5828 55.9168 34.9999C55.9168 37.417 55.0627 39.4796 53.3546 41.1877C51.6465 42.8958 49.5839 43.7499 47.1668 43.7499C44.7497 43.7499 42.6871 42.8958 40.9791 41.1877C39.2709 39.4796 38.4169 37.417 38.4169 34.9999C38.4169 33.92 38.6166 32.888 39.0159 31.9038C39.4153 30.9196 39.9754 30.0221 40.6964 29.2115L38.722 26.7345L31.1969 38.123C31.0025 38.4042 30.7527 38.6345 30.4476 38.814C30.1424 38.9935 29.8104 39.0832 29.4514 39.0832H24.8431C24.5769 39.0832 24.3286 39.0421 24.0983 38.9598C23.8679 38.8776 23.663 38.7467 23.4835 38.5672L18.5834 34.3268V35.3589C18.4638 37.7042 17.5619 39.689 15.8777 41.3134C14.1935 42.9377 12.1788 43.7499 9.8335 43.7499ZM9.8335 40.25C11.2963 40.25 12.5371 39.7407 13.5556 38.7221C14.5742 37.7035 15.0836 36.4628 15.0836 34.9999C15.0836 33.5371 14.5742 32.2964 13.5556 31.2778C12.5371 30.2592 11.2963 29.7499 9.8335 29.7499C8.37065 29.7499 7.12994 30.2592 6.11136 31.2778C5.09275 32.2964 4.58344 33.5371 4.58344 34.9999C4.58344 36.4628 5.09275 37.7035 6.11136 38.7221C7.12994 39.7407 8.37065 40.25 9.8335 40.25ZM47.1668 40.25C48.6297 40.25 49.8704 39.7407 50.889 38.7221C51.9076 37.7035 52.4169 36.4628 52.4169 34.9999C52.4169 33.5371 51.9076 32.2964 50.889 31.2778C49.8704 30.2592 48.6297 29.7499 47.1668 29.7499C45.704 29.7499 44.4633 30.2592 43.4447 31.2778C42.4261 32.2964 41.9168 33.5371 41.9168 34.9999C41.9168 36.4628 42.4261 37.7035 43.4447 38.7221C44.4633 39.7407 45.704 40.25 47.1668 40.25Z" fill="#D9E0E3"/>
</svg>
