<svg width="49" height="48" viewBox="0 0 49 48" fill="none" xmlns="http://www.w3.org/2000/svg">
<rect x="0.5" width="48" height="48" rx="16" fill="#00C7BE"/>
<path d="M22.9097 36.4104C22.6262 36.4104 22.3887 36.3145 22.1973 36.1229C22.0058 35.9312 21.9101 35.6937 21.9101 35.4104V28.6155C21.9101 28.477 21.9191 28.3386 21.9371 28.2001C21.955 28.0617 21.9862 27.93 22.0306 27.8052L23.3922 23.954C23.5528 23.4738 23.8441 23.0837 24.2659 22.7836C24.6877 22.4835 25.1597 22.3335 25.6819 22.3335H33.3178C33.84 22.3335 34.312 22.4835 34.7338 22.7836C35.1556 23.0837 35.4468 23.4738 35.6075 23.954L36.969 27.8052C37.0135 27.93 37.0447 28.0617 37.0626 28.2001C37.0806 28.3386 37.0896 28.477 37.0896 28.6155V35.4104C37.0896 35.6937 36.9937 35.9312 36.8019 36.1229C36.6102 36.3145 36.3726 36.4104 36.0891 36.4104C35.8057 36.4104 35.5682 36.3145 35.3768 36.1229C35.1853 35.9312 35.0896 35.6937 35.0896 35.4104V34.2821H23.9101V35.4104C23.9101 35.6937 23.8142 35.9312 23.6225 36.1229C23.4307 36.3145 23.1931 36.4104 22.9097 36.4104ZM24.0639 26.8976H34.9357L33.9896 24.2053C33.9639 24.1198 33.9169 24.0514 33.8486 24.0001C33.7802 23.9488 33.699 23.9232 33.6049 23.9232H25.3947C25.3007 23.9232 25.2195 23.9488 25.1511 24.0001C25.0827 24.0514 25.0357 24.1198 25.0101 24.2053L24.0639 26.8976ZM25.5511 31.795C25.9071 31.795 26.2055 31.6746 26.4463 31.4338C26.6871 31.1929 26.8075 30.8945 26.8075 30.5386C26.8075 30.1826 26.6871 29.8842 26.4463 29.6434C26.2055 29.4026 25.9071 29.2822 25.5511 29.2822C25.1951 29.2822 24.8967 29.4026 24.6559 29.6434C24.4151 29.8842 24.2947 30.1826 24.2947 30.5386C24.2947 30.8945 24.4151 31.1929 24.6559 31.4338C24.8967 31.6746 25.1951 31.795 25.5511 31.795ZM33.4486 31.795C33.8045 31.795 34.1029 31.6746 34.3437 31.4338C34.5845 31.1929 34.705 30.8945 34.705 30.5386C34.705 30.1826 34.5845 29.8842 34.3437 29.6434C34.1029 29.4026 33.8045 29.2822 33.4486 29.2822C33.0926 29.2822 32.7942 29.4026 32.5534 29.6434C32.3126 29.8842 32.1922 30.1826 32.1922 30.5386C32.1922 30.8945 32.3126 31.1929 32.5534 31.4338C32.7942 31.6746 33.0926 31.795 33.4486 31.795ZM16.7307 25.7437V23.3847H19.0896V25.7437H16.7307ZM22.7306 18.4104V16.0515H25.0896V18.4104H22.7306ZM16.7307 31.077V28.7181H19.0896V31.077H16.7307ZM16.7307 36.4104V34.0514H19.0896V36.4104H16.7307ZM11.9102 36.4104V20.5899C11.9102 20.0275 12.1072 19.5493 12.5012 19.1553C12.8952 18.7613 13.3734 18.5643 13.9358 18.5643H17.9101V13.2566C17.9101 12.6942 18.1071 12.216 18.5011 11.822C18.8951 11.428 19.3733 11.231 19.9357 11.231H27.8844C28.4468 11.231 28.925 11.428 29.319 11.822C29.713 12.216 29.91 12.6942 29.91 13.2566V19.513H27.9101V13.2309H19.9101V20.5642H13.9101V36.4104H11.9102Z" fill="white"/>
</svg>
