<svg width="49" height="48" viewBox="0 0 49 48" fill="none" xmlns="http://www.w3.org/2000/svg">
<rect x="0.5" width="48" height="48" rx="16" fill="#0071E9"/>
<path d="M36.2675 15.3587C36.1736 15.2464 36.0562 15.1561 35.9236 15.0941C35.791 15.0321 35.6464 15 35.5 15H15.335L14.7238 11.6425C14.64 11.1817 14.3972 10.7648 14.0377 10.4647C13.6781 10.1645 13.2246 10.0001 12.7562 10H10.5C10.2348 10 9.98043 10.1054 9.79289 10.2929C9.60536 10.4804 9.5 10.7348 9.5 11C9.5 11.2652 9.60536 11.5196 9.79289 11.7071C9.98043 11.8946 10.2348 12 10.5 12H12.75L15.945 29.5362C16.0391 30.0563 16.269 30.5423 16.6112 30.945C16.1388 31.3863 15.7978 31.9498 15.6261 32.573C15.4543 33.1962 15.4586 33.8549 15.6383 34.4759C15.818 35.0968 16.1662 35.6559 16.6443 36.0911C17.1223 36.5263 17.7116 36.8205 18.3467 36.9412C18.9818 37.062 19.6379 37.0044 20.2423 36.775C20.8467 36.5456 21.3758 36.1533 21.7708 35.6416C22.1658 35.1299 22.4114 34.5187 22.4804 33.8759C22.5493 33.2332 22.4388 32.5838 22.1613 32H27.8388C27.615 32.4684 27.4993 32.981 27.5 33.5C27.5 34.1922 27.7053 34.8689 28.0899 35.4445C28.4744 36.0201 29.0211 36.4687 29.6606 36.7336C30.3001 36.9985 31.0039 37.0678 31.6828 36.9327C32.3617 36.7977 32.9854 36.4644 33.4749 35.9749C33.9644 35.4854 34.2977 34.8617 34.4327 34.1828C34.5678 33.5039 34.4985 32.8001 34.2336 32.1606C33.9687 31.5211 33.5201 30.9744 32.9445 30.5899C32.3689 30.2053 31.6922 30 31 30H18.8962C18.6621 30 18.4353 29.9177 18.2555 29.7677C18.0758 29.6176 17.9544 29.4092 17.9125 29.1787L17.5162 27H32.0163C32.7188 26.9999 33.3991 26.7532 33.9384 26.303C34.4777 25.8527 34.8419 25.2275 34.9675 24.5362L36.4875 16.1788C36.5132 16.0343 36.5069 15.886 36.4688 15.7442C36.4308 15.6025 36.3621 15.4709 36.2675 15.3587ZM31 32C31.2967 32 31.5867 32.088 31.8334 32.2528C32.08 32.4176 32.2723 32.6519 32.3858 32.926C32.4993 33.2001 32.5291 33.5017 32.4712 33.7926C32.4133 34.0836 32.2704 34.3509 32.0607 34.5607C31.8509 34.7704 31.5836 34.9133 31.2926 34.9712C31.0017 35.0291 30.7001 34.9993 30.426 34.8858C30.1519 34.7723 29.9176 34.58 29.7528 34.3334C29.588 34.0867 29.5 33.7967 29.5 33.5C29.5 33.1022 29.658 32.7206 29.9393 32.4393C30.2206 32.158 30.6022 32 31 32ZM19 32C19.2967 32 19.5867 32.088 19.8334 32.2528C20.08 32.4176 20.2723 32.6519 20.3858 32.926C20.4994 33.2001 20.5291 33.5017 20.4712 33.7926C20.4133 34.0836 20.2704 34.3509 20.0607 34.5607C19.8509 34.7704 19.5836 34.9133 19.2926 34.9712C19.0017 35.0291 18.7001 34.9993 18.426 34.8858C18.1519 34.7723 17.9176 34.58 17.7528 34.3334C17.588 34.0867 17.5 33.7967 17.5 33.5C17.5 33.1022 17.658 32.7206 17.9393 32.4393C18.2206 32.158 18.6022 32 19 32Z" fill="white"/>
</svg>
