<svg width="49" height="48" viewBox="0 0 49 48" fill="none" xmlns="http://www.w3.org/2000/svg">
<rect x="0.5" width="48" height="48" rx="16" fill="#FF3B30"/>
<path d="M16.1665 15.4286C16.1665 13.5375 17.6613 12 19.4998 12H34.4998C36.3384 12 37.8332 13.5375 37.8332 15.4286V32.5714C37.8332 34.4625 36.3384 36 34.4998 36H15.3332C13.0311 36 11.1665 34.0821 11.1665 31.7143V17.1429C11.1665 16.1946 11.9113 15.4286 12.8332 15.4286C13.755 15.4286 14.4998 16.1946 14.4998 17.1429V31.7143C14.4998 32.1857 14.8748 32.5714 15.3332 32.5714C15.7915 32.5714 16.1665 32.1857 16.1665 31.7143V15.4286ZM19.4998 16.7143V21C19.4998 21.7125 20.0571 22.2857 20.7498 22.2857H26.5832C27.2759 22.2857 27.8332 21.7125 27.8332 21V16.7143C27.8332 16.0018 27.2759 15.4286 26.5832 15.4286H20.7498C20.0571 15.4286 19.4998 16.0018 19.4998 16.7143ZM30.3332 16.2857C30.3332 16.7571 30.7082 17.1429 31.1665 17.1429H33.6665C34.1248 17.1429 34.4998 16.7571 34.4998 16.2857C34.4998 15.8143 34.1248 15.4286 33.6665 15.4286H31.1665C30.7082 15.4286 30.3332 15.8143 30.3332 16.2857ZM30.3332 21.4286C30.3332 21.9 30.7082 22.2857 31.1665 22.2857H33.6665C34.1248 22.2857 34.4998 21.9 34.4998 21.4286C34.4998 20.9571 34.1248 20.5714 33.6665 20.5714H31.1665C30.7082 20.5714 30.3332 20.9571 30.3332 21.4286ZM19.4998 26.5714C19.4998 27.0429 19.8748 27.4286 20.3332 27.4286H33.6665C34.1248 27.4286 34.4998 27.0429 34.4998 26.5714C34.4998 26.1 34.1248 25.7143 33.6665 25.7143H20.3332C19.8748 25.7143 19.4998 26.1 19.4998 26.5714ZM19.4998 31.7143C19.4998 32.1857 19.8748 32.5714 20.3332 32.5714H33.6665C34.1248 32.5714 34.4998 32.1857 34.4998 31.7143C34.4998 31.2429 34.1248 30.8571 33.6665 30.8571H20.3332C19.8748 30.8571 19.4998 31.2429 19.4998 31.7143Z" fill="white"/>
</svg>
