<svg width="24" height="24" viewBox="0 0 24 24" fill="none" xmlns="http://www.w3.org/2000/svg">
<path d="M11.9969 2.3999C15.7756 2.3999 18.8896 5.20176 19.1783 8.82639L19.1943 9.09304L19.1997 9.36247L19.1985 13.6775L20.309 16.3441C20.3361 16.4091 20.3573 16.4761 20.3725 16.5445L20.3909 16.6479L20.4012 16.8054C20.4012 17.3431 20.0454 17.8064 19.5022 17.9612L19.3627 17.9933L19.2012 18.0054L14.9992 18.0047L14.9933 18.1983C14.8911 19.7627 13.5899 20.9999 11.9997 20.9999C10.4091 20.9999 9.10768 19.7621 9.00611 18.1972L8.99925 18.0047L4.7984 18.0054C4.69286 18.0054 4.58801 17.9914 4.48653 17.9641L4.33718 17.9132C3.84424 17.708 3.55388 17.207 3.61436 16.6507L3.63967 16.4978L3.69057 16.3442L4.79853 13.6811L4.79983 9.35127L4.80499 9.08179C4.95213 5.34128 8.12496 2.3999 11.9969 2.3999ZM13.7992 18.0047H10.1992L10.2081 18.1744C10.2903 19.0296 10.971 19.7099 11.8264 19.7917L11.9997 19.7999C12.9354 19.7999 13.7043 19.086 13.7915 18.1733L13.7992 18.0047ZM11.9969 3.5999C8.84984 3.5999 6.27231 5.90837 6.02029 8.86188L6.00442 9.11658L5.99973 9.36247V13.7999L5.95364 14.0305L4.79838 16.8054L19.1477 16.8078L19.2019 16.8054L18.0458 14.0305L17.9997 13.7999L17.9999 9.3748L17.9949 9.12987C17.8687 6.04179 15.2333 3.5999 11.9969 3.5999Z" fill="#323E44"/>
</svg>
