<svg width="49" height="48" viewBox="0 0 49 48" fill="none" xmlns="http://www.w3.org/2000/svg">
<rect x="0.5" width="48" height="48" rx="16" fill="url(#paint0_linear_33550_8760)"/>
<path d="M18.1 12.8C15.449 12.8 13.3 14.949 13.3 17.6V30.4C13.3 33.051 15.449 35.2 18.1 35.2H23.8595C23.6004 34.6931 23.389 34.1578 23.2312 33.6H18.1C16.3327 33.6 14.9 32.1673 14.9 30.4V19.2H34.1V22.7312C34.6578 22.889 35.1931 23.1004 35.7 23.3595V17.6C35.7 14.949 33.551 12.8 30.9 12.8H18.1ZM14.9 17.6C14.9 15.8327 16.3327 14.4 18.1 14.4H30.9C32.6673 14.4 34.1 15.8327 34.1 17.6L14.9 17.6ZM31.0357 22.4247C30.9657 22.4078 30.8932 22.3995 30.82 22.4001H23.78C23.5508 22.3963 23.329 22.4811 23.1608 22.6369C23.0802 22.7063 23.0156 22.7923 22.9713 22.8889C22.927 22.9855 22.9041 23.0906 22.9041 23.1969C22.9041 23.3032 22.927 23.4083 22.9713 23.5049C23.0156 23.6016 23.0802 23.6875 23.1608 23.7569V23.7633C23.329 23.9191 23.5508 24.0039 23.78 24.0001H26.6389C27.9006 23.1116 29.4064 22.5463 31.0357 22.4247ZM17.4248 22.5759C17.3405 22.773 17.298 22.9855 17.3 23.1999C17.3048 23.4188 17.347 23.6352 17.4248 23.8399C17.4984 24.0291 17.6138 24.1992 17.7624 24.3375C17.9121 24.479 18.0853 24.5932 18.2744 24.6751C18.472 24.7595 18.685 24.8019 18.9 24.7999C19.1155 24.8097 19.3302 24.7668 19.5256 24.6751C19.7159 24.5901 19.8894 24.4714 20.0376 24.3247C20.1807 24.1812 20.2953 24.0118 20.3752 23.8255C20.4595 23.6278 20.502 23.4148 20.5 23.1999C20.5003 22.9856 20.4579 22.7735 20.3752 22.5759C20.296 22.3818 20.1766 22.2068 20.0248 22.0623C19.8745 21.9215 19.7014 21.8073 19.5128 21.7247C19.3193 21.6412 19.1106 21.5987 18.9 21.5999C18.6841 21.5931 18.4698 21.6376 18.2744 21.7295C18.0846 21.8156 17.9113 21.9342 17.7624 22.0799C17.62 22.2228 17.5055 22.391 17.4248 22.5759ZM17.3 29.5999C17.298 29.3855 17.3405 29.173 17.4248 28.9759C17.505 28.7893 17.6195 28.6194 17.7624 28.4751C17.9111 28.3294 18.0844 28.2113 18.2744 28.1263C18.4698 28.0348 18.6843 27.9914 18.9 27.9999C19.1108 27.9985 19.3196 28.0416 19.5128 28.1263C19.7016 28.2078 19.8749 28.3214 20.0248 28.4623C20.1766 28.6068 20.296 28.7818 20.3752 28.9759C20.4579 29.1735 20.5003 29.3856 20.5 29.5999C20.502 29.8148 20.4595 30.0278 20.3752 30.2255C20.2949 30.412 20.1804 30.5819 20.0376 30.7263C19.8889 30.8719 19.7155 30.99 19.5256 31.0751C19.3302 31.1668 19.1155 31.2097 18.9 31.1999C18.685 31.2019 18.472 31.1595 18.2744 31.0751C18.0853 30.9932 17.9121 30.879 17.7624 30.7375C17.6136 30.5987 17.4981 30.428 17.4248 30.2383C17.3471 30.0341 17.3049 29.8182 17.3 29.5999ZM35.7001 37.1866C34.5161 37.9777 33.124 38.4 31.7 38.4C29.7904 38.4 27.9591 37.6414 26.6088 36.2912C25.2586 34.9409 24.5 33.1095 24.5 31.2C24.5 29.776 24.9223 28.3839 25.7134 27.1999C26.5046 26.0159 27.629 25.093 28.9447 24.5481C30.2603 24.0031 31.708 23.8605 33.1046 24.1383C34.5013 24.4162 35.7842 25.1019 36.7912 26.1088C37.7981 27.1158 38.4838 28.3987 38.7616 29.7953C39.0395 31.192 38.8969 32.6397 38.3519 33.9553C37.807 35.2709 36.8841 36.3954 35.7001 37.1866ZM32.2657 27.4343C32.1156 27.2843 31.9122 27.2 31.7 27.2C31.4878 27.2 31.2843 27.2843 31.1343 27.4343C30.9843 27.5843 30.9 27.7878 30.9 28V30.4H28.5C28.2878 30.4 28.0843 30.4843 27.9343 30.6343C27.7843 30.7843 27.7 30.9878 27.7 31.2C27.7 31.4122 27.7843 31.6156 27.9343 31.7657C28.0843 31.9157 28.2878 32 28.5 32H30.9V34.4C30.9 34.6122 30.9843 34.8156 31.1343 34.9657C31.2843 35.1157 31.4878 35.2 31.7 35.2C31.9122 35.2 32.1156 35.1157 32.2657 34.9657C32.4157 34.8156 32.5 34.6122 32.5 34.4V32H34.9C35.1122 32 35.3156 31.9157 35.4657 31.7657C35.6157 31.6156 35.7 31.4122 35.7 31.2C35.7 30.9878 35.6157 30.7843 35.4657 30.6343C35.3156 30.4843 35.1122 30.4 34.9 30.4H32.5V28C32.5 27.7878 32.4157 27.5843 32.2657 27.4343Z" fill="white"/>
<defs>
<linearGradient id="paint0_linear_33550_8760" x1="0.5" y1="0" x2="48.5" y2="48" gradientUnits="userSpaceOnUse">
<stop stop-color="#D3ADF7"/>
<stop offset="1" stop-color="#722ED1"/>
</linearGradient>
</defs>
</svg>
