<svg width="32" height="32" viewBox="0 0 32 32" fill="none" xmlns="http://www.w3.org/2000/svg">
<path d="M8.18201 23.0397C9.33329 22.2098 10.5517 21.5602 11.8371 21.091C13.1226 20.6217 14.5102 20.3871 15.9999 20.3871C17.4897 20.3871 18.8773 20.6217 20.1627 21.091C21.4482 21.5602 22.6687 22.2098 23.8243 23.0397C24.6781 22.1038 25.3429 21.0425 25.8185 19.8557C26.2942 18.6689 26.532 17.3829 26.532 15.9975C26.532 13.0726 25.5083 10.5865 23.4608 8.53904C21.4134 6.49159 18.9264 5.46787 15.9999 5.46787C13.0735 5.46787 10.5865 6.49159 8.53904 8.53904C6.49159 10.5865 5.46787 13.0726 5.46787 15.9975C5.46787 17.3829 5.70569 18.6689 6.18134 19.8557C6.65698 21.0425 7.32387 22.1038 8.18201 23.0397ZM16.0036 16.9461C14.7978 16.9461 13.7824 16.5349 12.9576 15.7126C12.1329 14.8903 11.7205 13.8762 11.7205 12.6703C11.7205 11.4644 12.1316 10.4491 12.954 9.62431C13.7763 8.79953 14.7904 8.38714 15.9962 8.38714C17.2021 8.38714 18.2175 8.79831 19.0422 9.62064C19.867 10.4429 20.2794 11.457 20.2794 12.6629C20.2794 13.8688 19.8682 14.8841 19.0459 15.7089C18.2236 16.5337 17.2095 16.9461 16.0036 16.9461ZM15.9999 28.3973C14.2832 28.3973 12.6695 28.0726 11.1587 27.4232C9.64789 26.7738 8.33542 25.8909 7.22124 24.7745C6.10706 23.6581 5.22541 22.3453 4.57627 20.8361C3.92712 19.3269 3.60254 17.7149 3.60254 15.9999C3.60254 14.2789 3.92726 12.6641 4.57671 11.1555C5.22613 9.64683 6.10903 8.33542 7.22541 7.22124C8.34178 6.10706 9.65457 5.2254 11.1638 4.57627C12.673 3.92712 14.285 3.60254 15.9999 3.60254C17.7209 3.60254 19.3358 3.92726 20.8444 4.5767C22.3531 5.22613 23.6645 6.10903 24.7786 7.2254C25.8928 8.34178 26.7745 9.6535 27.4236 11.1606C28.0728 12.6676 28.3973 14.2807 28.3973 15.9999C28.3973 17.7167 28.0726 19.3304 27.4232 20.8412C26.7738 22.352 25.8909 23.6645 24.7745 24.7786C23.6581 25.8928 22.3464 26.7745 20.8393 27.4236C19.3323 28.0728 17.7191 28.3973 15.9999 28.3973Z" fill="#3180E8"/>
</svg>
