<svg width="49" height="48" viewBox="0 0 49 48" fill="none" xmlns="http://www.w3.org/2000/svg">
<rect x="0.5" width="48" height="48" rx="16" fill="url(#paint0_linear_33550_8742)"/>
<path d="M15.8333 17.3333C15.8333 15.4924 17.3257 14 19.1667 14C21.0076 14 22.5 15.4924 22.5 17.3333C22.5 19.1743 21.0076 20.6667 19.1667 20.6667C17.3257 20.6667 15.8333 19.1743 15.8333 17.3333ZM19.1667 12C16.2211 12 13.8333 14.3878 13.8333 17.3333C13.8333 20.2789 16.2211 22.6667 19.1667 22.6667C22.1122 22.6667 24.5 20.2789 24.5 17.3333C24.5 14.3878 22.1122 12 19.1667 12ZM29.1667 18.6667C29.1667 17.5621 30.0621 16.6667 31.1667 16.6667C32.2712 16.6667 33.1667 17.5621 33.1667 18.6667C33.1667 19.7712 32.2712 20.6667 31.1667 20.6667C30.0621 20.6667 29.1667 19.7712 29.1667 18.6667ZM31.1667 14.6667C28.9575 14.6667 27.1667 16.4575 27.1667 18.6667C27.1667 20.8758 28.9575 22.6667 31.1667 22.6667C33.3758 22.6667 35.1667 20.8758 35.1667 18.6667C35.1667 16.4575 33.3758 14.6667 31.1667 14.6667ZM14.1667 25.3333C12.5098 25.3333 11.1667 26.6765 11.1667 28.3333V28.6681L11.1667 28.6696L11.1667 28.6731L11.1667 28.6814L11.1671 28.7036C11.1675 28.7208 11.1682 28.7429 11.1695 28.7694C11.1719 28.8225 11.1766 28.8939 11.1853 28.981C11.2027 29.1548 11.2364 29.3933 11.3022 29.6751C11.4333 30.2368 11.6954 30.9872 12.2224 31.7401C13.3142 33.2998 15.3957 34.6667 19.1667 34.6667C20.992 34.6667 22.4214 34.3464 23.5344 33.8391C23.3357 33.1801 23.2134 32.488 23.1776 31.7732C22.3177 32.2811 21.0502 32.6667 19.1667 32.6667C15.9376 32.6667 14.5191 31.5335 13.8609 30.5932C13.5129 30.0961 13.3376 29.5965 13.2499 29.2207C13.2063 29.0338 13.1853 28.8816 13.1754 28.782C13.1704 28.7324 13.1682 28.6963 13.1673 28.6762L13.1667 28.6595V28.3333C13.1667 27.781 13.6144 27.3333 14.1667 27.3333H24.1429C24.4742 26.6978 24.8819 26.1084 25.3539 25.5774C24.9898 25.4204 24.5884 25.3333 24.1667 25.3333H14.1667ZM39.1667 31.3333C39.1667 35.3834 35.8834 38.6667 31.8333 38.6667C27.7832 38.6667 24.5 35.3834 24.5 31.3333C24.5 27.2832 27.7832 24 31.8333 24C35.8834 24 39.1667 27.2832 39.1667 31.3333ZM36.3047 28.1953C36.0444 27.9349 35.6223 27.9349 35.3619 28.1953L30.5 33.0572L28.3047 30.8619C28.0444 30.6016 27.6223 30.6016 27.3619 30.8619C27.1016 31.1223 27.1016 31.5444 27.3619 31.8047L30.0286 34.4714C30.2889 34.7318 30.711 34.7318 30.9714 34.4714L36.3047 29.1381C36.5651 28.8777 36.5651 28.4556 36.3047 28.1953Z" fill="white"/>
<defs>
<linearGradient id="paint0_linear_33550_8742" x1="0.5" y1="0" x2="48.5" y2="48" gradientUnits="userSpaceOnUse">
<stop stop-color="#D3ADF7"/>
<stop offset="1" stop-color="#722ED1"/>
</linearGradient>
</defs>
</svg>
