<svg width="25" height="24" viewBox="0 0 25 24" fill="none" xmlns="http://www.w3.org/2000/svg">
<path d="M14.1253 13.75C14.3379 13.75 14.5159 13.6781 14.6595 13.5343C14.8031 13.3906 14.8749 13.2125 14.8749 13V10.75H17.1249C17.3374 10.75 17.5156 10.6781 17.6593 10.5343C17.8031 10.3905 17.8749 10.2123 17.8749 9.99967C17.8749 9.78707 17.8031 9.60898 17.6593 9.4654C17.5156 9.32182 17.3374 9.25002 17.1249 9.25002H14.8749V7C14.8749 6.7875 14.803 6.60937 14.6592 6.46562C14.5154 6.32189 14.3372 6.25002 14.1246 6.25002C13.912 6.25002 13.7339 6.32189 13.5903 6.46562C13.4467 6.60937 13.3749 6.7875 13.3749 7V9.25002H11.1249C10.9124 9.25002 10.7343 9.32192 10.5906 9.46572C10.4468 9.60954 10.3749 9.78774 10.3749 10.0003C10.3749 10.2129 10.4468 10.391 10.5906 10.5346C10.7343 10.6782 10.9124 10.75 11.1249 10.75H13.3749V13C13.3749 13.2125 13.4469 13.3906 13.5907 13.5343C13.7345 13.6781 13.9127 13.75 14.1253 13.75ZM8.43265 17.5C7.92752 17.5 7.49996 17.325 7.14998 16.975C6.79998 16.625 6.62498 16.1974 6.62498 15.6923V4.30772C6.62498 3.80259 6.79998 3.37502 7.14998 3.02502C7.49996 2.67502 7.92752 2.50002 8.43265 2.50002H19.8172C20.3223 2.50002 20.7499 2.67502 21.0999 3.02502C21.4499 3.37502 21.6249 3.80259 21.6249 4.30772V15.6923C21.6249 16.1974 21.4499 16.625 21.0999 16.975C20.7499 17.325 20.3223 17.5 19.8172 17.5H8.43265ZM4.93268 20.9999C4.42756 20.9999 4 20.8249 3.65 20.4749C3.3 20.1249 3.125 19.6974 3.125 19.1922V7.0577C3.125 6.8452 3.19691 6.66707 3.34072 6.52332C3.48454 6.37959 3.66274 6.30772 3.87533 6.30772C4.08791 6.30772 4.266 6.37959 4.4096 6.52332C4.55318 6.66707 4.62498 6.8452 4.62498 7.0577V19.1922C4.62498 19.2692 4.65703 19.3397 4.72113 19.4038C4.78524 19.4679 4.85576 19.5 4.93268 19.5H17.0672C17.2797 19.5 17.4578 19.5719 17.6016 19.7157C17.7453 19.8595 17.8172 20.0377 17.8172 20.2503C17.8172 20.4629 17.7453 20.641 17.6016 20.7845C17.4578 20.9281 17.2797 20.9999 17.0672 20.9999H4.93268Z" fill="#3180E8"/>
</svg>
