<svg width="49" height="48" viewBox="0 0 49 48" fill="none" xmlns="http://www.w3.org/2000/svg">
<rect x="0.5" width="48" height="48" rx="16" fill="url(#paint0_linear_33550_8736)"/>
<path d="M27.5 10C28.8062 10 29.9175 10.8348 30.3293 12H32C33.933 12 35.5 13.567 35.5 15.5V22.0422C34.7906 22.1434 34.1009 22.4187 33.5 22.8691V15.5C33.5 14.6716 32.8284 14 32 14H30.3293C29.9175 15.1652 28.8062 16 27.5 16H21.5C20.1938 16 19.0825 15.1652 18.6707 14H17C16.1716 14 15.5 14.6716 15.5 15.5V34.5C15.5 35.3284 16.1716 36 17 36H22.8041L22.5784 36.871C22.4774 37.261 22.4728 37.6436 22.5457 38H17C15.067 38 13.5 36.433 13.5 34.5V15.5C13.5 13.567 15.067 12 17 12H18.6707C19.0825 10.8348 20.1938 10 21.5 10H27.5ZM21.5 12C20.9477 12 20.5 12.4477 20.5 13C20.5 13.5523 20.9477 14 21.5 14H27.5C28.0523 14 28.5 13.5523 28.5 13C28.5 12.4477 28.0523 12 27.5 12H21.5ZM26.3605 30L24.4422 31.9339C24.4206 31.9557 24.3992 31.9777 24.3781 32H19.5C18.9477 32 18.5 31.5523 18.5 31C18.5 30.4477 18.9477 30 19.5 30H26.3605ZM18.5 21C18.5 20.4477 18.9477 20 19.5 20H29.5C30.0523 20 30.5 20.4477 30.5 21C30.5 21.5523 30.0523 22 29.5 22H19.5C18.9477 22 18.5 21.5523 18.5 21ZM19.5 25C18.9477 25 18.5 25.4477 18.5 26C18.5 26.5523 18.9477 27 19.5 27H24.5C25.0523 27 25.5 26.5523 25.5 26C25.5 25.4477 25.0523 25 24.5 25H19.5ZM38.1519 28.4246L29.5388 36.9677C29.187 37.3166 28.7488 37.5655 28.269 37.6891L25.2482 38.4666C24.5105 38.6565 23.8399 37.9848 24.0309 37.2474L24.8215 34.1959C24.9395 33.7405 25.1762 33.3244 25.5076 32.9904L34.0778 24.3503C35.2267 23.192 37.1073 23.218 38.2238 24.4076C39.2915 25.5452 39.2596 27.3259 38.1519 28.4246Z" fill="white"/>
<defs>
<linearGradient id="paint0_linear_33550_8736" x1="0.5" y1="0" x2="48.5" y2="48" gradientUnits="userSpaceOnUse">
<stop stop-color="#FFD591"/>
<stop offset="1" stop-color="#FA8C16"/>
</linearGradient>
</defs>
</svg>
