<svg width="49" height="48" viewBox="0 0 49 48" fill="none" xmlns="http://www.w3.org/2000/svg">
<rect x="0.5" width="48" height="48" rx="16" fill="#7126FF"/>
<path d="M24.5029 35.8639C22.8773 35.8639 21.3432 35.5547 19.9007 34.9364C18.4581 34.3181 17.1953 33.467 16.1123 32.3832C15.0292 31.2994 14.179 30.0377 13.5617 28.598C12.9444 27.1584 12.6357 25.6267 12.6357 24.0029C12.6357 22.3551 12.9449 20.8154 13.5632 19.384C14.1816 17.9526 15.0326 16.6953 16.1164 15.6123C17.2002 14.5292 18.4619 13.679 19.9016 13.0617C21.3412 12.4444 22.873 12.1357 24.4967 12.1357C26.1446 12.1357 27.6842 12.4449 29.1156 13.0632C30.547 13.6816 31.8043 14.5326 32.8873 15.6164C33.9704 16.7002 34.8206 17.9564 35.4379 19.3849C36.0552 20.8135 36.3639 22.3507 36.3639 23.9967C36.3639 25.6223 36.0547 27.1564 35.4364 28.5989C34.8181 30.0415 33.967 31.3043 32.8832 32.3873C31.7994 33.4704 30.5433 34.3206 29.1147 34.9379C27.6862 35.5552 26.1489 35.8639 24.5029 35.8639ZM20.5536 33.4921L22.7396 29.0164C21.9765 28.7525 21.3073 28.3367 20.732 27.7691C20.1567 27.2015 19.749 26.5404 19.5088 25.7857L14.9818 27.946C15.5365 29.1938 16.2878 30.2968 17.2357 31.2549C18.1836 32.2131 19.2896 32.9588 20.5536 33.4921ZM19.5088 22.2139C19.7319 21.4593 20.1336 20.8037 20.7139 20.2473C21.2942 19.6909 21.9609 19.278 22.7139 19.0088L20.5536 14.4818C19.2896 15.0237 18.178 15.771 17.219 16.7235C16.2601 17.6761 15.5143 18.7861 14.9818 20.0536L19.5088 22.2139ZM24.4957 27.7139C25.5262 27.7139 26.4035 27.3532 27.1277 26.6318C27.8518 25.9105 28.2139 25.0345 28.2139 24.0039C28.2139 22.9734 27.8532 22.0961 27.1318 21.3719C26.4105 20.6478 25.5345 20.2857 24.5039 20.2857C23.4734 20.2857 22.5961 20.6464 21.8719 21.3678C21.1478 22.0892 20.7857 22.9651 20.7857 23.9957C20.7857 25.0262 21.1464 25.9035 21.8678 26.6277C22.5892 27.3518 23.4651 27.7139 24.4957 27.7139ZM28.446 33.4921C29.7045 32.9577 30.8099 32.2143 31.7621 31.2621C32.7143 30.3099 33.4577 29.2045 33.9921 27.946L29.5164 25.76C29.2634 26.5062 28.8521 27.1707 28.2824 27.7536C27.7128 28.3365 27.0472 28.7489 26.2857 28.9908L28.446 33.4921ZM29.4908 22.2139L33.9921 20.0536C33.4577 18.7951 32.7143 17.6898 31.7621 16.7375C30.8099 15.7853 29.7045 15.042 28.446 14.5075L26.2857 18.9832C27.0301 19.2576 27.6899 19.6725 28.2651 20.228C28.8404 20.7836 29.2489 21.4456 29.4908 22.2139Z" fill="white"/>
</svg>
