<svg width="49" height="48" viewBox="0 0 49 48" fill="none" xmlns="http://www.w3.org/2000/svg">
<rect x="0.5" width="48" height="48" rx="16" fill="#F7F7F7"/>
<path d="M20.25 24C20.25 24.9665 19.4665 25.75 18.5 25.75C17.5335 25.75 16.75 24.9665 16.75 24C16.75 23.0335 17.5335 22.25 18.5 22.25C19.4665 22.25 20.25 23.0335 20.25 24ZM26.25 24C26.25 24.9665 25.4665 25.75 24.5 25.75C23.5335 25.75 22.75 24.9665 22.75 24C22.75 23.0335 23.5335 22.25 24.5 22.25C25.4665 22.25 26.25 23.0335 26.25 24ZM30.5 25.75C31.4665 25.75 32.25 24.9665 32.25 24C32.25 23.0335 31.4665 22.25 30.5 22.25C29.5335 22.25 28.75 23.0335 28.75 24C28.75 24.9665 29.5335 25.75 30.5 25.75Z" fill="black"/>
</svg>
