<svg
        width="57"
        height="56"
        viewBox="0 0 57 56"
        fill="none"
        xmlns="http://www.w3.org/2000/svg">
    <path
            d="M38.4881 21.5119C38.6508 21.6744 38.7799 21.8674 38.868 22.0799C38.9561 22.2923 39.0014 22.52 39.0014 22.75C39.0014 22.98 38.9561 23.2077 38.868 23.4201C38.7799 23.6326 38.6508 23.8256 38.4881 23.9881L26.2381 36.2381C26.0756 36.4008 25.8826 36.5299 25.6702 36.618C25.4577 36.706 25.23 36.7514 25 36.7514C24.77 36.7514 24.5423 36.706 24.3299 36.618C24.1174 36.5299 23.9244 36.4008 23.7619 36.2381L18.5119 30.9881C18.1835 30.6598 17.999 30.2144 17.999 29.75C17.999 29.2856 18.1835 28.8402 18.5119 28.5119C18.8403 28.1835 19.2856 27.999 19.75 27.999C20.2144 27.999 20.6598 28.1835 20.9881 28.5119L25 32.5259L36.0119 21.5119C36.1744 21.3492 36.3674 21.2201 36.5799 21.132C36.7923 21.044 37.02 20.9986 37.25 20.9986C37.48 20.9986 37.7077 21.044 37.9202 21.132C38.1326 21.2201 38.3256 21.3492 38.4881 21.5119ZM51.25 28C51.25 32.4995 49.9157 36.898 47.4159 40.6392C44.9161 44.3804 41.3631 47.2964 37.2061 49.0183C33.049 50.7402 28.4748 51.1907 24.0617 50.3129C19.6486 49.4351 15.595 47.2683 12.4133 44.0867C9.23169 40.905 7.06496 36.8514 6.18715 32.4383C5.30933 28.0252 5.75986 23.451 7.48175 19.294C9.20364 15.1369 12.1196 11.5839 15.8608 9.08407C19.602 6.58426 24.0005 5.25 28.5 5.25C34.5317 5.25637 40.3146 7.65528 44.5797 11.9204C48.8447 16.1854 51.2436 21.9683 51.25 28ZM47.75 28C47.75 24.1927 46.621 20.4709 44.5058 17.3053C42.3906 14.1396 39.3841 11.6723 35.8667 10.2153C32.3492 8.75833 28.4787 8.37712 24.7445 9.11988C21.0104 9.86265 17.5804 11.696 14.8882 14.3882C12.196 17.0804 10.3627 20.5104 9.61989 24.2445C8.87713 27.9786 9.25834 31.8492 10.7153 35.3667C12.1723 38.8841 14.6396 41.8906 17.8053 44.0058C20.9709 46.121 24.6927 47.25 28.5 47.25C33.6037 47.2442 38.4966 45.2142 42.1054 41.6054C45.7142 37.9966 47.7442 33.1036 47.75 28Z"
            fill="#39A07C" />
</svg>