<svg width="25" height="24" viewBox="0 0 25 24" fill="none" xmlns="http://www.w3.org/2000/svg">
<path d="M13.6346 21.5H10.6058C10.3814 21.5 10.1872 21.4247 10.0231 21.274C9.859 21.1234 9.76028 20.9359 9.72695 20.7115L9.43657 18.4538C9.16862 18.3641 8.89394 18.2384 8.61252 18.0769C8.3311 17.9153 8.0795 17.7423 7.8577 17.5577L5.76925 18.4384C5.55515 18.5218 5.34265 18.5301 5.13175 18.4634C4.92085 18.3968 4.75514 18.2647 4.63462 18.0673L3.13082 15.4481C3.0103 15.2506 2.97345 15.0397 3.02025 14.8154C3.06703 14.591 3.1808 14.4103 3.36157 14.2731L5.16927 12.9058C5.14619 12.7571 5.12984 12.6077 5.12022 12.4577C5.1106 12.3077 5.1058 12.1583 5.1058 12.0096C5.1058 11.8673 5.1106 11.7227 5.12022 11.5759C5.12984 11.4291 5.14619 11.2686 5.16927 11.0942L3.36157 9.7269C3.1808 9.58973 3.06703 9.40897 3.02025 9.1846C2.97345 8.96025 3.0103 8.74936 3.13082 8.55192L4.63462 5.95197C4.74489 5.74427 4.90643 5.60966 5.11925 5.54812C5.33206 5.48659 5.54552 5.49749 5.75962 5.58082L7.84807 6.45197C8.0891 6.26094 8.34648 6.08626 8.6202 5.92792C8.89393 5.76957 9.16285 5.64232 9.42695 5.54617L9.72695 3.2885C9.76028 3.06413 9.859 2.87663 10.0231 2.726C10.1872 2.57535 10.3814 2.50002 10.6058 2.50002H13.6346C13.8589 2.50002 14.0548 2.57535 14.2221 2.726C14.3894 2.87663 14.4897 3.06413 14.523 3.2885L14.8134 5.5558C15.1134 5.66477 15.3849 5.79201 15.6279 5.93752C15.8708 6.08304 16.116 6.25452 16.3634 6.45197L18.4904 5.58082C18.7045 5.49749 18.9154 5.48755 19.123 5.551C19.3307 5.61446 19.4949 5.74491 19.6154 5.94235L21.1192 8.55192C21.2397 8.74936 21.2765 8.96025 21.2297 9.1846C21.183 9.40897 21.0692 9.58973 20.8884 9.7269L19.0423 11.123C19.0782 11.2846 19.0977 11.4356 19.1009 11.5759C19.1041 11.7163 19.1057 11.8577 19.1057 12C19.1057 12.1359 19.1025 12.274 19.0961 12.4144C19.0897 12.5548 19.0666 12.7154 19.0269 12.8962L20.8538 14.2731C21.041 14.4039 21.1564 14.583 21.1999 14.8106C21.2435 15.0381 21.2051 15.2506 21.0846 15.4481L19.5807 18.0519C19.4602 18.2493 19.292 18.3823 19.0759 18.4509C18.8599 18.5195 18.6448 18.5121 18.4307 18.4288L16.3634 17.548C16.116 17.7455 15.8634 17.9202 15.6057 18.0721C15.348 18.224 15.0839 18.3481 14.8134 18.4442L14.523 20.7115C14.4897 20.9359 14.3894 21.1234 14.2221 21.274C14.0548 21.4247 13.8589 21.5 13.6346 21.5ZM12.1365 15C12.9686 15 13.6766 14.708 14.2605 14.124C14.8445 13.54 15.1365 12.832 15.1365 12C15.1365 11.168 14.8445 10.46 14.2605 9.87597C13.6766 9.29201 12.9686 9.00002 12.1365 9.00002C11.2942 9.00002 10.5837 9.29201 10.0048 9.87597C9.42599 10.46 9.13657 11.168 9.13657 12C9.13657 12.832 9.42599 13.54 10.0048 14.124C10.5837 14.708 11.2942 15 12.1365 15Z" fill="#3180E8"/>
</svg>
