<svg
        width="32"
        height="31"
        viewBox="0 0 14 13"
        fill="none"
        xmlns="http://www.w3.org/2000/svg">
    <path
            d="M12.6214 4.26062L8.85219 3.93393L7.38032 0.472538C7.11554 -0.157513 6.21218 -0.157513 5.9474 0.472538L4.47553 3.94171L0.714095 4.26062C0.0287812 4.31507 -0.251574 5.1707 0.270198 5.62185L3.12827 8.09538L2.27162 11.7668C2.11587 12.4357 2.84012 12.9647 3.43198 12.6069L6.66386 10.6623L9.89573 12.6146C10.4876 12.9724 11.2118 12.4435 11.0561 11.7746L10.1995 8.09538L13.0575 5.62185C13.5793 5.1707 13.3067 4.31507 12.6214 4.26062ZM6.66386 9.20769V1.97377L7.99555 5.11625L11.4065 5.41183L8.82104 7.65201L9.5998 10.9812L6.66386 9.20769Z"
            fill="#ECA805" />
</svg>