<svg width="32" height="32" viewBox="0 0 32 32" fill="none" xmlns="http://www.w3.org/2000/svg">
<path d="M7.21167 27.1988C6.57973 27.1988 6.04248 26.9775 5.5999 26.5349C5.15732 26.0923 4.93604 25.5551 4.93604 24.9231V7.21167C4.93604 6.57973 5.15732 6.04248 5.5999 5.5999C6.04248 5.15732 6.57973 4.93604 7.21167 4.93604H15.1104C15.3651 4.93604 15.5837 5.02728 15.7661 5.20977C15.9486 5.39223 16.0398 5.61081 16.0398 5.8655C16.0398 6.12448 15.9486 6.3452 15.7661 6.52767C15.5837 6.71014 15.3651 6.80137 15.1104 6.80137H7.21167C7.10909 6.80137 7.01507 6.84411 6.9296 6.9296C6.84411 7.01507 6.80137 7.10909 6.80137 7.21167V24.9231C6.80137 25.0257 6.84411 25.1197 6.9296 25.2052C7.01507 25.2907 7.10909 25.3334 7.21167 25.3334H15.1104C15.3651 25.3334 15.5837 25.4247 15.7661 25.6071C15.9486 25.7896 16.0398 26.0082 16.0398 26.2629C16.0398 26.5219 15.9486 26.7426 15.7661 26.9251C15.5837 27.1075 15.3651 27.1988 15.1104 27.1988H7.21167ZM23.4796 17.0001H13.145C12.886 17.0001 12.6653 16.9088 12.4828 16.7264C12.3003 16.5439 12.2091 16.3232 12.2091 16.0642C12.2091 15.8095 12.3003 15.5909 12.4828 15.4084C12.6653 15.226 12.886 15.1347 13.145 15.1347H23.4796L20.9382 12.5933C20.7564 12.4158 20.6634 12.201 20.6591 11.9489C20.6548 11.6967 20.7493 11.4756 20.9424 11.2854C21.1313 11.0952 21.351 10.9995 21.6014 10.9982C21.8518 10.9969 22.0753 11.0924 22.2717 11.2846L26.2502 15.2631C26.4809 15.4937 26.5962 15.7629 26.5962 16.0704C26.5962 16.378 26.4812 16.6447 26.2513 16.8706L22.2628 20.8591C22.0697 21.0479 21.8493 21.1411 21.6014 21.1385C21.3536 21.1359 21.1339 21.0402 20.9424 20.8513C20.7493 20.6599 20.6544 20.4396 20.6578 20.1905C20.6613 19.9413 20.7567 19.7209 20.9441 19.5292L23.4796 17.0001Z" fill="#3180E8"/>
</svg>
