<svg width="49" height="48" viewBox="0 0 49 48" fill="none" xmlns="http://www.w3.org/2000/svg">
<rect x="0.5" width="48" height="48" rx="16" fill="url(#paint0_linear_33550_8757)"/>
<path d="M36.5 16.3333C36.5 13.9401 34.5599 12 32.1667 12H16.8333C14.4401 12 12.5 13.9401 12.5 16.3333V31.6667C12.5 34.0599 14.4401 36 16.8333 36H26.0624C25.9083 35.5112 25.8333 35.0054 25.8333 34.5V34.3627C25.8333 34.2403 25.8393 34.1193 25.8509 34H16.8333C15.5447 34 14.5 32.9553 14.5 31.6667V19.3333H34.5V22.8599C35.2682 23.0885 35.9535 23.5097 36.5 24.0673V16.3333ZM16.8333 14H32.1667C33.4553 14 34.5 15.0447 34.5 16.3333V17.3333H14.5V16.3333C14.5 15.0447 15.5447 14 16.8333 14ZM36.5 27.3333C36.5 29.1743 35.0076 30.6667 33.1667 30.6667C31.3257 30.6667 29.8333 29.1743 29.8333 27.3333C29.8333 25.4924 31.3257 24 33.1667 24C35.0076 24 36.5 25.4924 36.5 27.3333ZM39.1667 34.5C39.1667 36.5753 37.4524 38.6666 33.1667 38.6667C28.8809 38.6667 27.1667 36.5832 27.1667 34.5V34.3627C27.1667 33.0573 28.2249 32 29.5303 32H36.803C38.1084 32 39.1667 33.0573 39.1667 34.3627V34.5Z" fill="white"/>
<defs>
<linearGradient id="paint0_linear_33550_8757" x1="0.5" y1="0" x2="48.5" y2="48" gradientUnits="userSpaceOnUse">
<stop stop-color="#B5F5EC" stop-opacity="0.968627"/>
<stop offset="1" stop-color="#13C2C2"/>
</linearGradient>
</defs>
</svg>
