<svg width="32" height="32" viewBox="0 0 32 32" fill="none" xmlns="http://www.w3.org/2000/svg">
<path d="M7.18085 22.1449L10.3321 25.2962C10.5193 25.4833 10.6106 25.7002 10.6059 25.9468C10.6012 26.1934 10.5065 26.4124 10.3219 26.6038C10.1262 26.797 9.90546 26.8942 9.65975 26.8955C9.41402 26.8968 9.19329 26.7995 8.99758 26.6038L4.40912 22.0154C4.29118 21.9017 4.20486 21.7773 4.15015 21.6423C4.09546 21.5073 4.06812 21.3628 4.06812 21.209C4.06812 21.0594 4.09546 20.9171 4.15015 20.7821C4.20486 20.647 4.29118 20.5227 4.40912 20.409L8.99758 15.8141C9.17792 15.6338 9.39479 15.5415 9.64821 15.5372C9.90162 15.5329 10.1262 15.6252 10.3219 15.8141C10.5065 16.0098 10.5988 16.2323 10.5988 16.4814C10.5988 16.7306 10.5031 16.953 10.3116 17.1487L7.18085 20.2795H26.1347C26.3894 20.2795 26.608 20.3707 26.7905 20.5532C26.9729 20.7357 27.0642 20.9543 27.0642 21.209C27.0642 21.4679 26.9729 21.6887 26.7905 21.8711C26.608 22.0536 26.3894 22.1449 26.1347 22.1449H7.18085ZM24.8258 11.7205H5.87192C5.61296 11.7205 5.39225 11.6293 5.20978 11.4468C5.02729 11.2643 4.93605 11.0436 4.93605 10.7846C4.93605 10.5299 5.02729 10.3113 5.20978 10.1289C5.39225 9.94638 5.61296 9.85514 5.87192 9.85514H24.8258L21.6745 6.70384C21.483 6.51666 21.3897 6.29978 21.3944 6.0532C21.3991 5.80663 21.4937 5.58548 21.6783 5.38977C21.8741 5.20088 22.0948 5.10579 22.3405 5.1045C22.5862 5.10324 22.8069 5.19833 23.0026 5.38977L27.5975 9.98464C27.7112 10.0983 27.7964 10.2227 27.8533 10.3577C27.9101 10.4927 27.9386 10.635 27.9386 10.7846C27.9386 10.9384 27.9101 11.0829 27.8533 11.2179C27.7964 11.353 27.7112 11.4773 27.5975 11.591L23.0026 16.1795C22.8223 16.3641 22.6054 16.4585 22.352 16.4628C22.0986 16.4671 21.8741 16.3726 21.6783 16.1795C21.4937 15.988 21.4014 15.7677 21.4014 15.5186C21.4014 15.2694 21.4993 15.047 21.695 14.8513L24.8258 11.7205Z" fill="#3180E8"/>
</svg>
