<svg width="49" height="48" viewBox="0 0 49 48" fill="none" xmlns="http://www.w3.org/2000/svg">
<rect x="0.5" width="48" height="48" rx="16" fill="#FF9500"/>
<path d="M26.3492 12.5669L34.8359 18.2242C35.0185 18.346 35.1682 18.5109 35.2718 18.7045C35.3753 18.898 35.4295 19.1141 35.4295 19.3336C35.4295 19.553 35.3753 19.7691 35.2718 19.9626C35.1682 20.1562 35.0185 20.3211 34.8359 20.4429L26.3492 26.1016C25.8016 26.4667 25.1581 26.6616 24.4999 26.6616C23.8417 26.6616 23.1982 26.4667 22.6506 26.1016L14.1639 20.4429C13.9813 20.3211 13.8316 20.1562 13.728 19.9626C13.6244 19.7691 13.5703 19.553 13.5703 19.3336C13.5703 19.1141 13.6244 18.898 13.728 18.7045C13.8316 18.5109 13.9813 18.346 14.1639 18.2242L22.6506 12.5669C23.1982 12.2017 23.8417 12.0068 24.4999 12.0068C25.1581 12.0068 25.8016 12.2017 26.3492 12.5669ZM35.2012 24.2562C35.0034 24.5729 34.7413 24.8445 34.4319 25.0536L26.3652 30.4989C25.8143 30.8709 25.1647 31.0697 24.4999 31.0697C23.8351 31.0697 23.1855 30.8709 22.6346 30.4989L14.5679 25.0536C14.0851 24.7279 13.7222 24.2531 13.5347 23.7017C13.3471 23.1504 13.3452 22.5528 13.5292 22.0002L22.6506 28.0802C23.1626 28.4215 23.7592 28.6143 24.3741 28.6374C24.989 28.6604 25.5984 28.5128 26.1346 28.2109L26.3479 28.0802L35.4692 22.0002C35.5938 22.3727 35.6344 22.7682 35.588 23.1583C35.5417 23.5483 35.4096 23.9233 35.2012 24.2562ZM35.2012 28.5896C35.0034 28.9062 34.7413 29.1778 34.4319 29.3869L26.3652 34.8322C25.8143 35.2042 25.1647 35.403 24.4999 35.403C23.8351 35.403 23.1855 35.2042 22.6346 34.8322L14.5679 29.3869C14.0851 29.0612 13.7222 28.5864 13.5347 28.035C13.3471 27.4837 13.3452 26.8861 13.5292 26.3336L22.6506 32.4136C23.1626 32.7548 23.7592 32.9476 24.3741 32.9707C24.989 32.9938 25.5984 32.8462 26.1346 32.5442L26.3479 32.4136L35.4692 26.3336C35.5938 26.7061 35.6344 27.1015 35.588 27.4916C35.5417 27.8816 35.4096 28.2566 35.2012 28.5896Z" fill="white"/>
</svg>
