<svg width="32" height="32" viewBox="0 0 32 32" fill="none" xmlns="http://www.w3.org/2000/svg">
<path d="M17.1429 22.8569C17.1429 23.4881 16.6312 23.9998 16 23.9998C15.3688 23.9998 14.8571 23.4881 14.8571 22.8569C14.8571 22.2257 15.3688 21.7141 16 21.7141C16.6312 21.7141 17.1429 22.2257 17.1429 22.8569ZM15.1429 19.1426C15.1429 19.616 15.5266 19.9998 16 19.9998C16.4734 19.9998 16.8571 19.616 16.8571 19.1426V11.7141C16.8571 11.2407 16.4734 10.8569 16 10.8569C15.5266 10.8569 15.1429 11.2407 15.1429 11.7141V19.1426ZM13.2486 4.76603C14.4435 2.60053 17.5558 2.60002 18.7515 4.76514L29.3234 23.909C30.4801 26.0037 28.965 28.5712 26.5722 28.5712H5.43641C3.04401 28.5712 1.52884 26.0046 2.6847 23.9099L13.2486 4.76603ZM17.2508 5.59386C16.7073 4.60972 15.2926 4.60994 14.7495 5.59426L4.18563 24.7381C3.66024 25.6903 4.34896 26.8569 5.43641 26.8569H26.5722C27.6598 26.8569 28.3485 25.6899 27.8227 24.7377L17.2508 5.59386Z" fill="#3180E8"/>
</svg>
